<mxfile host="app.diagrams.net" modified="2023-01-07T06:50:04.322Z" agent="5.0 (Windows NT 10.0; Win64; x64) AppleWebKit/537.36 (KHTML, like Gecko) Chrome/108.0.0.0 Safari/537.36" etag="ky0_SOH9_0zSRoLyjUeL" version="20.8.1" type="github" pages="2">
  <diagram id="g-0Ro0Y4P4B6Ds_MqYRB" name="基本结构">
    <mxGraphModel dx="2515" dy="1007" grid="0" gridSize="10" guides="1" tooltips="1" connect="1" arrows="1" fold="1" page="0" pageScale="1" pageWidth="827" pageHeight="1169" math="0" shadow="0">
      <root>
        <mxCell id="0" />
        <mxCell id="1" parent="0" />
        <mxCell id="yVJXbOSST7ZACjrLtC8i-51" value="" style="rounded=0;whiteSpace=wrap;html=1;dashed=1;fillColor=#cce5ff;opacity=30;strokeColor=none;" vertex="1" parent="1">
          <mxGeometry x="444" y="-148" width="522" height="491" as="geometry" />
        </mxCell>
        <mxCell id="0ahAJCGWrbVlbpO7Xw9a-24" value="和一些常见的渲染引擎一样，都是采用scene来承载几何对象及其材质，如ThreeJS的" style="text;html=1;align=center;verticalAlign=middle;resizable=0;points=[];autosize=1;strokeColor=none;fillColor=none;fontSize=17;rounded=1;" parent="1" vertex="1">
          <mxGeometry x="1090" y="-190" width="655" height="32" as="geometry" />
        </mxCell>
        <mxCell id="0ahAJCGWrbVlbpO7Xw9a-39" style="edgeStyle=elbowEdgeStyle;rounded=1;orthogonalLoop=1;jettySize=auto;html=1;startArrow=none;endArrow=none;" parent="1" source="0ahAJCGWrbVlbpO7Xw9a-28" target="0ahAJCGWrbVlbpO7Xw9a-38" edge="1">
          <mxGeometry relative="1" as="geometry" />
        </mxCell>
        <mxCell id="Qi1k_qb2-SxPD-QYgAsk-7" style="edgeStyle=elbowEdgeStyle;rounded=1;orthogonalLoop=1;jettySize=auto;html=1;startArrow=none;endArrow=none;exitX=0;exitY=0.5;exitDx=0;exitDy=0;exitPerimeter=0;" parent="1" target="Qi1k_qb2-SxPD-QYgAsk-6" edge="1">
          <mxGeometry relative="1" as="geometry">
            <mxPoint x="170" y="60" as="sourcePoint" />
          </mxGeometry>
        </mxCell>
        <mxCell id="Qi1k_qb2-SxPD-QYgAsk-9" style="edgeStyle=elbowEdgeStyle;rounded=1;orthogonalLoop=1;jettySize=auto;html=1;startArrow=none;endArrow=none;" parent="1" source="0ahAJCGWrbVlbpO7Xw9a-28" target="Qi1k_qb2-SxPD-QYgAsk-8" edge="1">
          <mxGeometry relative="1" as="geometry" />
        </mxCell>
        <mxCell id="Qi1k_qb2-SxPD-QYgAsk-11" style="edgeStyle=elbowEdgeStyle;rounded=1;orthogonalLoop=1;jettySize=auto;html=1;startArrow=none;endArrow=none;fontFamily=Helvetica;" parent="1" source="0ahAJCGWrbVlbpO7Xw9a-28" target="Qi1k_qb2-SxPD-QYgAsk-10" edge="1">
          <mxGeometry relative="1" as="geometry" />
        </mxCell>
        <mxCell id="Qi1k_qb2-SxPD-QYgAsk-13" style="edgeStyle=elbowEdgeStyle;rounded=1;orthogonalLoop=1;jettySize=auto;html=1;startArrow=none;endArrow=none;fontFamily=Helvetica;fontSize=15;" parent="1" source="0ahAJCGWrbVlbpO7Xw9a-28" target="Qi1k_qb2-SxPD-QYgAsk-12" edge="1">
          <mxGeometry relative="1" as="geometry" />
        </mxCell>
        <mxCell id="Qi1k_qb2-SxPD-QYgAsk-15" style="edgeStyle=elbowEdgeStyle;rounded=1;orthogonalLoop=1;jettySize=auto;html=1;startArrow=none;endArrow=none;fontFamily=Helvetica;fontSize=15;" parent="1" source="0ahAJCGWrbVlbpO7Xw9a-28" target="Qi1k_qb2-SxPD-QYgAsk-14" edge="1">
          <mxGeometry relative="1" as="geometry" />
        </mxCell>
        <mxCell id="Qi1k_qb2-SxPD-QYgAsk-17" style="edgeStyle=elbowEdgeStyle;rounded=1;orthogonalLoop=1;jettySize=auto;html=1;startArrow=none;endArrow=none;fontFamily=Helvetica;fontSize=15;" parent="1" source="0ahAJCGWrbVlbpO7Xw9a-28" target="Qi1k_qb2-SxPD-QYgAsk-16" edge="1">
          <mxGeometry relative="1" as="geometry" />
        </mxCell>
        <mxCell id="yVJXbOSST7ZACjrLtC8i-19" style="edgeStyle=elbowEdgeStyle;curved=1;orthogonalLoop=1;jettySize=auto;html=1;startArrow=none;endArrow=none;" edge="1" parent="1" source="0ahAJCGWrbVlbpO7Xw9a-28" target="yVJXbOSST7ZACjrLtC8i-18">
          <mxGeometry relative="1" as="geometry" />
        </mxCell>
        <UserObject label="cesiumWidget" treeRoot="1" id="0ahAJCGWrbVlbpO7Xw9a-28">
          <mxCell style="whiteSpace=wrap;html=1;align=center;treeFolding=1;treeMoving=1;newEdgeStyle={&quot;edgeStyle&quot;:&quot;elbowEdgeStyle&quot;,&quot;startArrow&quot;:&quot;none&quot;,&quot;endArrow&quot;:&quot;none&quot;};fontSize=17;rounded=1;" parent="1" vertex="1">
            <mxGeometry x="-320" y="160" width="120" height="40" as="geometry" />
          </mxCell>
        </UserObject>
        <mxCell id="0ahAJCGWrbVlbpO7Xw9a-26" value="" style="edgeStyle=elbowEdgeStyle;elbow=vertical;startArrow=none;endArrow=none;rounded=1;fontSize=17;" parent="1" source="0ahAJCGWrbVlbpO7Xw9a-28" target="0ahAJCGWrbVlbpO7Xw9a-29" edge="1">
          <mxGeometry relative="1" as="geometry" />
        </mxCell>
        <mxCell id="0ahAJCGWrbVlbpO7Xw9a-27" value="" style="edgeStyle=elbowEdgeStyle;elbow=vertical;startArrow=none;endArrow=none;fontSize=17;strokeColor=default;rounded=1;" parent="1" source="0ahAJCGWrbVlbpO7Xw9a-28" target="0ahAJCGWrbVlbpO7Xw9a-30" edge="1">
          <mxGeometry relative="1" as="geometry" />
        </mxCell>
        <mxCell id="0ahAJCGWrbVlbpO7Xw9a-36" style="edgeStyle=elbowEdgeStyle;rounded=1;orthogonalLoop=1;jettySize=auto;html=1;startArrow=none;endArrow=none;entryX=1;entryY=0.5;entryDx=0;entryDy=0;exitX=0.5;exitY=1;exitDx=0;exitDy=0;" parent="1" source="0ahAJCGWrbVlbpO7Xw9a-29" target="0ahAJCGWrbVlbpO7Xw9a-35" edge="1">
          <mxGeometry relative="1" as="geometry">
            <Array as="points">
              <mxPoint x="-420" y="380" />
            </Array>
          </mxGeometry>
        </mxCell>
        <mxCell id="Qi1k_qb2-SxPD-QYgAsk-5" style="edgeStyle=elbowEdgeStyle;rounded=1;orthogonalLoop=1;jettySize=auto;html=1;startArrow=none;endArrow=none;entryX=0.5;entryY=0;entryDx=0;entryDy=0;" parent="1" target="Qi1k_qb2-SxPD-QYgAsk-4" edge="1">
          <mxGeometry relative="1" as="geometry">
            <mxPoint x="-420" y="360" as="sourcePoint" />
            <Array as="points">
              <mxPoint x="-580" y="380" />
              <mxPoint x="-490" y="380" />
            </Array>
          </mxGeometry>
        </mxCell>
        <mxCell id="0ahAJCGWrbVlbpO7Xw9a-29" value="option" style="whiteSpace=wrap;html=1;align=center;verticalAlign=middle;treeFolding=1;treeMoving=1;newEdgeStyle={&quot;edgeStyle&quot;:&quot;elbowEdgeStyle&quot;,&quot;startArrow&quot;:&quot;none&quot;,&quot;endArrow&quot;:&quot;none&quot;};fontSize=17;rounded=1;" parent="1" vertex="1">
          <mxGeometry x="-480" y="280" width="120" height="40" as="geometry" />
        </mxCell>
        <mxCell id="0ahAJCGWrbVlbpO7Xw9a-41" style="edgeStyle=elbowEdgeStyle;rounded=1;orthogonalLoop=1;jettySize=auto;html=1;startArrow=none;endArrow=none;strokeColor=default;entryX=0.5;entryY=0;entryDx=0;entryDy=0;" parent="1" target="0ahAJCGWrbVlbpO7Xw9a-40" edge="1">
          <mxGeometry relative="1" as="geometry">
            <mxPoint x="-100" y="360" as="sourcePoint" />
            <Array as="points">
              <mxPoint x="-260" y="380" />
              <mxPoint x="-120" y="360" />
            </Array>
          </mxGeometry>
        </mxCell>
        <mxCell id="-KxQMJ-cKBDsEfPZ-LYk-2" style="edgeStyle=elbowEdgeStyle;rounded=1;orthogonalLoop=1;jettySize=auto;html=1;startArrow=none;endArrow=none;strokeColor=default;" parent="1" source="0ahAJCGWrbVlbpO7Xw9a-30" edge="1">
          <mxGeometry relative="1" as="geometry">
            <mxPoint x="-100" y="360" as="targetPoint" />
          </mxGeometry>
        </mxCell>
        <mxCell id="-KxQMJ-cKBDsEfPZ-LYk-4" style="edgeStyle=elbowEdgeStyle;rounded=1;orthogonalLoop=1;jettySize=auto;html=1;startArrow=none;endArrow=none;strokeColor=default;" parent="1" source="0ahAJCGWrbVlbpO7Xw9a-30" target="-KxQMJ-cKBDsEfPZ-LYk-3" edge="1">
          <mxGeometry relative="1" as="geometry" />
        </mxCell>
        <mxCell id="-KxQMJ-cKBDsEfPZ-LYk-6" style="edgeStyle=elbowEdgeStyle;rounded=1;orthogonalLoop=1;jettySize=auto;html=1;startArrow=none;endArrow=none;strokeColor=default;entryX=0.5;entryY=0;entryDx=0;entryDy=0;" parent="1" target="-KxQMJ-cKBDsEfPZ-LYk-5" edge="1">
          <mxGeometry relative="1" as="geometry">
            <mxPoint x="-100" y="360" as="sourcePoint" />
            <Array as="points">
              <mxPoint x="60" y="380" />
            </Array>
          </mxGeometry>
        </mxCell>
        <mxCell id="-KxQMJ-cKBDsEfPZ-LYk-8" style="edgeStyle=elbowEdgeStyle;rounded=1;orthogonalLoop=1;jettySize=auto;html=1;startArrow=none;endArrow=none;strokeColor=default;" parent="1" target="-KxQMJ-cKBDsEfPZ-LYk-7" edge="1">
          <mxGeometry relative="1" as="geometry">
            <mxPoint x="60" y="360" as="sourcePoint" />
            <Array as="points">
              <mxPoint x="220" y="380" />
            </Array>
          </mxGeometry>
        </mxCell>
        <mxCell id="-KxQMJ-cKBDsEfPZ-LYk-11" style="edgeStyle=elbowEdgeStyle;rounded=1;orthogonalLoop=1;jettySize=auto;html=1;startArrow=none;endArrow=none;strokeColor=default;" parent="1" target="-KxQMJ-cKBDsEfPZ-LYk-10" edge="1">
          <mxGeometry relative="1" as="geometry">
            <mxPoint x="220" y="360" as="sourcePoint" />
            <Array as="points">
              <mxPoint x="370" y="360" />
            </Array>
          </mxGeometry>
        </mxCell>
        <mxCell id="Qi1k_qb2-SxPD-QYgAsk-3" style="edgeStyle=elbowEdgeStyle;rounded=1;orthogonalLoop=1;jettySize=auto;html=1;startArrow=none;endArrow=none;entryX=0;entryY=0.5;entryDx=0;entryDy=0;" parent="1" source="0ahAJCGWrbVlbpO7Xw9a-30" target="Qi1k_qb2-SxPD-QYgAsk-1" edge="1">
          <mxGeometry relative="1" as="geometry" />
        </mxCell>
        <mxCell id="p0PnFZSM7e9ZvWcL8xGm-6" style="edgeStyle=elbowEdgeStyle;orthogonalLoop=1;jettySize=auto;html=1;startArrow=none;endArrow=none;fontFamily=Helvetica;fontSize=15;fontColor=#999999;entryX=0.5;entryY=0;entryDx=0;entryDy=0;rounded=1;" parent="1" target="p0PnFZSM7e9ZvWcL8xGm-5" edge="1">
          <mxGeometry relative="1" as="geometry">
            <mxPoint x="370" y="360" as="sourcePoint" />
            <Array as="points">
              <mxPoint x="540" y="370" />
            </Array>
          </mxGeometry>
        </mxCell>
        <mxCell id="yVJXbOSST7ZACjrLtC8i-16" style="edgeStyle=elbowEdgeStyle;orthogonalLoop=1;jettySize=auto;html=1;startArrow=none;endArrow=none;curved=1;entryX=0;entryY=0.5;entryDx=0;entryDy=0;exitX=0.75;exitY=0;exitDx=0;exitDy=0;" edge="1" parent="1" source="0ahAJCGWrbVlbpO7Xw9a-30" target="yVJXbOSST7ZACjrLtC8i-14">
          <mxGeometry relative="1" as="geometry">
            <mxPoint x="620" y="279.9999999999998" as="targetPoint" />
            <Array as="points">
              <mxPoint x="660" y="260" />
              <mxPoint x="350" y="230" />
            </Array>
          </mxGeometry>
        </mxCell>
        <mxCell id="0ahAJCGWrbVlbpO7Xw9a-30" value="scene" style="whiteSpace=wrap;html=1;align=center;verticalAlign=middle;treeFolding=1;treeMoving=1;newEdgeStyle={&quot;edgeStyle&quot;:&quot;elbowEdgeStyle&quot;,&quot;startArrow&quot;:&quot;none&quot;,&quot;endArrow&quot;:&quot;none&quot;};fontSize=17;rounded=1;" parent="1" vertex="1">
          <mxGeometry x="-160" y="280" width="120" height="40" as="geometry" />
        </mxCell>
        <mxCell id="0ahAJCGWrbVlbpO7Xw9a-35" value="clock" style="whiteSpace=wrap;html=1;align=center;verticalAlign=middle;treeFolding=1;treeMoving=1;newEdgeStyle={&quot;edgeStyle&quot;:&quot;elbowEdgeStyle&quot;,&quot;startArrow&quot;:&quot;none&quot;,&quot;endArrow&quot;:&quot;none&quot;};fontSize=17;rounded=1;" parent="1" vertex="1">
          <mxGeometry x="-480" y="400" width="120" height="40" as="geometry" />
        </mxCell>
        <UserObject label="container" treeRoot="1" id="0ahAJCGWrbVlbpO7Xw9a-38">
          <mxCell style="whiteSpace=wrap;html=1;align=center;treeFolding=1;treeMoving=1;newEdgeStyle={&quot;edgeStyle&quot;:&quot;elbowEdgeStyle&quot;,&quot;startArrow&quot;:&quot;none&quot;,&quot;endArrow&quot;:&quot;none&quot;};fontSize=17;rounded=1;" parent="1" vertex="1">
            <mxGeometry x="-320" y="280" width="120" height="40" as="geometry" />
          </mxCell>
        </UserObject>
        <mxCell id="0ahAJCGWrbVlbpO7Xw9a-40" value="globe" style="whiteSpace=wrap;html=1;align=center;verticalAlign=middle;treeFolding=1;treeMoving=1;newEdgeStyle={&quot;edgeStyle&quot;:&quot;elbowEdgeStyle&quot;,&quot;startArrow&quot;:&quot;none&quot;,&quot;endArrow&quot;:&quot;none&quot;};fontSize=17;rounded=1;fillColor=#1ba1e2;fontColor=#ffffff;strokeColor=#006EAF;" parent="1" vertex="1">
          <mxGeometry x="-320" y="400" width="120" height="40" as="geometry" />
        </mxCell>
        <mxCell id="-KxQMJ-cKBDsEfPZ-LYk-3" value="skyBox" style="whiteSpace=wrap;html=1;align=center;verticalAlign=middle;treeFolding=1;treeMoving=1;newEdgeStyle={&quot;edgeStyle&quot;:&quot;elbowEdgeStyle&quot;,&quot;startArrow&quot;:&quot;none&quot;,&quot;endArrow&quot;:&quot;none&quot;};fontSize=17;rounded=1;fillColor=#1ba1e2;fontColor=#ffffff;strokeColor=#006EAF;" parent="1" vertex="1">
          <mxGeometry x="-160" y="400" width="120" height="40" as="geometry" />
        </mxCell>
        <mxCell id="-KxQMJ-cKBDsEfPZ-LYk-5" value="Sun" style="whiteSpace=wrap;html=1;align=center;verticalAlign=middle;treeFolding=1;treeMoving=1;newEdgeStyle={&quot;edgeStyle&quot;:&quot;elbowEdgeStyle&quot;,&quot;startArrow&quot;:&quot;none&quot;,&quot;endArrow&quot;:&quot;none&quot;};fontSize=17;rounded=1;fillColor=#1ba1e2;fontColor=#ffffff;strokeColor=#006EAF;" parent="1" vertex="1">
          <mxGeometry y="400" width="120" height="40" as="geometry" />
        </mxCell>
        <mxCell id="-KxQMJ-cKBDsEfPZ-LYk-7" value="moon" style="whiteSpace=wrap;html=1;align=center;verticalAlign=middle;treeFolding=1;treeMoving=1;newEdgeStyle={&quot;edgeStyle&quot;:&quot;elbowEdgeStyle&quot;,&quot;startArrow&quot;:&quot;none&quot;,&quot;endArrow&quot;:&quot;none&quot;};fontSize=17;rounded=1;fillColor=#1ba1e2;fontColor=#ffffff;strokeColor=#006EAF;" parent="1" vertex="1">
          <mxGeometry x="160" y="400" width="120" height="40" as="geometry" />
        </mxCell>
        <mxCell id="-KxQMJ-cKBDsEfPZ-LYk-10" value="primitives" style="whiteSpace=wrap;html=1;align=center;verticalAlign=middle;treeFolding=1;treeMoving=1;newEdgeStyle={&quot;edgeStyle&quot;:&quot;elbowEdgeStyle&quot;,&quot;startArrow&quot;:&quot;none&quot;,&quot;endArrow&quot;:&quot;none&quot;};fontSize=17;rounded=1;" parent="1" vertex="1">
          <mxGeometry x="320" y="400" width="120" height="40" as="geometry" />
        </mxCell>
        <mxCell id="-KxQMJ-cKBDsEfPZ-LYk-12" value="" style="shape=image;verticalLabelPosition=bottom;labelBackgroundColor=default;verticalAlign=top;aspect=fixed;imageAspect=0;image=data:image/png,iVBORw0KGgoAAAANSUhEUgAAA8sAAAK2CAIAAAD2WJlTAAAgAElEQVR4nOzde1xUdf4/8PdcuA0DmIFyEUYTlFEhELMyxm67G/TVLUnNVqywTS1T87ulCWvbd10grd+at0rbZFuxtTTcVvYL7VbfXYasVALHy2hYOiAXRYuBYZTLzPz++OhpnBlwwDNzZpjX89EfNHM45y2fOZ/zns95fz5HZLFYCAAAAAAAeCIWOgAAAAAAgEEFGTYAAAAAAJ+QYQMAAAAA8AkZNgAAAAAAn5BhAwAAAADwCRk2AAAAAACfkGEDAAAAAPAJGTYAAAAAAJ+QYQMAAAAA8AkZNgAAAAAAn5BhAwAAAADwCRk2AAAAAACfkGEDAAAAAPAJGTYAAAAAAJ+QYQMAAAAA8AkZNgAAAAAAn5BhAwAAAADwCRk2AAAAAACfkGEDAAAAAPAJGTYAAAAAAJ+QYQMAAAAA8AkZNgAAAAAAn5BhAwAAAADwCRk2AAAAAACfkGEDAAAAAPAJGTYAAAAAAJ+QYQMAAAAA8AkZNgAAAAAAn5BhAwAAAADwCRk2AAAAAACfpEIHAACezthIZdMsF6tFQgcCThn9GN3/vtBBAAD4NmTYAHAd2neoo9GSsl0vdCBwfaYO0ZElYfG/IsU0oUMBAPBhyLABoC/GRjq+lSIfuTRkUpfQsYBTwu/t0m71R4YNACAg1GEDQF+075CFzNGzLgkdCDgraqaxrpR0pULHAQDgw5BhA0CvLrfQ8a0U9cgl/5vNQscCzrpZ1RVxf6d2q9BxAAD4MGTYANCrY28Sic3RMzGA7WWiZl7CMDYAgICQYQOAY12tVyqw/YZiANvLDL2rK+LnGMYGABAMMmwAcOzIBhJJMYDtraIewTA2AIBgkGEDgAM9RjaAbfQbggFsrzR0StewBzCMDQAgDGTYAODA4ddI5I8BbO/GhrHry4WOAwDA9yDDBgBb5m46vpWisozSUIvQscDA3XRH17CMzmNbhI4DAMD3IMMGAFvVBSQOMEdhDWzvFz3zUl0pNXwudBwAAD4GGTYA2GIV2FI5BrC93pDJXcMf7DyyXug4AAB8DDJsALjGN2tIEoSHOA4e7BGPzWqh4wAA8CXIsAHgGsfeoshHjBIZBrAHiSGTuiOnddasEzoOAABfggwbAH5S8ypJgs1RWEJkcGHD2Oe/EjoOAACfIbJYMFIFAFfsiKaYxw0j5hpdsfOGxvqGxvre3k0cOz40JMwVx3UGiy0mOjYmOlaoGFzqxG9D/c2BGfuEjgMAwDdIhQ4AADyF5o8kDTG5bg3sko93bX7r9T42UCZOyH1xzeTbprgogD6w2J575oUlz7zo/qO7QdQjl6qfCLxQReFpQocCAOADkGEDwBWHX6cRTxjFAa69rxUiD1UmTrB//cCh/doTR+c9NWPLG3/+2X2ZLo3BB4Wldkc9dLlqTeADfxM6FAAAH4AMGwCIiI5uImmYKWrWZVcfSJk4Ycf2vfavNzTWP7vsiRMnjxWsW40M2xWiZl76Zl7gDxoamix0KAAAgx1mOgIAEVF1IUVmGcV+gk3MiImOZRUaDY31Bw7uFyqMQSz01u6oGZer1ggdBwCAD8AYNgDQ8bfJ7yaT4Gtg9zF0vffvHzQ01H996IsR0XEx0bGPZz9tMy2SVXg/98wLDY31n/1f+dcHv2hr1yvHTngie4H95MWGxvr3irdpTx4lotsn3fV49tO9HffAwf0HDu1nWyrHTrj/3gybEpeSj3c1Np6d8dCj2hNH39u5LTQk7Gf3Zc745aPs3bZ2/d/+/uHZhjrtyaPKsROUiRO4t7hI9n78weRJUxITxxeue/lsY11vMfMiaualb+YGtp6gIYmu2D0AAFyBDBsAqOr3ltinjCKJwGF8+nkZ+yEm5qf8sq1dv2r1Mu6tA7SfiN4r3la4ZoN1Rr7prdeI6P57Mx5/KqutXX9l44P79378wV/eLbFOi0s+3rVq9TLufw8c3F/y8a7JkxxMryxYt/q94m3W4W1667Ulz7z43DMvcC/u/fiDA4f2W8jCTeI8fuIIS6MPHNz/0uql3PIpbGD+veJtW974M5dANzTUb3rrteeeeaHgtdXaE0fZZpMnTXFRhh2a1B39yOWq3wfe/74rdg8AAFegSgTA1514l/xvFv4hjg2N9Zvffp2IbPLLxc8/+ennZYljx295488nNec+Lz+Uu2JNW7t+8fNPspTU2sOz708cO37Hu3tPas5teePPiWPHsy25DbQnjrL0esYvH/28/NDBL74tXLOhrU2/9+8f2Oxq01uvvVe8LUQeWrhmw8Evvj34xbdb3vhziDyUvW6z8ea3Xo+OHvHcMy88PvdprtZl8fNPNjTWswOd1Jz724ef3X9vhvbE0XnzZ9j8+t6PP9CeOPr43Kefe+aFGb981KVl6FEzL333V2r7znVHAAAAjGED+Lyq31tinjSSyE2Ha2ist16zr61drz15tL29jaXLIfLQ3BU/VQqXfLzrwMH90dEjdmzfy8pCYqJjn8heQEQF61YXvLZ6x7vXTJqcPGkKN43yZ/dlhoaEzXtqBrfWNV0d6p7xy0df/cNGtlnWQ3NGRMfNe+qarJcLcsf2vdz498/uy9yxfe/Ds+/f/NbrMx561LpMJUQe+vHuz61fKVi3uq1df/+9GdyBlIkT3tzw3rz5Mw4c2s/Gwq0Pl7tiDft3uVrI+O7oWZerfh9473tuOBoAgI9Chg0AbtXQWM/SXBvR0SNun3RX7so11nnq3o8/IKKsh+bYVF0/kb2gYN3qAwf3c6kzM+Oha6qcuaW1GxqubPbZ/5UT0ZJnX7TZLHHs+BMnj3GvlHy8i4jsq66ViRMmT5py4ND+Tz8vy3poDvc6y+att2RlLXkr/2Dzz3wie8GBQ/sPHNxPz1zzuk3kLmWxWMhiIbd9qQIA8D3IsAF8XdrLopr1suhHLrkn40ocOz5vxZW8U3vy6Keflx04tL+3Z82wIubGxrP2j6qJiY5taKznUmdmRHRcH4fmliixr3L+2X2Z1hl2Q0M9EbUb2hw8Ikf0U2A/BRNzzQ65A7FvCPb/ogOHrlksJUQe6rbnWbYf82vaEzTnlHuOBgDgo5BhA/i6xKfo4Gpx4+6g6NnuKMUODQnjMunJt015InvBS79duvfvH8x7akbhmg3WA8N0NR9lI8oOaU8edcUzIK/kwQf397ZuoH0JuDVuqqXD0XpuGy6rdvgIHhdp3B04eo4ldDQGsAEAXAgZNgBQ2ssizUZZ1COXBFlO5NU/bGxorD9waH/hupfZknY2GxSu2dDb4LTN4DG/Hp/79M/ve9DhWyEhoX38Ilcy/uqajS6JbKDajvg1lQTN1godBwDAYIcMGwBo3CI6uFrSuDsoZo4wK4ps2fDn+x6Y1NauX/Xysr99+Bn3OiuPth72vhFcOm49fnzllTa99f8mjh3PCjkGdlyWfzc01rtifP1GNO4OGvWIZUgiBrABAFwLq/UBABFR2svU/JHM3C1M7hUaEpa7cg0RaU8cta6sYAXT9kvptbXrb7trzMOz77eph+5bTHRs4tjxRGS/3B6bAckZERPHXuTqPTjznppxX8Ykbn1uh5SJE0LkoeSovqXk411jk4c/u+wJ58PmS9thv+a/Bab9Duk1AIDLIcMGACKiCUuos1nStDtQqACyHprDHvuy+a3XubyZrcXx6edlNqlq4bqX29r1+rbW/j6ZhdV5/6X4HetC6oJ1q20y9SeyF0RHj2horC9c97L162z1wIbG+utWTrPlSgrXvWx9IG6H7iy85jTuDlL80jI0yf1HBgDwOagSAYArJr5Mx7bKoh65LA6wCBLAq3/Y+NDM+9oNbS+tXsoWuo6Jjs1dsaZg3epVq5f9Zec7P7s3k4hKPt7V0FgfIg99841+L+n8RPYC7Ymje//+weNPZf3svsyY6NhP/69Me+KozWp9RLR2zaZnlz1R8vGurw9+wRbj+/rQF2ziY+GaDdfN7J/IXlDy8a4TJ489PPv+n92XqRw7oa1dv/fjD9ra9Yljx7tn6Wtr+mq/5r8HZlW5+bAAAD4KGTYAXJH833RotaRxT9CIuUZBAoiJjn1i3oLNb71+4OD+94q3sTT0iewFyrETVq5eoj1xlBsPnjxpSu6KNQMbCX71DxtjYmLf27GNjYuzpzY2NNbbZNiTb5vy8Z7PX/rt0gOH9nNVJdHRI/JW/MHJZy5+vPvzTW+99t6ObZ9+XsaqSkLkoc8988IT2QvctjYfp3FPUGymJXwiSkQAANxBZLEIM1gFAB6oZi0d/5MpdecPkiBP7BnYEDJf0wcPHNwfEhLqTJquPXG0vb0tMXH8wDLjtnb9iRPHnDyWK+i/8at+8qaHv6JhtwtyfAAAn4MMGwCu8Sc/umW5YcQ8YYaxwRW0q0KlnQH/9S8MYAMAuAlmOgLANSb+jpo+kpmMyMYGidZDfuf+EZj2MhoUAMB9kGEDwDUm/pY6vhc37g4SOhDgR+PuoKi7KVIldBwAAL4EGTYA2Jq4mpo/kvUYMOrp9VoP+J8vC0x7+fpbAgAAj5BhA4CtiS9TxxlxE4axvV/j7qBhd1L0fULHAQDgY5BhA4AtsZRSXqKmj2Q9bRjG9mI/fuV//pOASb8TOg4AAN+DDBsAHJi4mox14sY9GMb2Yo17gsIn0YgHhI4DAMD3IMMGAAekMkr+DTXtkXW3opfwSj/s92/5JwawAQCEgWsnADg2cTVdOothbG/VtCdo6K0UN03oOAAAfBIybABwzD+MJiyh5o+Cun9AR+FlfvjCv+VTDGADAAgGF04A6NXEl+lSA4axvU/j7qAhSho5Q+g4AAB8FTJsAOhVYDiNW0RNHwV1XURf4TUuqv0vfB6QhgFsAADh4KoJAH2Z+DJdbsIjHr1J0+6g0Hga/ajQcQAA+DCp0AEAgEeTRdHYp0j3UdCQSd1CxwLXZ+oQXfh3wL07hI4DAMC3iSwWi9AxAIBHM9TRxypLRx2ePuMdht1BD38pdBAAAL4NGTYAAAAAAJ9Qhw0AAAAAwCdk2AAAAAAAfEKGDQAAAADAJ2TYAAAAAAB8QoYNAAAAAMAnZNgAAAAAAHxChg0AAAAAwCdk2AAAAAAAfEKGDQAAAADAJ2TYAAAAAAB8QoYNAAAAAMAnZNgAAAAAAHxChg0AAAAAwCepm493rtXU1WNx80EBAAAAwHmx4e5OEQcZAf58TT+a3H9QAAAAAHBGqAw1DjcKf0EAAAAAAD4hwwYAAAAA4BMybAAAAAAAPiHDBgAAAADgEzJsAAAAAAA+IcMGAAAAAOATMmwAAAAAAD4hwwYAAAAA4BMybAAAAAAAPiHDBgAAAADgEzJsAAAAAAA+IcMGAAAAAOATMmwAAAAAAD4hwwYAAAAA4BMybAAAAAAAPiHDBgAAAADgEzJsAAAAAAA+IcMGAAAAAOATMmwAAAAAAD4hwwYAAAAA4BMybAAAAAAAPkmFDgAAeNBhoGMa8bHDomOHxR0GoaPxMfIQSp5oHjPOkjDWMjTcInQ4ACC8M9+Jjh0WH9OITn8nEjqWgZCKRbIAoYMYqAkTaPJkuvVWSk4WMgyRxeLW68G5VpOupcedRwQY9D4rE29+XdpYLxoxyjwu1SQPEzogH3Opg2qPSk4dFxPR7Hmm36xGFwfgu9r1tOk16ccfSmTBloQJ5tHjzEJH5HOadOKTGvEPF0QT0yy/zRPNmCFMGMiwAbzbfy/w++Lf4l/O677r5z0xI9GVC6b1ouiLf0r/+pZ/aBhteLdrXDIGswF8zif7xC//xm9kgjlrflfyZJPUT+iAfNipY+Ld7/gf+0by+OP03nsCBIAMG8CLZf3Mv6FOVPjnS7G3ILf2CD+0iF5bEVj/nfjrbzuFjgUA3OqfpeLV/+2XMas7e0mX0LHAFaXv++162//dd2n+fHcfGjMdAbzVulekDXWiNe8gvfYgQyMshUWX/Pzp7fWY5QLgQ+pOi/6wym/CJBPSa48y7VfdOb/pfOop+vZbdx8aGTaAVzqwX/zR+5I5i7pGjUV67XGeXd1Z9JbkKzU6WABfsek1abTC/NIfLwsdCNi6/6GelDtMv3nB3ZV7uAAAeKXGetHwaMu0X3ULHQg4cNvdPeHDLUdr0MEC+Ipareie6SiC9VCT7u75979F3e69YOICAOCV6nWiKAVGrz1XZKz5SI1XrtIFAP3VrqemBlHcaPTJHmpCmsnQTgcOuPWgyLABvNL3tSKsHOLJ4kabj1SjgwXwCfV1IiJChu2xwiMtoxIsX3/t1oPiAgDglS5dooBAoYOA3gXKCI/+AfARl40iIgoIwhqdnis0zNLe7tYjIsMGAAAAAOATMmwAAAAAAD4hwwYAAAAA4BMybAAAAAAAPiHDBgAAAADgEzJsAAAAAAA+SYUOAAC8idGgL9+9RVujvtBU12FoVSQkR0QqVBlzlakqoUMDABjM1OU7D6lLjYZWbbVamaqSyYdkzHwWfa/HQoYNAM6qKCsu3rTSaNBzr2ir1VpSV5QVK1NVy/N3yeRhAoYHADAoaavV6/Pm2PS9RFSl3oe+12MhwwYAp2ir1dsKFxGRMiU9Y9bi8EhFRJRCV6vR1qjLP9zMLgB5G8qEDhMAYFCpKCtmfW94ZFxWTq4iPlmRkKyr1VRVlrK+N39ZZt6GMiTZngYZNgA4pXz3FiJKS5+2vGAX96IyVaVMVSlTVPnLMrXVanbvUrgYAQAGFV2tpnjTSiJSZcxdmLuVe12RkKxISE5Ln5a/NENXq9mxcYX1u+AJMNMRAJxSd+oIEU3NnGv/ljJVpUxJJyJtjdrh7xoNeuv7m71padY5GYwzWzp5UAAAj1VSVGA06OPikxwm0IqE5Oyl64hIXb6zt15RW1Pp5LF0tRr7F53sbJ3Zfx+7cj5IL4IxbABwSnhkbEuz7ni1Ok013f7dBblbLzTV2dymNBr0JUUFFWXFXP87NTN7Rs6qiEiF9Waf7HmzoqyYde4yeZgyderCVW9b76qkqKCkqCArJzctfVrx5pWsAJGI0lTTs55cpUhItj9olbqU9eYRkYo01bSsnFzcQgUA72I06KsqS4nokZzc3raZpJp+oblOEZ8ULB/CvdjSrNtbVHhIvY/re2XysEmq6dlL1nI9YW/9asasxdlL1hJR8aaVXEeqSEhe8NLbNp1tS7OueNNL2uoKdpSISEXG7MUPzHzWepvsqXIi2va/DfnLMlknn5WTm5WT21uQUzOzB013jQwbAJyiTJ2qran8ZM+bwSFDVJlzbbLkiEiFzSstzbqCpQ+2NOtkwaHKlPTwSIW2Rl1RVqytVudv3886UKNBvz5vjrZazW2jO6WpUu97vroib0OZTW+uq9WU795CFsvV8fLKKvU+bXXFGx8e57rjlmbdG3mP6Wo1suDQtPRpRKQ7pSnfvaVKXZq78X9tIgQA8GSH1PvYD8rUqb1tI5OHZV2bf+tqNfnLMo0GfXhknDJFJZOH6U5p6k4dqSgrbmnW2cyW0Z06wvWrHQZ93akj5bu3yORhF5rrKsqKlSnp4ZGxulqNrlbzRt5jXNdNVpMvwyPj0tKnXWjWsWKVQ+p99hNythYu4gbIO9pb+wiyfPcW3SnN4JjSgwwbAJySMWvxIfW+ulNH2MiHIiFZmXKlCNvheEPxppdamnVx8Um/3VjO5dN/WJpRd+oIVzJYvnuLtlodF5+0vGAXl/6y/b+R99j6D49Z77CqslSZkr684AO2N12tJn9phtGgrygrzpi1mDuorlZjvZnRoN+xcYW6fOe2wkWDo9cGAB9xobmOiOLik/o1plu8eaXRoLep265S71uf95i2Wq2r1VgPXlSp91l3mOW7txRvWllSVCALDs3bUMbm1bQ06/Jy7mxp1mmrK9g9TKNBv61wkdGgf2Dms/OWrmO7Yj28tlrNhsatQ6pS78tesjZj1mJdrUYWEkZE215dZB8km9OprVa3NOsGwYAI6rABwCkyeVjB9i+zcnJlwaF0dUR5fe6cBQ/GrM97rOrqWAvT0qxjrywv+GkZKZk8bOGqrUSkO6Vh25QUFRDRwlVbrTvTrJxcZUp6S7OOza38KYDgUO4yQESKhGTW13NDI9pqdZV6n81mMnnYwtyt4ZFxbCIm738WAACXCu5Pem006MlikQWHZs2/JsdNU00Pj4wjRzXTC3K3ch3m1Mxs9kPG7Oe4aesRkYorne2pI+yV8t1bWpp1ypR0Lr0mIpk8jM2DL9+9xeYoqoy5bByEPULBaNDLgkNlwaHWv2599AtNdc7/kz0WMmwA6IesnNxtZY3L8//6wMxn4+KT2ItsdIStJ3X1lVIiUqak24xDKBKSiysMBdu/pKt9aFx8kk01CBGx3twmIVYkJNsM5EREKYjowtXZM2yepTJ1qv14jzJFRb1PxAQAGBxk8rC8jeXbyhrty/aCQ4bYbx8Xn2S9Jdd5sj6Twzpbjra6gq521NdsFqmIi08yGvQ2kyZt1pjigrTpq23G170dqkQAoN/SVNO5e4WH1PvUZcXamsqKsmK2XCtdHSaRyR106ByW715orstflmnzFvt1o6G1X1G1NOmIqO7UEfsdsmyebQAA4EWMHW0D+C22YLbRoNed0uhqNb0t99GvAXLOheZ6IlKX72QTMa99q46IdKc01ll1byUf2ppKbXXFhea6lmZdH0F6KWTYADBwbOr31MzsrQUL1eU7y3dvsS6/c2Y0wmjQ91a80d/1m9hgdkuzrrc1oS44vRogAIDgFPFJRMRSzz5KsavU++ISkrksls1KtO4G4+KTlCkqbY267mqZxw1iO3e4uh9z3VzZDUEKDhk2AFwfm32oTEnP21jucIN5S9epy3eym4NcYq2trqDeF5libB5hcyPCIxVEldxSUAAAXo1bQoSbYujQ1sJFRoOeTSU0GvRsjQ5lSroqM5s9AJJtlr80g6/A4uKT6k4d4aZC9ldLs663IBc8GMNXkIJDhg0A18eGUrQ1lb0NpXRcrehg5Xqshs/hzc0FD8YoEpIXrHqbbeNwuEJXqzF2tMmCQ/tVk8cO7TCt11arSSTq7w4BAAQkk4elpU+rqiwt3vRSbxk2N60wTTWNiNjzB8Ij46wnfDM8PtWF1ZYcUu+zz7BZZxseGdvHYiBV6lIWpP2QzWAqFMFMRwC4vjTVdLaECBt4sN9gb1EhESlT0lmfrkhIlgWH6mo1NhUg2mq10aBvadJFRCrYNvZrhhBR8eaV+Usz7F+/TpDp0+hKYd81B2WrbucvzWBrmAAAeIvspWuJqKVZZz2VnKOr1bAVmdLSp7GM9urDX+Js0uuKsmIeo1JlZhMRu29pE0/+sszrDpZzQdq83t8+38MhwwYAp7Bn8+pqNc/PHldSVKCtqWT/qct35i/LZN03ty61TB6WMfs5ImIPlGEvaqvV7CLBNpPJw7Lm5xFRSVHBJ3veZNuwZVbZM2hsVpu6LkVCsipjrs1BuduRsuDQSb3fZgUA8EARkYoFq94mooqy4rynpqjLd7KybG1NZUlRQd5TU2yeqX513aRK6xVUP9nzZvGmlexnXpZUmpqZzdYM4Z7USETaavUbeY+Ro1WkbHA3Ra1HQz7Z8yb7tkDOPard86FKBACcwlYqLd64gj2WnK52hYwsODR76Trr+5hZObkd7a2f7Hkzf1km9/AXsloYlYgyZi1uadJ9sufNHRtX7Ni4IiJSwXWsyws+GMATB+YtXceeM8yWE+F2KAsOzbv64BsAAC/C9b26Ws3WgoU271o/L4aIlKkqVliyPu8xtsIpy8jT0qfJ5GHq8p3skYo3buGqrVsLF+pqNXlPTbHu4ePik5YXfND376appitT0rU1lfnLMm2CJKKqylK2IIm3k7zyyivuPF7HZYveaHbnEQEGpdISyU3DLMpUkzsPqkhIvv/hX4cNHe7nHzhk6DBje2uUYkx03JiMWYsX5m6LHz/ZZvtbb/+5Ij7Jzz/Q3z/Azz8wftzk+b/ZkDF7sc027KmQ/v4BFqLouDFTM7OXF+yKVoyx3iwiSqFMVdlXUdu87ucfeOf9M9lBg+Vh3A6fe+U9m/VcXU1bI9HWSJ5e4tYGAgBBNDWI/rFXkpXT7aL9c31vd9fliMg4Y3tr/PjblCmqeUvWZc3P8/MPtN74zvtnhkfGGQ2trT+cC5aHxY+bPG/JuunZv4mIVAy5efiQm4dzfXVv/aoyVaVMVQVfu9xqRJRCmaLiOtIhNw+//6Ffy+Rh7OgyeVh03JisnNz5L2y0icfh3qZmZsvkYd1dl22CjI4bM+Tm4eGRcbzPmdn/iZ9yjOiee/jda19EFovFfUcjOtdq0rX0uPOIAIPSomy/UeNNWTldQgcCjpUU+ZcU+X39bafQgQCAy33ztfiZeX7FFR1CBwK9eu2/g2ZME//ud+47IuqwAQAAAAD4hAwbAAAAAIBPyLABAAAAAPiEDBsAAAAAgE/IsAEAAAAA+IQMGwAAAACAT8iwAbzS6ARLwxmR0FFAr87UiiekYO1/AJ8QN8pCRHXfIafyUJeNosOHxJNtn9ngWvg0AHiluFGWRh3OX8/VXC9KSnXr0wYAQCjhwyxDhlrqTqFP9lCHv5YQ0e23u/Wg+DQAeKWYWEv99+JvKiVCBwIOnDoubtSJkzCGDeAzFKMsmq/RIXuoIwclabdZhg5160GRYQN4pfR7zXfdY35nbYDQgYADH2z1/8U08/2ZyLABfMWcJ037P5W+94a/0IGArWNVkn+XSv/we3fXVSLDBvBWa7d0GztEq58OEjoQuEZJkb+2WvLciz1CBwIA7nPfA+ZZ80z/KvE7VoWRbA/SelFUuDxw+XLKyHD3oZFhA3grPz/aurP79EnxC3ODdKj/8wCtF0X5ywJLivyeXmIaHoUibADf8sLqHtX95sLlgeW7/YSOBYiIyj70e26GbOhQ+uMfBTi6yGJx62XgXKtJ14KhHQDeGDto7e+kn5VLJt9tGj7CPGqsKVAmdEw+pusyNdaJm+vE3x0XG9pEqy5HSIIAACAASURBVNb0pN+L+hAAH/Xp/4rznvdLnmwaPsIce4s5Kg5ftt3t4jlRU534XL34q39L5syhv/5VmDCQYQMMBn/aJNV9LzrzPelOizsvCx2NjwkIpLhR5pG3UFSM5dHHTeHDcEEF8GnHNaL//ZvkzPci3fei881YVtXdomMoMZHGJNDkyZSTI1gYyLABQHhGQ9u215aNGJk4M2el0LEAAPi6UJk4MQa1LjcEtZsAAAAAAHxChg0AAAAAwCdk2AAAAAAAfEKGDQAAAADAJ2TYAAAAAAB8QoYNAAAAAMAnZNgAAAAAAHxChg0AAAAAwCdk2AAAAAAAfEKGDQAAAADAJ2TYAAAAAAB8QoYNAAAAAMAnZNgAAAAAAHxChg0AAAAAwCdk2AAAAAAAfEKGDQAAAADAJ2TYAAAAAAB8QoYNAAAAAMAnZNgAAAAAAHxChg0AAAAAwCdk2AAAAAAAfEKGDQAAAADAJ5HFYnHn8c61mnQtPe48oqd5f+v/nG88I3QUAAAA0JeE8bf91+xnhY5CGKEycWKMn9BReDep0AH4nPONZ+645+ERo8YKHQi43J6itXdnPiZ0FF7j+5M1QyOihY5iIC4bDSePfH37PQ8HBgUJHQu43H/K/jozZ6XQUYDLnT198uyZE0JHAV4MGbYwRoxMFDoEcIeIyDi0tZNS7/iF0CEM0MXzDSePfD0+NT10yM1CxwKuxVIunNS+4Ozpk0KHAN4NddgAAAAAAHxChg0AAAAAwCdk2AAAAAAAfEKGDQAAAADAJ2TYAAAAAAB8QoYNAAAAAMAnZNgAAAAAAHxChg0AAAAAwCdk2AAAAAAAfEKGDQAAAADAJ2TYAAAAAAB8QoYNAAAAAMAnZNgAAAAAAHwSWSwWdx7vXKtJ19LjziN6iLbWC+UfbSOixrrakLCbQ8KGxt0y7o57HxY6LuDf2TMn9n9WQkSNdbXhw0f4BwQljJuUeucvhI4L+PfdiW+qvijv6e4636QbHjNKIpGm3ZUxOnGi0HEB/6q//Gft8UNdnZcunDsbHZdgsVjumzYvIjJO6LiAf/8pe/9c45l2/Q9dncabh40QiUQPZD0dOiRc6LjcKlQmTozxEzoK7yYVOgBfETokXP/j+Y52PRG16y+26y9OmDhV6KDAJSIi4xrratnPF86dJaJ7/ytb0IjAVazb+lzDaSLKeGSBoBGBq4TeFM61dWNdrZ9fANLrwSoiMq76q3+xnxvram8Kj/K19Bp4gSoR9xkzfrJEcuUrjdTPf7QSA12DU0CgbFzKXWKJhP1vcMgQXIkHq9Ah4UMjorn/HZmQjCvxYDU6caJMHsZ+FkukCeMnCRsPuI711Vki9UuedI+AwYD3QobtPql3/sJk6iEisUQyZvxtAYEyoSMCVxmtnGg2mYhIIpEmpd0tdDjgQpPuyhSLr3ybGjP+NmGDAZcaO2GyROpHRGZTD+q+BrGAQNktY1NEIjERmXq6MRwGA4MM23244S6zyYQzdnAbnTjRzz+AiEymnnGp6UKHAy40WjnRbDYRbkz5gHGp6aaebsKNKR8wfqLKYjETbkzBDUCG7VaT7sokIpk8DHOhBj1WZz80Ihq98+DGhruICDemBr2IyLibwqOICDemBr3RiRP9/AIIN6bgBiDDdis2xDV2wmShAwGXY0PX7DsVDG7jJ6ro2tpNGKxYSS5uTPmChPGTcGMKbgTWEnGrgEDZ6MRU9M6+ICIyLiIyFr2zLxidODEiMhY3pnzBaOXE4zWVuDHlC1ipPW5MwYB52XrYtSdEh74UH6kWH6kRnW8W8RgYOGPiZPOtaZax4833/sLs6mN9pRYfrRFrqkVHa8QdBlcfDWylTjanoK19gDyEJt5uTkoxjx1nuT3d5W39WZn4SI34SLXoaA3uoLqbIG2tqRYdQ1u7XWSMJW2yeVyyJSnFPHb8QNI8rId947wpw963R7L2Femtt5siY82KePOQcLdGDkTUcFrccEb87RFxaCitfKUnIdFVTfD2emnxu5Lb7zYNG2EeNdaEQQT3azgtbrza1itc2dZv/lG6e4c45U5TZKwFbe1+nZeo4Yy44bT4q/+TTr3fnP9Gt4sOdK5JtGmd9FQtjRxjjlKYR411eYYHNri2/uJT6b2/cGFbf6sVbdsobTxLI+LNMSPR1gJo+1HUcEbceFp8sFLy6DzTslX9zruQYd84r8mwZ/7C/2ILLV3TOWGSifeooF+MBtE7r/ofrJA+vcT06yU8P6HzuEaUM9M/Ktb83P90KuLRLwus9aJoy+8DtNUSV7T1kWrxrx/1S55smre0KyoObS0wbY1kxwb/uu/Ef/lb19hxPF8X/rRJ+s4myd0P9sx9rksmx+CIwA5/JXlnbUDrRdH7pV2jx/DcHLnL/D4rE2fldE/7VZd/AL/7hn77d6n0LxsCguWW8i+7+vWLyLBvnHdk2E8+4m8wWgqLLrkiJBiYKrVkfV4g7xfjn9/mf3OkZc07aGsPUlLkX1Lk9/f/dA2P4q2tu7vp7lsDHprXnZXTv34fXKqkyL90p9+/azol/E3Sqfw/8W8W+mXloK09yyuLgtp/FP39P3w2yntbJW/+P+mK1y8nT8ZYmAf5n2eCYmOpcGM/7logw75xXlAd9fZ6qfaI6MV1l4UOBK6RpjI9urDrdy/4tbfxts//t0ZqIUJ67WmycrqUqabNr/E5MXrlYr/IGDNSLk+TldM1ZoL5td/z1tYXzosKV0uVqSa0tad58bXL55pEf9km4WuHZ74XvbtFesd9PUivPc0L6y5/Xi7es5O3tgZneHqG3a6norckjz3TNTQCNxY9Tuaj3SKp5b2t/FyML7aIPtwheXplJy97A349urDrn6Xiz8r46TEq/0/8xb/Fc5cg5fJEMxd07t0lqfiMn7b+4C8SWYhl8cs4rz1OcIjlyf/u2vK69Pw5fpYN+PuHkqhY84JVaGuPw9r6tf+RtrViiQj38fQMu6FeRES33Y0vxJ5IKqXY0Wbd9/ycsSePi+JuMU9MR1t7ovhx5jETzEd4WhOgoV4Ue4sZA12eKX6cOUbB23ndUC8am2wecjOGSDzRJFUPER07zE9ba4+KRo8zo/baM41PMxFRvQ4Ztvt4QYYddpNlWDRmQXmomJHm0zxdiY9rxFEKNLTnih9vOlLNT1vrToui0dYeLDLWwteV+PtaUcxItLWHGnKzZcwE87HDPGQCXZ30zQFx7C1oaw8VFWsOCePtvAZneHqGffqUOBq9swcbNdZcf5qfM7bqa1HMSAx0ea7Uu0x8rWH83bdoa4+mSDDreDqvT58SxYxCH+65JtxmOqbhoa1Z54C29mSxt5jPIsN2I0/PsMF3IOECAACAwQEZNgAAAAAAn5BhAwAAAADwCRk2AAAAAACfkGEDAAAAAPAJGTYAAAAAAJ/4fAwygAfS1lTKgkMVCclCBwIAgjEa9LpTR4hImZIudCwA4BOQYV9H9lQ5+0GVMXdh7tbeNlufO6eqspSIsnJys3JyeQ+jpKigpKjARTsffIwGffGmlbpTGl2thntRmaqampmtyphrs7G2Wp2/LFOZkp63sbzv3bIPQ96GMmWqiveYicho0Lc06Wy+DLQ06/YWFbJ/S0SkQpmqmpGzKiJSYb1N/tIMbU2l/Q6VqaqISIUqY66LAvZSrMXZzwtWvT01M7u3LRc8GGM06Mlljc4aznWfKNBWq9XlOyvKiq1fVCQkZ8xabN8VwODAneDFFYa+txxYl+78/rntcYL7JlSJOIsl0A4ZDfo+3gU301arn589rqKsmKXXypT0uPgk9vrWgoX5yzJZzuRpqtT7np89zuaDpK1WL589vqKsuKXxjDIlvaP9x4qy4rz5U7TVamf2qa1WV5QV5y/LXJ/3mGf+qwVXpe71zK1S78MfzXsZDfpthYvyl2Wy9DouPkmZks4GsHW1mq0FC/OemoL2BZdqadblL8ssKcoXOhAQBsawnWU06KvU+9JU0+3fOqTe5/54wKEq9b71eY8RUVx80rwl67iRA6NBX757S/mHm9nwQ96GMpk8rL87ZzcQwqPi+I2ZKd+9xeZ6bzTo1+fNIaIHZj47b+k69uLWgoXq8p3r8+a88eFxm3+C9S0Oo0Gvq9UYDa0VZTurKkur1Pu2Ei3P/6srIvdqVZWlRoPe4Yehomyn++MBvqzPm8O+iGbl5Koy51rf9qkoKy7euEJXq1mfNydvQ5lwMYLAXNqlE9GFpjpttRqFST4LY9hOSUufRkSHehnu+mTPm0TEBkpBQEaDfmvhIiJSZcwt2P6l9Y05mTwsKyc3b2O5LDhUV6v5aPtABhVYCmtToeE6h9T7jAZ9XHwSl14T0cLcrXHxSUaDvu/vdTJ5mDJVlaaavrxg14JVbxNRlXqfzb1yuHpeO/hLshtTOKm9VPnuLSy9zn93v/05OzUzm5WEaavVVRgf8WFu7tLB12AM2ylpqmlVlaUOS0FamnW6Wk1a+jSjobW3X9fVauq+O0JEcaOTepty19KsO1FT2dKki4hS9LEZERkNem2NWlerUaZOxZdjax9tzzca9OGRcdYpqTVFQnLW/LziTSs/2fNmxuzF9h1r339bVuusiE+yGfJkk6jqTmni4pPt37XZQ90pjUweFh6p4PbPft3Y0UZEF5rrtDWV4ZGxEZGKYHlYWvq0NNU0m50Ey8PYltf9gzBTM7Or1KVVlaV7iwr7qDn2QVfOa3Wp/Z+Fpd1TM7OLN63s7ddZa4ZHxsXFJ/V2kdbVak4cruxob1UkJPexGV3tAYwGfeKt6ZiYe4NKigqIKCsnt7e/pCIhWZUxV12+85C6lLszqavVGDvalCnpLc26byr/ER4Zp0xRWZ/OulrNhXN1F5rr4uKT7fuHlmbdheZ6+3nV9q+znoTtoaqyVFerUSQk2xwL3KC3Lp27ZCempEdEKlgX3duMea5XZxtf8/p3R4jI2NFm3eLgO5BhOyUiUhEXn1R36oh9oQir40xTTVM7GiDU1Wq2vbrIer5dRKTi+fy/Wp+orBjAprJWmarKfm6t/fnMpjxe+Z+iApk8bOGqtx3WrvggdjMhKye3jwtVxqzFJdvzjR1tVerSjFmLrd+qKCveVrjoyv8UFUREKrKXvGr9t81fmkF202KuaZGrh8hestbmuBVlxXuLCluaddwrioTkBS+9rUhI1tVquIl3FWXFFWXFbGQlTTXdYcuyJRHCI/txZzNj1uKqylL2bRDZG2eSavq2wkUOC0W489phhl1RVly8aaV1VY8yVbU8f5dNNvZG3mPWLU5EUzOzs5estfuG1ro+7zHrwVTus3Fj/z4fVVFWzJrG5gS3kTFr8dTMbOtzuXjTCm1NZf67+7nZGnHxSQXbvyQiXa2mePNK615aJg97ZH7eAzOf5V5Rl+0sKSqwnzNt/zrrSawPxIVk33WA69h36faXbDY/3uFsePtzfGpmNrtnyO2cbcZ+dnJmJAwayLCdxUazrAc8GHX5TiKapJpun2FzM465kUg2sT3vqSnWpzRLr+PikzJmLY6IVOhOadgtzjfyHlv/4THrHbJSXVXGXEVCstGgrygrvtBct7VwUX5CMu5zcd2cIv46eUmaarq6fGeVep/1BVh36oi2cJEyJV2VmU1E6rJibU3l+rzH+p5mnr8sU1utlgWHZsx+Tpmi0taoK8qKy3dv0dao89/dz23G5e7cJ4HtP39ZZv72/eFRcVk5uaw1lSnpytSpyhTHR2RrpLDSkX6NRnP/BG2NGnkbRyYPS0ufVlVZeki9z/rvyZWIODytdmxcwb7LPTDz2XGpqpbmuir1Pja/liuONxr0LHlKS582NXOuTD7kkHqfuqy4oqzYYrHYrEq0tXARWSwPzHw2IkrR0qRTlxWzy7z1Rwicd+XbUfq0voeEezsRtr26yGjQK1PSW5rr2KeCzVdj590k1XRFfNLxavUne97csXGFrlbDZVT9lb8skyyW7CVrFfHJ2hp1SVFB+e4tFoult1tw4Grcacs6WJk8rEpdWlFW3FtJXv6yTFZ/SEQtTTq2ak14ZBx7JSsnl70YHhmHm4e+CRm2s9holk2hCFci4rArZ0lV9pK1XCbHhky2FS7aVriIZc9Gg56Ni/x2YznbCVtU7vlZypZmnc0qP0aD3npxsYxZi5+fpWR7iMj09Qz7QtOVqonrZpARUQoiutBcb/0iS4aWF+xi/zs1M5utwFjy54K8VMdzoSrKill6/cZuLdd2GbMW/2Fphq5WU1FWzF2e2TiozSeBrdRW/uGWeUvXZeXkaqsrLjTXKVOnOlyQsaKsWF2+k31UlCnpyws+cPbvclV4ZNyF5josnmDDYaEIVyJiv31Ls46l1/nv7uc+aRmzFrMZqDs2rmDZs7a6gl2nuU+UMlU1STU9f1mmunyn7bqfFkvexnJub2wzXa2mpVmHb84DwAr2BvxNsqXxDNe47HzZVrjIpn9IU02fmpmd99SUirLiga+GabHkF33JmliZqlKmqPKXZfZWwAZusGPjCvblannBB6xLn5qZXb57S2+lYor4JG5LIpLJwz7Z82ZVZSmXYbMxtYirOTf4Gsx0dBYrFGErinAvcreS7bcv372lpVnHRqatX5+amR0Xn9TSrGPTzjquVm+3NP10p0kmD8vbWG4/emozcimThylTp1J/SnIHMW2NmohkwaHX3ZJ1iDa374koe+la+//VVqut7xha21tUSETZS9dZf7+SycMeycnl3mV7YNXhNp+ErJw8ZYqzFbfqsmLuDvWF5voBrA4Z0Z+qEt8xSTWdrq4owr3Yx3ldvHElET0w81mbhmPjjurynWw/HQY9EYlEIptKkrwNZfYj06rMbOu9KVNV7GPMfWmEfmFTGuy1NOtYTZfNfzabWTeHTB6mq9WwU8+mf1AkJLMSkQGvxZYx+znrTFqZqmJ1umosYiMEo0HP7khn5eRZd+kZsxb3VpKXveSazp91Jr1dL8AHIcPuB5bdWq8ooi7fKQsOneSoWJZdWR1WLLAaAJYWR0Qq2NmbvyyTKwklIkVCsv24iP2BcMfflkh03U3YX9gmF1deO0mFiCKuTkbUnXLcY7Ic3b6ZWB0Rl8GzdM1+QFSZqsrbWO7k3cO8jeXFFYZt/9uQvWRtR/uPWwsW2mcGMACsUISsVhRpadZVVZampU9zOI7IxkfH2TW6TB7GFh65sgp7qor9nDd/SvGmldzzgJSpKvtzFuc1v3r7mn2hqc6ZDNumcS+w09yufyAuozp1ZGBxsg+eNTZioq2uGNgO4UZwmbF9l95bL21znuK0BRuoEukHm0IRXa1GV6tRZcx1WCLCekl1+U72tdgedz4vz9+1Pm/OheY6NsuNiBQJyWx2BaaWO499bzEa9L0tb8xhtwtsekOZfEhv2zu8RfBT880e39svsiKfPhaZ6S+ZPIwNhBdvWlm+e0vGrMXOf0IGnAcMejaFIn0MYNPVxQfYmusOtTTrlKSKiFQsWPV28cYVLc268t1byndvIaI01fRJqml4lKB7WN8VZNiEB+sNHHbONl0BO3Ec9g9sHWVn+hyH7BMyBVaHFA7rqB0u9+Fk4+J6DTaQYfeDzYoiLBue1MuVmGET1xy+xd14UiQkv/Hh8Sr1vkPq0ir1PmNHm65Ws6N2xUfb8/M2lOFrsZO4pwboajV9l0WyFZTCna50dNhvcnf/+yiwc9GDDDJmLWbzHa/7L+W0NOtYwL3NofRlNiuKcHOX+/gVVcZcVs1vjxvpnJqZPUk1/ZB6H1sqkYiq1Puq1PvKd28Z2AOPwElx8cnamsoTV+8bcCIiFdZnK6uRvZEDBV9Nu9Gag4bDEiNMX4GBQYbdPxmzFm8rXMRWFPmm8h+y4NDeVspjvXxcfLKTUxyuLs22VVerqaosLf9wM3sMoe2kKOgF9/2nj7mJZFVXbfPVqI+RZselPldT2+sOJLNPguNgair7WCFVW1Opra6weRzdwLDKTllw6ACnZA1q1iuKKFNVfcxdJiL2GZukmubMEpkyedjUzGw2NM6eYK8u36mr1dgsXQL8ypi9+JM9b9rPFB8YNhTisH+4wYpb+5msuNEkIHabAlXUwCPUYfcPNy+KzfTv4yobHDKEiE4cdpBaseI/NmNSW60uKSrYsXEF964iITkrJzd76Tq6WgIITmJTDLXVapvFxa0Vb15JRHHxSTZtZ39ta2nWscy4t6FoVu5pv5BTS7NuW+GikqICNvLBPglsIuY1R6zV5C/NWJAZ3VuoJdv/UFJUUGX3JFGuwtvJMXJWqEBEKmR1vWA1IVXq0r5LROjq436OO/qAsUZnV2i2PqP1rGhlqmph7lZWeoupyS7FzaBga4Dc+N6ISHfqiP2u2El93Qd/2terXPl1u08R2yGebyAIboaxfbtg7ikMDDLs/mHDXUaDfturi6jPEpGMWYvZA7pZcsPR1WpYhs2+McvkYSVFBdwSBBxcgwcgTTWdZTDr8+awJdWstTTr8p6awhKghats7wywOwbWrxRveomIepvxRkQZs58jor1FhTZtV7zpJbaEKhsHZZ8E+7yfRdjH1ZS9xWXqNoH1/YBAjrZaXbD0QaNBLwsOfWR+3nW3901TM7NlwaFVlaV9zF1msnLyiOiTPW/ajHWV795SUVZc/uFmVj3Clqsvt/sQXjhXRygqcL0FuVtlwaEtzbq8+VMcft9Wl+9cnzfHmV0pU1VsFSmbOZFcj8HdjmAlWNqaSusTlt2TdLhnbrkhhusi+viCBy7FuvTizdc8TKqkqMB+4SkAZ6BKpN/YvChdrSY8Mq6P9EgmD2MP6C7etLLu1BE2fHihWceGq9PSp7Hbl+xZynWnjuTNn5I1P5cVB2urK1hv3vczycDewtytWwsWVlWW7ti4oqKsWJmiUiQktzTpdKeOsCWKZcGh2UvX2Ve3y4JDizetvNBcx9q0fPcWNgBps0SXtYxZiyvKitlVnGs77hfnLbny2AiZPCxj9nMlRQXr8+ZkzFrM6vLZw0dkwaFZ868UEbFiEnbNVsQnpamms/2zz0b20rUy+RCjoZU9jUgWHMotzctRl+20GSnX1Wq4hVPyri64Dg6x5xD1MXeZYUuqsacFca3JnbDc0o1pqmkl2/PZM6dYUk5E5bu36Go1suBQlIi4WkSkIm9j+fq8OexhMRGRClXmlQmmF5rrDqn3ceeFM2V485asy1+WWb57S0tzHeuTWU/OljznemlFQrIsONTY0Za/LDMrJ1cmH1J3SvPR9nyyWBzuln3nZ1tqqyvYuZ+Vk4vFsPnCPSvXhipjrsNzMGPW4kPqfbpazfOzx7Enzmhr1Ky/NXa09TEbvm/amsriTSu5Z9OA70CG3W9sXhQ5WmvJBut5S7bnc4uEMKqMudZP7frtxvL1uY9qayq3FizkXmSJIG4X9pdMHra8YFdJUUH5h5vZYi/W7ypT0rOXOEiviShj9nMtTT8t+0BE4ZFxy/N39XG1k8nDCrZ/yRJ6+7azLgBlD3Iv2Z5fUlRAV0fCbPY/NTNbXVbMhsqUKems6bnPxvrcn8bb4uKTFq7aah9YS7POfqyFTRXImo/L9nVMUk27OsfxOuf18oIPPtqe/8meN61bkz3Xk7tscxmetlqdX53B/S5rdHzVcQNFQnLB9i93bFxRpd7HVsK2fpe1l5Or8bCFzLcWLmRzVbnX09KnWSfoMnlY9tJ1xRtX6Go13AnLkjmHqZ4qY666fKf1qf3AzGeRhPGot3LB3iZ8y+Rhv91Yzrp07kKQvWQt65YHsOoAuwFSd+oI9/Wpv3sAryay9PL12kXOtZp0LT3Ob/+nTdLKSsrbcNl1IfWNnaKKhGTrjpgNDTp8MTwqziaVaWnW1dVquDLf3iauWd9MDI+MU6aqrDdradZdaKpzuHOHr7uNtkaSvzTw6287b3xXi7L9Ro03ZeV03fiumCr1Pu7PLpOHpal6W+FYr6vVsL+htlrNhoEV8UnK1Kk2V9/sqXIisn8SkK5Wo61Rs1Gx8Mi4SarpDi/b1p8EhV0hONugSl1qNOht3rX+bChTVPaTt7ixahsyeRiPa9Hw2NYL5/rdMoHPtu4X1uJkt/DtlUdmOnrR5mQntljnKQ2r5mIzGh02ekVZMVfxZf+hctiT9PG625QU+X9/VLJ1Z/eN7+r2MQF5Gy8rU0w3vquBMRr02uoK64kWDk8iut6fnX1suNtEvfXkrECIrUvD7qGxX7Q+GbmeJDwqjqvx5WVO8wCUFPmfOS55a8eNtvU3X4ufmecnbFsz3AneG+6K2dvZTdf2BqywMysnl6XIvXUg5KgPMRr0h9T7LjTX9dFLuE3BssC70unXS5zKwUJl4sQYP1eHNLghw4Yb4skZNu/YddH6cdk+ZdBk2HBdgynD9kC9fVcXxODLsAeseNPKiCiFfZ0Ym8CzYNXb3l7fhQzbzVAlAuAUbpDYN9NrAIDBTVd7uHz3FovFYj0Diqs27HuNfAB7yLABrqOlWacu28nuMnPPCQIAgMFElZnNZiXWnTqiSEjuaG9lz1qmq3NphA4QvAwybIDrUJftZNOkZMGh9sv8AQDAIDA1M5stwlhRVkxXn1oWHhmXMWsx1vWCAUCGDXAdqsy5ivgkIopLSMaKHABwg4orDEKHAI6xZFpbrTYaWtnyfJ5QKw9eChk2wHVERCqQWAMA+Ahk1cALT3+mY2CQpeuySOgooFeXjRQQyM+uQkKpE2vGeDCDXhQs52dXQUFoa4/G43kdGESdl/jZFbhCRxsFB/OwH3mohQht7dEuG0UBgW5dPs7HeXqGPXK05expTw/Sl50+KYkbZeZlV2m3mxvPoK091+GvJBNS+Gnr0WMsaOs+GC6bG3/safyxx9jJzx+8v+q/FytG8nMlHhVvaUBbe7Dj30jG38rDx2yM0iIPIbS1J2vQiUcokGG7j6dXiUTHWjovU9134rjRwlxpGMNl8/m2ntYOM4loaLBkWJhE5u8R/cilLss5kIAVawAAIABJREFUfc+PHSaLhYYEi4eFSuWBbg2suV406hZ+djV2nOX9Igk/+wIX+O64OGMaP71zrMLyz38I3NYtbaZm/ZUU9qZgSeQQaWiQ8Ce1sdNcd7Fbb7zS3dVfpKFySdzNfgF+br2V11QnfiCTn1WNR402N2CUxFM1nBHXnxaPv5Wftp442Vz/PdraQ52pFXdeplhk2G7k6SdDTKxleLTl071CLnt+9mL3sbOdLW2mbpOlu8dyTt9zpK6z8cd+PDfHRZpaezR1l8/pe7p6LN0mS0ub6djZzvqLPDwkwkktTaLDX0sUt/Bzxo4dZzabqPR9LHHviQ7+R1p/WszXGHZ0rOV8k+hfAp3XJrPlSH3n9+e7uBHiHztM2obOsz+479xxqMdsOdHYxaXXzA8G08kmHp7y47yD/5FeOCdSjOLnvI6JpS8+lR7+Cl+ePdEX/5JGjbCMT+bnvB47znLwP9Lvjnt6XuGbDvxbGjvSggzbnTz9TAgIoPnPmj7/u/Tw18J00HqjucFRMl1/sbtDoBu4jLHTXHfBQULQ+GOPzRXadd7fEjD1PrOTD4i6LlkwPfq4adfb/qdPevrH0ge9uSYg5xnTHSp+PlqTp5gf+ZWpeJM/L3vrr7M/OK6+aPihp+2SkCd104893SYH179LXZbmVvd9pX9rTcDSl3om38XPn+LXS3rGJZnfWRvAy96AR/Xfi/++w2/Jiz18za/49ZKeiOGWP69HW3sc1tYvvtzD1/wKcIYXpDIPzzb9V5bptRcDm+oEiPacvtcL23m9kM+GPdfW69H7iJlH2woDDlZIVrzC57HmPW0aPday+umgC82Y3upBVj8d1N1Fi5bz2dYrXumJjLa88kxQl1vHZ8lk7itbbRB0GLuPO2MOv+fzzmgQ5c0PGjvOPHc+n53b/9va03pRtOY5XNs9yOmT4lVPBt11j/n+TD6/Vb70+57TJ8U7Nwvz5Rkc0tZIVj0Z9Oxvem5PF3IEwQd5QYZNRC+/2vPEQtOL2UFuLiGwWOjHjl6vNC3tQhaKXGjr9eg/dpjMrrwRdPhryQu/ktXslxbt6ZLxMQnd2vv7uqbcY35+tkxd5umTBHzBN5WSZ6bLLjaLivZ08b7zkk+7hkXQ/J8Hf/mZ+9q6o7Ovc0PAMezO7r4C6zFZTC4O7Z8f+S14UOYnEf3pQ56/ZoQNsbxf2tXaIl4+W6atQbmI8Erf91v9dFD8WMsft/Hc1rfdaS7Y0F32od/vnw369gjaWnh/2eCfvzTwwYdNTywUckzQN4ksFrcW5ZxrNelaBpiYnjgq2rBOeuqEKDrOEjPSHHazyyP3k5uGpfb1aIDmAyGmTgG+pUj8LZG3t/WxwflqebeB/96tSSduOCOq+148e57pN6td+AXjszLx5tel3d0UGWuOvcUcKHPdocCxxjOiRp3YPW29cZ20p4eiFeYRt5gDg1x3KCKigLCe8OSOPjZoUAvzbGRJgDlycnsfGzRWhrmit+66TI068dnTYrOJ5jxhmve0Cy/Df9km2fK6NEZhjoqzxMVjOM3d3NnWf9okfWeTJEZhjoy1KBLQ1u7W1kpNOsnZ06KYWHpyYc/dP+93E4TKxIkxmBZ1Q7wpw2aOHRYf04iOHRafP8dXUL0SSWjKr3/o7V2Lifb/aajLg+jFnU/9KJb22nZfvnuTuYf/Qou0yZZxyeax4yw3R7j8Y9NhoGMa8bHDoqOHxUYvfAKayWQ613A69KYIeYgwGdsNSrtdgLY+dljc0Vf2y487cn6U+Dv+R/1wxl/7CU9Fqf03ZcEPol7OWn2j9Oi+UFccNCSEJt5uHjvOMnacmfdbUvbOnxOxhj6m8cpKMP0PLe36iyNGJQodyEAI1taHvbKtvVrUCEvKJMvYceax4wbYgSPDvnHel2G72X+0l+ovOg44frjfHQmCVRZ+fepybbPjG3wjhkrvGefikUC4no721ndeX37Pg3NTbv+Z0LHANTR1nZo6x0UvP0+SDQ8T7Nb2sbNd1Wccl6XfmRA4ejiudsL74tM9B9X/eP5/ioQOBMC1kGHfOO+owxbQmMheP2EJUUJ++BI8NTAAD5ccF3DLMNtzxE8qujMhUMD0mojGj/APkznok4eFSpBeAwB4F0wmu46om6TjR/gfO2s74pWiCLhZLuTFeKhckqIIqNHZjniNi/GPuQnNCtCXKWMCRw/3++5cd/g3aiJqmzw1MdrPzU9rcugXybLqM52nrG5PJUb7TxyF5c8AALwMUrHrSx0ZMGKotLa5++wPPWIRjbhZOibKf2iw8BfjCbH+MUOlJ5u66i/2WCwUM1SaEOk3LBTTtwGub3iYZHiYZNzLBa33Zjbe8nOhw7kiQCq6Iz4wRRHwVd2HIhLdqZjlL0UNKwCA90GG7ZSIUElEqCTxyQcNSWlnf7NG6HB+clOw+I74wGD53oa2w3eNeUXocAC8jNjYYQ7wuEkLgX6iTvPJ4fJEpNcAAF5K+IFYL9ITEibp6Gs5LaFIxQE9Zvc+twNgUBBf6nD5AoEDIiKxxYI1zgAAvBUy7H4whYRKDMiwAQYPibHDHOiJzxoUicQWcutCTwAAwCNk2P1gCgnz1Aw7EBk2wACIOwweWCVCRCISYQwbAMB7IcPuB1NImKSjrycpCkUqwRg2QL+JOy9LjAYPrRIRiS2EDBsAwFshw+4HDx7DRoYN0G9iYwcRmQM8skqExG5+HBgAAPAIGXY/9Hhwhm0yd5nMjh9TBwAOiS91EJGnjmGLMIYNAOC9kGH3g0ke4rFriRARhrEB+kViNBKRxTMzbIxhAwB4M2TY/WAODhF76hg2EfVgDBugP66MYXtmlQjqsAEAvBky7H4wyUMkRoO487LQgdjCGDbAAEiMHlwlgrVEAAC8GTLsfjAFhxKRB5ZiI8MGGICrY9gemWFjPWwAAG+GDLsfTPIQIpIYPG7BPqk4kIhMyLAB+uPqTEePrBIhMWEMGwDAayHD7geWYYs9b7KjSCQWicQYwwboFzbT0UOrRLCWCACAN0OG3Q+mYDaG7XEZNuGxjgD9JzYaSCSySP2EDsQBrCUCAODVkGH3h0hkDpJ55oJ9fnjoDEA/SToMnrmQCBER1hIBAPBmyLD7xxQS5oF12HTlsY5YrQ+gH8Se+sh0urKWCMawAQC8FTLs/jHJQz21SgRj2AD9I+nw4AwbY9gAAN5MKnQAXsaDH+voHXXYP7Q0Gjs88SYA7y5f6iCi1h/Onz1zQuhY3EcikUbFxgsdhbPERoNnLtVHnroedtuPLW36i0JHIaT21otENFhPapFIFKMYK3QUAIMEMuz+6RkyVNr6g9BROBDoF3q5Ry90FNfR0931l815QkfhTqKar/5V89W/hA7DrR6a+/yoMbcKHYVTJMYOz1yqjzx1PewP/pTfYfD0fsYN9hStFToEV7n3wexbb79f6CgABgNk2P3TOWJkQP0ZoaNwQO4/rL2zWegorsNsNhPRrPkvYZhksNr0+6dNph6ho3CWR1eJkNgDx7BNpp4HZvxamXKX0IGAS7y3cZUXnb8AHg512P3TOWJkwNnTQkfhgDxgmKHrvNBRAHgTSVurxWMzbJHIA8ewAQDASciw+6dzxMiAs544hh3iH9HeiQwboB8CGusujxgpdBSO4ZmOAABeDRl2/3SOGCn98aIHLici9x/WY+70/FJsAA8h6unxO9/UGTtK6EAcExGe6QgA4MWQYfdP5wgFEXlgoYg8YBgRYRgbwEn+jXVE1OmxY9geOdMRAACchAy7f3qG3GySh3jgZEepOCBQGopSbAAnBTTWE5HHjmGTR850BAAAJyHD7jePnuyIMWwA53j8GDZmOgIAeDFk2P3msQv2hfgPa8cYNoBzAhrrzIFB3RGRQgfimEQkNZu7hY4CAAAGCBl2v3nsciIYwwZwnn9jvccOYBORROxnsiDDBgDwVsiw+81zq0T8IzCGDeCkgMY6Dy7CJrHI34QxbAAAr4UMu988tkpE7o8xbABnYQwbAABcBxl2v3WOGCnuvOzX4nGPKGcL9iHJBnCGv2ePYUtEfhjDBgDwXsiw+62LLYld73GFIiH+w4gIhSIA1+V38by4q7MzFmPYAADgEsiw+80kk/cMDffAyY4ikTjY/2aMYQNc19Wl+jCGDQAALiEVOgCv5Mml2J45hv3diW/2/XUT+3n39leJ6I57Hrrj3ocFDQp409Jct/Ot37GfS3dtJqJxKXf9YsavBQ2qL1cfN4MxbKdYt+8ne//0yd4/eXj7Qr+0tV7Yvv5F9nPFJ7sqPtk1OjF1+mNLhY0KwNthDHsgPHc5EU9dsG904kQ//wDrV8alpgsVDPAuIjIuOCTM+pXUO38hVDDO8G+s6xkaYZLJhQ6kVxKRn8VislhMQgdCRBQRGXdTeJT1Kzh/B5PQIeFRsfHWr4xOnChUMACDBjLsgegcMTLQ86pEiCjEf1hbZ6PQUTiWMG6SRHLlnsnQiOjQIeHCxgP8Skq7h2vf4JAhEZFxwsbTt4DG+ssePIBNRBKxHxF5zjB28qR7pFI/9rNMHjZiZKKw8QC/ktLuFksk7Gc/vwB8gwK4cciwB8KQekfI1xVkMQsdiK3w4PiLxtOec1W2lnrnL0ymHiISiyWT7soUOhzg2bjUdNa+Eok0Ke1uocO5Dv/GOk8uwiYiscifiDynFHu0cmJPTzcRiSWSsRMmCx0O8Gy0cqLZZCIisViSMH6S0OEADAbIsAei7fapRBR6oFLoQP4/e2cf0FS9//Hvnsc2tgEbjKcNEMShIAhmKSMtLTDtwdIyqa7VVcvUvPemKfUrK6CyMkVNvZX3XrFuWdRNE7TSYqSVIAjqVFAYj4PxNBhjY0+/P7665tgm7Ols8H39pWfnfM+HfXa29/mc9/fztYRDiwUAdA5cxToQK3B5fLo/GwBgMOgnCNEjyLEGk80J5IYBAPR6nfcXwMitTd5swgbeV8NmsjlRcUkAAINe7+UWIIQDUKi0hORZODzeYNB7//WLQPgESGE7gp7BHEhM8/+jFOtALKEQGUxKaOdALdaBWAeWNmPikylUGtaxIFwPfDQRGjnB+y1AFK+vYRNwJOBNNWwAwMTJ0wEAgZxQ788vwgEmCKcZDQY6sgAhEC4CKWwH6btjNtP7FDYAgEOfIPdWhQ1LI5OnibAOBOEW4KOJxNTZWAdyC/CDKmJPF6phj5YJwmlEEjkxzdvzi3AMOB99IrIAIRAuAnXrc5C+GXeG7nsPr1EbKFTPn/3yBdyAEmf1JTV+ohz/v7O/e+e9UzCRer9CkXb2d6wDcYgpyYabG6K4Czv59W4YROr9/QO3eevH7zoBrc1pAJztium7OU6P5bdJipPLbpFfA6AAErhQrfMzes+bySD5PTikn+3l+bWFV+XXO6Exl+DJ01F+EQiXgDMajZ48X3uvXirXefKMboKg7EudFnzp38V9d8zx2Ek/LiDWVOFqKvEDSpv7hMReefitDYXr9vS18zwW2Phh2m0G4RTj/Uv0UTGuv3BGkl+E8ywEh78D9+OAlQy6Nb9HvyWUncRXV45IfuGJulWFjxT939uyK+iRvctIuc2Q4B35RbgDmN97FugnTfGosBmTMGn4SeEkrKPwbZDCdhzh43f33TGnZc0rHjjXtTpc/qvEq1dwSbfpQ/nG6Hi9HSdzL/cpWt9zZM3tHghsXNFSj2+6hr96Ed/WhH9mte6plS7rVXytDvf2q8S6keUX4SRzj7wee/nEnr9buryu5/cCvq3ZxfnVaMCHecSizwnT0vVhfIMg1sDm3PqLtyd4qX/vK8Shya4KY5zjvutXowEf5hOLPiOkifS8yJHmF+Fa2hpxrVJ8mxR/7g/Cg4/qN705RpQGViCF7TzIJeI4fbfPZv5R2uL+Ex0qJLz3BjFVpH/rYzU39NZf3Oc7oxjhtVHM6e4PbXwhTNYDAIY0YF8+Zff7RMl5/NsFLrDJjja/CCeZ9J8/FGlpMJvmWOS3pgr/3kcuyO/VK7jHF5Djk/Rv/nMwOn4ULT5/ayNFTNAEULxi0ZkxgCnj+993fX7ZgcZXd6rjk1CyMEOYfP0fh/5J/vYA6dsvCL9f0WAaEWK845N2Ky8BdsUm9CvcehZ5O+69N4h33a9bnztS+UUnRSuH6twa1XiGTAEvvK7ZsFV98hjeecMizO+seaPIL8JJAi+d7Uywef8J87tpm1r8E/7Hoy74hlz9JGnWPN2rO9WjktcAADyOZPSmmY5jhuV/1xSWDrgwv8Fhxp3fqpC89hIW/3WosHQAAPDFfwhYx4IY1yCF7TjKlBlGPMH/7Gm3nuX9N4nxSYan/zGKe3EGOaZfe9VgRLfvbiRphv6+pdod7xBVA06N8/6bRC7P+NyrKFkegtVwiaxUdAlT7e82OVWfvWYo50XSxWqnPLWvv0QkkoFj+cXjSAaksN3G6tc0LsmvZgj8365BV0WFcBWrX9N88BbxXAUSOQjMQB8+x9EzmH13zGac/c19p2hpxJ0qxT+7YXQ/z/6kCUajTqmtd1NUCMi9j2gb6nEnShwvk7Q04k4exy97YciFUSHsw7l4RsMK6o+YcMs9Mxdrk2cYiv/neH67OnHF/yM4nF8cQArbjdxxt27qbXrn8/vsxiF2EHr65HXA/B79BokcBGagD59TKKfd4X/2lPvGr72MCxcYQvmje7hMJfKohGDlEFLY7iWQa4yO11+scbwGVnsZR6GCxNvQjBzPESQp7xKOdFHooFB9k9Tx/LY14wAAExIcNA+gGra74YQZnM9v3GRkDvFSOGGGCzVI5CAwA334nEKZPMP/91JSV4ebxr90Hh8SOTp5DaGTowdQDdv9xE42OPOU+dJ5/MREPRYd1ccvgZcr7ZiwLQjjG5saHM9vawtgBxkDHG0rgceRjAApbDcSxjc2OpffACfyi3A3YXxjrQTnpJEPgXAYpLCdQpkyw+BHc59RpKoCFxrpyNc3gxSl1F5zeTwICxKn6yXnHb+IzlXg4qY4cgeFcAy8diigtrprUsoI9+fHGpobHVdgjdfwo30AZQ6qYbsbfqyhBbv8ItwNP9YAALjkxFc0AuEM6JPnFHoGsz9tFsPNkx0dgE6KHtS1DepkWAeCQHgRnItn8HpdT2wS1oGMCBxS2AgEAuGzIIXtLMrkGf6Vbpzs6BgMUjQeRxxAZWwEwowgSXlfZNwgJxTrQEYEEeenN6ImFQgEAuGTIIXtLMrkGYyzp6kNtVgHchNEPINOiu5HXbERCDMCr5zrGrEJG3MIOD+9ASlsBAKB8EmQwnYWhWieOnoi++RRrAOxhEWZ0qupwToKBMKLCKit7p6YfOv9vAMCHtWwEQgEwldBCtsF9M7OYp8sxjoKS9iUxEFdq0JzEetAEAivwK+zjSW91B3nGyZsgGrYCAQC4csghe0CemdnMX/7mSY5h3UgN8Ekx9NIkaiMjUBAgiQVRjyhx6cUtg7VsBEIBMI3IWIdwFig747ZqvhE9smjKuFUrGO5CTYlsVdTLQCPOjyCpKoM/kMQm0hjsGztJq2tVg303XI3h4Hjc3iRXJ7A5YOPZ0z5tf/emvLrphR4Jr+Btec6E6Zr6Uz3ncK1EPBUJ10iI8yvXCbtlDXdcjeHgeOj63ckSGurO9sbVUoFhyew9XWqUiqkdTUAAGFy+i1Hw/CbU1pbzQ0VWP0TTB85E+jjgRh7IIXtGnpnZ7JPFrc+vwnrQG6CTUlqVR7tH6rzJ8c6NkLu2kz4j3sfef6Jte/a3G1dlkqpAADkbC8WpogcO5cdCgs2SKrKFi3fvGj5ZpcPPp4x5VeUuWzl5r22dvswZ6lcJgUAuCkFnslvQF21DxWwgStcIqb8pqYvWJ/3X1u7fZizVFpbDdyWX3HxwaL9eej6tYNKqdibv6pCfNh8I43BShMtfGj5JgvpKa2tzl2XBQAoLFXaH9bdV5ZcJu1sa7T4zpfWVhfu3CipFMP/cnmCzCWr733kefN94EfC6phcniBVtGDR8s3uKNYgEJ4EuURcg2J2FuPcH97WGJtNSaQSQxSuMIqcLfve1ksV4sNQXiN8l4qyI7ZektZWQ3nt6wTUVvfEeddTJvsQ8H56o9olQ1WUHbF1kcplUiivEVhRIT784pIEKK/5sYmizGWizGX82ESVUlFaXJjz9EwL5e0lVIgP5zw9U1IlNt8ora3OeWampFLMj02895HnU9MXyGXSAzs27MtfNcJh5TJpyaFdLy5JQB9LhK+DatiuoT915kBiKvvkUeW0O7CO5SbYlMReTU2E/0PODMLh8eHPsMBaCbBcfAQAQKMzoZEA4YuolIoK8eFU0cLhL5UWF3o+HpfDqpfQ25t8aJojgP2wXTHTEV6b5eLDGVnZw1+tENu8uUJ4AEmleFvOUgCAMDl9xea95uVquUy6bfNjjXU123KWOvZ4MHvNuyqlghPKd2XEN5DW1Qy/bYPFdfNnnlBzlxYXijKXWfwJwuT0nB0l5ltUSkW5+HDhjg0qpSJ3XVbup6eQdQThu6AatsvonZ0V4JUdRfqGLqu0Tbfe1Tap6QuAbaVVUXaEw+NbFd8InwDmt9yG0jpb9j2Nzryl49PLCayrVrM5PucSMQK9wTjk5DjwxsmWkhaXHAQA8GMTnTwLwjFgcTc1fUHOjhILNcnlCfI+PQ0vvX35qxx4VCiISxKmiDwmUuHzTA6Pb24pFMQliTKXAQDKR1CJpzFYGVnZuftP0+hMlVJRWPCyG8NFINwMqmG7jN7ZWeEFb7F+/Ukx626sY/kTNiWJTGD3ampopEiHB8nIyj721e6zZd8Pt2LDr1RR5rLGOutP9OQy6aWqMmltNY3BEsQlCZNFw911KqWiouyIvE3aKWuEYh1qPqtUlB2R1larlApuqGBa+n2owuE8qaIFFWVHrBpFoEVElLms04ZRxDy/3FDBpOT04Rkx5VdaVyOITeSGClLTF9gyWUqqyiSVpZ2yRkFckgvzGySp6I5PMeIJLhnNMxDwfgAAvXEQjyM7M06aaIG45CA0ili87dLaamltdWr6ApWy1+qxML/yNqlKqRDEJbkqvzASUdaycX79Fu3Pk8ukNDrTziyIFZv35iy/Qy6TWn0KIZdJz5Z9L62t5vD4qekLLCodtmY6SmurL50rk7dJ7XwtAwBUSoW45OBAf+/wfEmqyjpljQCATlmjpKqMRmcK4pL4cUmLlm/m8CxL5txQAdxzhG8LlyfIXvvuvvxVFeLDcpl0nH9IEL4LUtguYyAxtT91JvvkUa9S2HgcGXYUCWPMd3gQQVySLaMILHxmZGUXFmwYfmDR/jyL6Sw0Bmt97n/NnxXCWTsW5RkuT/Bi7ucW5xro7815Zqa5Oe/rT3Oz17xj9dk3YuRweQJ+bGJjXc1wo0jJoV0AgDTRAvgPC459tfvrT3PNc0djsFZu2mM+iEV+oaOUxmDlbC8ent/cdVmmCVKgGBzYsWHFpj0uyS+v/MTV+550fhxPQsD5AQD0hkES3qkpXzQGOzV9QUXZkeESDT6YyshaZjW/pcWFhQUbLfJrccVJa6tNE2HBrfK7LWepuaW4aH+eq/Lro8DbWlFWtp1ZfVyeQJiSUVF2pEJ8ZHj6zP3NRfvzMhevzl7zjmnL8JmOKqWiaH+eRbqtft8Oz775dFXTJNrS4sLS4kLo9+DyBFanVMI/c1Qul4ys7MIdG1QDfRXiI5mLV4/8QATCe0AuEVeimJ3FPlmM0+uxDuQm2JSkXk2NWtfuzCC2jCJ2LCJQXtPozOw17+R+cipne/Gi5Zuhu+5PFXWjD8mi5ZtzthfvO9qyPvdzfmyiXCb9MGepxYDHvtotb21YsWlPzvZiuJtKqbD4DUA4BvzlHm4Ugfm16s8u2p93YMcGYDTC/OZ+cip7zTsqpcJCRX2Ys1SlVKSmL8jZXrztyws524tT0xeolAqr+ZVeOZe95p2c7cU524vhw/HCgo3Oz7MMPvcrq+GSLHWOk+N4GFjDdklL7FTRAmDNKAItQLb899CZAK9NmF9gNO7LX2X+PVC4c6NcJoX53Xe0xZTf4bfNx77aLTn7CxzNlN99+avGxjxax4D1goRbSc/r6Rv2lGlf/iphcvqf2QGg5NAuWz06IHvzV5Uc2kWjM1ds2gOvR1HmMrlMmvPMTPNEVIgPw+zf+8jz8MqF4xftz4NXNzwQACDKXJazvTh7jfVOU3KZdFvOUmltNT82cbS3UvBnxfzHAoHwLVAN25X0zs6MeP9V9smjPXOt/GJhBYuSSMDTejU1PGKIw4NYNYqUFhfCH+Dh+8tlUvhFn7OjxKS/hSkiGoNVWLCxcOfG3E9OAQAklWKVUsGPTTQNkipaKEzJWDE/fHjJnEZnfnhIYir2CFMyXlwsVCkV0tpqd7QIHFekihYUFmy0+Ak3WYCG7w/n+wMA1ud9YXrzBXFJgtik3HVZhQUvC1MyaAyWpFIsl0k5PL6pVRyXJxDEJb24WCiXSSWVYvPE0ehM80/L+rgvYH4llWJullOPiUPLT3QmTO/xNasxAUcFALhksmOaaOG+/FUWRhGTBWj4/vDeFQCwPvdzk/42y+/GNNFCGoMFkwgAMOVXmCISpoheXJLQKWscfmGa5zcnpQTuNm6LlCZFS2Ow7e9psklY+HzMZwqasgMr2VaL4pJKcYX4MI3OzN1/Go7J5QmEKSJuqKBof96+/FU5269PJdqbvwrc3L0R5qiwYGPRv/JTRQuFKSLYRYQbKrD69WteXxcmp6/P+2K03ffg22LLv4RAeD+ohu1KVPGJfXfMZp88inUgN0HC+8OOIs4MYm4UMW2EJTFYX7FAXHwQACDKXGZR3s5cvJrD40trq80rE/DH2PRfGoNVWKosLFVaHJsqWmj+HQ0dhAAAqQ0LOGLkQKMI7Chi2miyAA3fX1x8UKVUCJPTLZsDpIjgIwhJZSkAAOarU9Zonm4ag/XhIUlhqXLYsRk33VDdyO/I7Zu24JWfkKX5WAGSLg4vAAAgAElEQVQbQsD5ObnoDITGYN2Yz/pnfmEpOs3a9QtvnvmxiRblbWGKSJicDhs+AADoN6ShRaEx79PTVvKbnG5xRQuTRQCAcfsMqrPt+gd75AUCiwZ2i5bnmP9XmCKCHmhbs9LhXbEoK9vC2QzVM7wfBjcKHzQ60+LOJyMre9HyzVZvyYYDvx/gDFpJVdm2nMdGm2g0ex7h66AatovpnZ0V+vEHBGW/nuGPdSx/wqYk1iv+M6TvJRNuUSyxQ2r6gmNf7S4tLnwi7l1wY3oTPzbR6jQUKLBwOJxpVTkTdH92p6xRWlcNy10cHr9T1pjzzEw4wXH4ZB0TcLrMcMbtL7RrycjKLizYWC4+YhJVdixA8jYpAIAbGjU8v9zQqMa6GmldTapooSAuCTq8c9dlwfwKUzKEyelWq1nDTyRMyRg+/mgJqKvhXDhTtfINJ8fBBBe2xL4+n9XMy2vHIgKvKVv5Nc1yozFYwuR0SVUZzK8wWZQqWmgrv8KUjGFDoRlsAABgqxHqcCxvUYZJc2GySFxy0FYn6c72RgBAcJiVtArikqS11Z1tjVyeABanBXFJFnmkMVgjX7kmc/FqKNBhz0FJpTh3XRZ8dDlCUD9shK+DFLaL6Z2dxc/fyD55tGuh42uVuxw2JckI9L2ammCa426KzCWrzY0isIhly1oHe2PDSTDWd7ghi9fn/hdOx4FtDYr259layQzhViyMInYsIgAA2FrETn6hBAcAvLKjZNvmR035BR7PL6/8RF9kXHuyT/qIXNUSGwwzitixiIAbd8gV4sO21jqRVJaC5ZsBAOvzvjDPb8mhXTC/9z7yPKpB2sf0/tyyRmBa1cVc8lptsHija4d1azvUrAd2WJmVfn2Huj+NPRwXXZ5cnmB93n/XL5ksra221XTfKtAf4qowEAjPgxS2i1FHT+ydMz/o+y+9SmFTCEFsSlKvptoZhW3qOAErLnYsIgAAo9EIABBlLrNVphIm/2nezdlRIq2trig7IqkslVSVwZXMysWH0XIDnsSio4gdi4gJOw8cTB27aAxWzo4SuUxaIT5SIT5snt/h7SbcQegZX7WIgOs1bNcobGgUMXUUgbdG9g3QwuT04YVniNX8SirFUMHDW6/cT04hkW0HGoMFn+CViw/bN4rA+1WLnvQ4HM7W/vxYe2+7na9lgdmBLnw2+OdvR13NyBU2LLSjjxDCd0EK2/V0PPbsxJWL2L+U9N6ZiXUsfxJASW7oO6jWtVOdm+9YWLCxtLjw4dAcOxYRAACdwQIAcEOtN28ajiAuSRCXBJZvNl/Tq+jTPDttYhEuJ3Px6n35q6BRBObXtoAWAFAmiEsaYX65PAF8anxTfvfnmWbIuQlGWwOv/ETtg8+69Szug+C6Gja42SgiLjloZ6Eo6M/h2Gi+NhxTfgEAFeLDX+/Pa6yr8UB+fR1ovROXHHz46RxbEwGltdVwVSDRzbe7Vk0UcCPd37obEMrcNNEC+zIX3j5ZnWJYIT5M8w8QxCZajba0uLCxrsZq2xD6KKc5mh6O2SriIBDeD5rp6Hp658zvnTOf++WnWAdyE1zaLBKe2Tn4mzODwC+7s2XfQ4uInQIYLH2ZHm6ak7suK3ddFnz6XFpcCCe/m16Fa3plLnkB2H7WiXATaXDxv7Ij0CJip4ANlRmcz2rBvvxVueuy4A8kzK/5U2nz/HqgSwCv/KSGFeRzffpMuGqmI8Qiv3bWdYL66VJV2fBCJswvnDMHzbV781aa75AqWgi/GVAXiFvy8NM5cPHCvWZtrS0o3LkRAMDh8dOGyWILka1SKuBXrq3MwoLI8Kac15coX5cFB4SV7OGLosNenLlrMwfMMjvQ/+e/O2WNJYd2Hftq9/DxYUFaODKzlqmVjShzvK9JhPBpkMJ2Cx2PPRvww3essh+xDuRPCDg/rt/MTvVpZwaBD/vkMuk3+/PBjR9sq4iyltHoTEml2GJpg5JDuySVYkmlGEpwOoMF97H4KpfW1YBbPetEuBxoJDAtVmynepSRlU2jM009GU1Ae4CpDZ8gNklSKR4+9Qrm1wMOS2gR0dIY7j6Rm3ChSwSYdRQp+lc+sGsBysjKhr2DbOY3WQQA4ITyreYXtha5ZRM6BI3Bgo/pKsSHc9dlWbQGl9ZW5zwzE76ZKzftHV423vf2TUupw8UBhvdsMQGfSIhLDlrY6wsLNkoqxfI2KTxQEJcEO8ZAmWvi609zAQDCm9f1NF/NF366oN/a/EB4/2DnmZgJuIpkztMzYTOTRU+PdGIlAuGFIJeIWzCVsRXpc7GO5U84tFnNysOdg79x/G53eBBoFIFrTNhfh2zR0zmFBRsLCzZKqsoSUkSwOzIsba7YtAcemypaCB9cvrgkISMrW5gigq5ESaWYRmdmLhmPXXKxBRoJ5DKpHQsQuKEMtuUsLdqfJ6kSw+7Ipvxmr3kHHgv7h1SUHcldlzU8v+7++aT0dfPKT5x9Id+tZ3ErBBxVo+9y4YAZWcsqyo7ARbbtyB0ag/XEmne25SwtObRLWlctTBZxQwWm/Jq6cHJ5AlHmMnHJQZhfQVwS7E8vLjlIozNH3ndiPJMqWrhi0559+askleL1SyYLU0Tw2pHWVcP7Frim+nCjNofHl7c25Dw9U5S1jO7Pvnij17VFCz9zBHFJ9z7y/LGvdm/LWQqvR+jagiL+CbPFIOFS7aXFhXKZFF7d5eIjcHzT4jKCG534ctdl8SckPrH2XWgbK9qfZxpf3iaFnzdg7SZBUlWWnWH97hd2x0cFbIRPgxS2u4BubObpk313eMsTahoxgus3q3PwtDMKG3acACOwx2UuXi2ITdqbv9K8IwGHx39izTvmLsBXdpQc2LFBXHKw5NAuU8GbH5u4ctNe9PXqeWDHCXCrOY4AgFTRwpztxXvzV8KHEnAjjc7MXPKCuX1o5ea9WOWXV36CODggS73LrWdxKwS8n17nsho2gE3l6UzVQJ8di4hpz9xPTlnNr7l0hiVYmF/TRg6Pv3LTXjRHbYRkZGULYpNKDu0SlxyUVIol4M93O1W0cNHTm61eKVwePzv3v7lrM03PGeBlZf9thzq4cMcG80ZAw7+WuTxB7v7TsMueKfsW4wtTMmB9BO4De0wtWr6ZxmAVfZprPr4wOX3F5pFe7xwePyMr29aiOQiED4GDPR88RnuvXirXefKMGDJx5SI9jX512wGHR1iVTYqerF+0fMhVIfVozkm63k3ivsUgRY9kf/jdalE+gRstuqVKa6tVSsXwFqrwJeiopjHYtqbMy2XSzrZGaV21IDaJE8q3+C6Gg498u8eQVBFy11J/v6Jx7PDnsklRLs3vaBl5Ku281TB3cpkUrtdo9XfRtA+dweLwBBYiwNbg8CiH83v7O6v9OltPbv3GgWMhTub34wJiWRnI2e54Q+u2geIOlXgq19462HbwkvzayqOT+XUe5/P7axnY7ER+LTC9jeDG6qdW3234oMC0JJOkUqxS9g5/2wEAuWszJVVl5kszmhjJ17IpJJWy19Zu8JMDbv6ZgBHCz4ydD5XFRpcvzQvz+9EB7bQZBteOPB5g0vCTwklYR+HboBq2G4Fl7I6lf+2/zXrHK88TQJnKJAs7B0+PUGFb/cqzutFO4eR6nxC7cHkCuH6vrRFGtR0xQkaeSjtv9fXcAXu/jvb3sbnGEE/gsPbC63W88hOXH3nOscO9BCKeqTX0O3y4l+TXVh6dye+YZCRvNYAL/Zhl9pbC1Or8wpF8LYMR5MjqIDBCO38ISj1iPIBmOroR6MYO/nI/1oHcBJc2s3PwtM6gwjoQBMKN8M6coLc3+W4XEQgJ769zQmEjxjmdsiasQ0Agxi9IYbuXjseeDfruc/+KUSwV6244frPwgNg16FRTEQTCywktP9GZML3H2rp3PgQJ728wal3YTgQxHoDd93KemSmXSWl0psvdFwgEYiQghe1evLA3NgFH4dBmdqqdaoyNQHg5vHIfXsrRBBHPBAA4YxRBjEMklaWSSrG0thr2IcE6HARinIJ82G7H5MZWJs/AOpbrcP1mtfQfVmjOsyhTsI4FgXA93Jrf2Nculr/4PtaBOAsJ7w8A0On7ASEY61gQPgPsAwPQTBUEAlNQDdvteGEZ248YxqXNcnJ9RwTCawktP9EXGdc+sgXkvBk8jkzAUVANGzFaRjiREYFAuA+ksD1Bx2PPcr/6N72mYrQHhoUb+9yz8DDHb2bn4GmNvtMto48b2hpxXJ7j/S5DI4ydMpwL40EAAHBGI/9kUfOt+rWPhN5OHIvteH7Zgcb+XmfzS8T7aw19Tg6CsEpvJ46JdX4R7qO3EwcAcOYrGoFwBqSwPcGNpiKjLmMnTze2SQnuCIlNSWSQJ3Si+Y7OcaGCkJTi+Nd3cprxUpVb8jue4Z/8mtVwSXrXI84PJa3DC2Iczy8/2thcj9cMOiXCSHgmaifiJpzPb5PT+UW4D2kdnsszRgqQwkZgA1LYHqLjsWe5X3zCEv8wqqPiEwzN9e76+ub6zRy5wu4bNPQNel3T/g6F7lLrkKRF09qj0+kx+Bq9eoGQmOz42xKfYOhow9VdxPgylPddfxtlvTrPrkB1C7r69ZfbrudXbxhpZIITRU0Z93dPnOp8AB3NTimw8EgjAKDxqlP5JeH9nXSJyPt0l29cJlosLhNbdPbr62RDF5s1zd1ajRaDwNqb8FFY5xfhPmRNeGcqIAiEk6CvBg/RO2d+56InwvZtHdVR8QnG8Ejwn+1kd4TE8ZulN2q6Bv+ws4/eYLzWMfR73aCkRSNp0ZRfU0s7tSPXOu6jZ0Bffk1dL9cqVPq+QUNTl7aiXt3R59HlQk98R+zrxaXd4YzCNk6eavzfv92S35GgVBuqpOprHdffRmmntqJe3avSYxWPCfWQ8XyTpq59qHfgen7Lr6m7lLcOLKCuJrL0O+ndLihgny8n/FFKmO5EfsMjjSnTDd8dcGpdNKITCluhMpytV1/r0PbeuEzO1qvbFdivqqtUG85J1Vfbh7qU+n61oaVbVyVVt/R4NLD6y/gzYhfk99DHmF2/CDvUX8aXiwnpc7yuMIQYPyCF7TnanllPu3gu9JNtozrqLyt1x78mSdzgJcDjSFy/WR2qn23toDcYL7YMyfv05ltkvbqLLUPYimyd3lgnsxJDfYdWqfbc9+mn71E2vK6Lm+TUW/HUCl3lacLvJ7Hp6lPfYVk71BuMV9u1mFey6+VDAxrLVNbJhoZ0t4hMcLKoN2aydM4i52PY8Spl1XrdvQud+kS9uMnZ/JII/jqHfNgGI6hrHxpetG6QazF/HnW1fUg9rGjd3KUdyU2UqzhY4Jr8XjyLLyxAItvrKCwgP/y4fv6D2NcLEOMWpLA9x2BcQtsz60P3bvW7emnkR905zzD/QX3uWmrTNdcni0efq9K1yAfLrL7aINeqhqkcAIBKY2juxrIMJlPobCl8Wa8nAuuW4zYv94uMMi58xNmvb5jfgtco7sivfbqVetWQlfzq9EZsy5z9apuWpA67gRG0Gv6Jr50vYMP8MvzB8uecze+kKcZNb+oKXqPUX3YwvyRHF06X9dq0TnnmMrGFvF8/XF5DrrUPeSaGgtcoXR04V+W35BDpt59Q61sv4qM3KZerCes2Yf+4BjGeIbz++uuePN+A2qhQjd+nNgNTpwcc+5ZaX9sz74GRHzV7noFMBm9vpOh0ODrTyA5yWYGRgKMYgb5D9UsIfQ4AlobvWpnNX7vBIWNYAGa/KHUyrS2FPThkDA8g4dw29aijFf/zEeLWl6hhEeCzI65RA+7Lr33aenUqjfVzaXUghIVZfjsUun4bzyLUWmOo7Q9e1I+Hon/48szftg0xAxw8tVl+vyxxTX4nTTEmJhs3PEvp68bT/AHdHxBHYxsZ1LX2as6H0u8d7XmvdgzpbXzXqrXGUDYR777rxC4t3TpbCtsIAMefSCS4K7COVnxpMfHt9X40Ks61+X3jb+QuGd6fPer8IlxITyfuQjlx60tURTf+X19rA4OwDsiXoZBwHCaaiO8UOKNnnwe39+ql8nF9Wxl05MsJf3uy7sPC7vmjq7T9Xobf+gaxqQFHoYLwKAPFz+iSXyECWZ365MbWqnnN5Td1N/Pn6m97zN6z6V/2sXUaDH6hCSTj7FX2Whie+dK/r93F6tAIAA6Alga8ogcHAFj+nH7Vehd/jN2UXzvMeLyPEWS9hqfT4H7Zx3bz+W2S8oAykK+19erPH7H1Ouvvze5rD/QQODmCT0Z7Rg/kt7UZt3UL8dQveABAGN/AChppfjlxf0yav7Ns+39GdTocDtz1Qo+dHc4W+fe0YHMTlf60gkK3WWc5f4zefsXFpgtvzi/CVbQ14nu6cACAZU/r1748rmWGS2DS8JPC0c2iUyCFjQGx65ZRpXUXPzthoNFHdaBGDZqkuCYprlmK06hd9gWODy3Ghx3WVb8NtEzz7dQUe7/Q6koHy4TOQ53aC/A2P7ea8yyj1i2Oi+hYQ3ikMTzS6M9yx/Duyq8tyLH9eH/rF6NRg9dcdM8fOQJIfBUhSGP9NQNOfc669I9qL9/85e3b7//+gmDU5V6Iu/MLAIDJbZLi+kbcRxnHvERMzNGe+hIYR1dPoiT24oi2L5OLLKMGG5cgZVIfzs+mPWOo1t+gdIv09878ehW///IdKzB4UuLtWAfiCB7I77gCKWznQQobA+g15QmPzmlb8ffmFz1q0bGFERi+v7Q5nJmSEvao+fYfalTtCus/hCEswrxEmkeis8KpK+prHdZrnDgAlqX7ezgeH0XSMlRRb13ICsPJqdEUD8djol6u/fWy2upL0VzSrHiq1Zci39nEqPpd8vkJd4aGAX3q1m8url+SuMePNLp72t/r1LUym48CsrG7TKobNdWNNh0aGAaGKHjjr4LYxPsfX4t1IAjsQQrbedBMRwwYSExre3Z96N73GFW/Yx0LAADgAD6ee69EXqJQt5hvT4uxLmVIRJytlzxDbIjNy35GLJaB+RYxwTbfRjsveYBoLsmWEzcmxHp1kzDQH1T8Vff8xe6MCxsoRCYAQK0b9WTHCbYvk7QYzG6fgN3ApkSiphwIBGKMgBQ2NsieWa+OmhC69z2sA7lOXNCcAD++RF5ivjGAjp+XSCMRb9I6dAp+ttAvgI7lJyeYRZgYauVHOiKQGMtD99wjhULCpURZUVqTwsjY5hfYkIAxwaRQtnWFHXj0a5xG03WfC9pgexsUIgMHcGrdqBv2cfwJk8KsCNZQNtHqdo9Bp+CTBVbyy/EnTOVjKf0RCATChaBeIthgoPoZ6P5h+97TM5jKlBlYhwMAAEQ8+WzLZ2H+iXQyx7SRQcVP5JGYfvi5Re8mN5z2mzcnLYbComF/YxYeSGTTCGqtcUBjBAAQ8OC2CVQMjQ0+SjCTwPEnqLVGpdoIACARcLPi/RLCsa8jBjIIoWyiRmuEbfsIeHB7LHWqNVkGiXz/lf4ZGT33PuTBGD3HJflxnn8C2y9ytAeGBRAD6ASN1qjUGAEAeDxIi6ZMn4D9c55gFiGYSdTojP2DBgAAHgeSoygzJ1Ix6m6CuM4fvxxmB4bEJ3rFTxICW1AvEedBLTwxo/OhbEbV7+E73uyfnj4wZRrW4YDogFl1XT9L5CXBjEnm28lE3IQQ0oSGswSlQhfyGlbhDYfPIfI5xLMt38iU1fPjvSgw3yIsgBgWQOR9sIVZ8euVg8exDudPuEzC7AS/ytav2/rP288v4+xpVtmPLWte8VhsHoZKZDpQw4ZEBhEjg4ihW1/1r/rdq/LLYxN4bL/y5s87Bq6g6xeBQIw9sC9Gjmea12/RREaH73gT60CuE8+5p6HndFNv+fCX9HQGTmOjvQOm+FNZDq8pjTBBHlIB+ug623gGCtFPb1TZ3yfo6Fe9d96rTPHJBggjgUr014zeh20OraPFwA12VTwuZMjQxyBj1pUIgUAg3AdS2FiiYwc2r9/C/rk49J/vYx0LAADw2dP57OkSefHwl/Q0On7IGxU2lchyUnwgAAD4QZXBzxsVNglP1eoH7exA7O0OLP56TM5xNEElsQe19nrA3xKyrFkb5I0KW61V0JDCRiAQYxGksDGmd05W63Mbw3e8yaj6A+tYAAAgnnNPW//52q6TFtsNNAZeY72BGrbA8p7eYLMrGWIk4AdVehpm7RftQCRQh/T2atiBxV/paYyu+8aywvYjsQZ1TilsUpu3KmxdH5WI2hcjEIgxCFLY2NO8foty2u3hO97AOhAAAAhjJkUHzJJ0FFtoVj2dgfPKGjaFwDAY9Ro9KmM7hXfXsFUGo80m+oFHv+6+b7GRPJYnufoRWYNahcOH44c0ZFmLdyrsQZ2CQkQNsBEIxBgEKWyvoHn9Fv/yX8M+egfrQAAAYBL3np5BqYVXxGtr2GSiPwAAGUWcBK9WjXaFUc9AxFMMRr2tMnbAj98xf/9lbBewgdMuEbKsBT+k0XG4LgzJVai1CipS2AgEYiyCFLZXoEye0bx+S/iON/zLf8U6FhDMmBQXNEfSUawc6jRt9N4aNpEBANDolFgH4tsQBlV6r6xhE/EUAIDWhsIOPri3Pfu5wbgEzwblafyILLUTLhFyWzMAwAtr2N2qBp1Bw6SEYR0IAoFAuB6ksL0F2fK1Pfc86CV9RSYFZ+oM6mpZkWmLwY+G98peIjiAIxH8UA3bSfCDKoO3+rABAFZr2EHffc44d6Y9e5XHg/I0fiSWzjBkf8anHcgyL1XYdV0nufSJLCpS2AgEYgyCFLYX0bz+dWpDXXjBW1gHAgL9opJCH67t/Kmh5ze4xeBHx+m0uKEhbAOzCpXIUiMftnN4rQ/7Rg3birgMObi3PXuVOibe40F5GiqRDQBweLIjWdYCvE9h6wyauq6fY4NmYx0IAoFAuAWksL0IdVRc0z/eDC94K/D7Q1jHAiYHL4hgTauWFcHyoZ5GBwB4Z8M+CpGBXCJOgh9UGah+WEdhBaiwh9ewg7/4hNzW3J79HBZBeRo/EgsA4LAV2/9MmTom3tt89vXdv2oN6ggW9ottIRAIhDtACtu76Lp/aetzLwvyXqJdqsY6FjCV93Cfpg16RQx+NAAAfsgbJzuyqOHdqnqso/Bt8IMqmGJvw6oPGzekCT64pz17lTY4FKO4PAoeRyQTGI61E8ENaVilx3rm3e/yqJykvufX6ICZNBJqho1AIMYmaNV0r6N5/evUa5f5uS9d/uQ7bHuQceixU3kPn239PMw/ieFHBwB452THEIawsvW/WEfh2xDUKr0XK2yLGnbIwb04nW6cFLAhfiQHJzuyTp8EAPTM9S6FfaXzp7b+86KoF7AO5BZcvVQpb5NiHYXnMBgNPV1tv538FutAPAUONzlF5M8KxDoOxNgEKWxvpHHz1vhnFgryXmp4fQe2kSTyHpT1n6+WFU2gLQYAeOdkx2B6/KC2t0/dxqSOi4qmy8EZDPhBlYHqjQobAEDAk7WGPxU2sbc75OCetqdf9Dbbg1vxI7Icc4mwSo+rBROUU6e7PCSHUesUZ1s/iw6YFRMowjqWW1Ba8jkOh2Mwx0uhnckKIpGpzQ2XsA7EQ8ha6kkkcuqsLKwDQYxNkML2RoZCIxpz3ot/ZuFgTHz7k6uxDSYp9JFjV7ZU0H9P9NYaNosaRiMFyFW1SGE7Bn5QBYxG73SJAABIeOqQ2UzH4IN7tYHcjsdXYBiS56GS2I65RFilxxQZ97o8HmcQN+yiEBgZ0WuxDuTWGAFIuX1e8oy5WAeCcAsHdr1iNBqxjgIxZkE+bC9FMetu6eatgryXWL/+hG0kIYxJU0MfPqs6IZ3A9s6ZjgCAEIawQ3kZ6yh8FfygCgDgnTMdAQBEAtXkwya3NYUc3DOu/CEQxxZOp1eXU6VXe++6zx0hOca1bnFr37nZMX/DOhAEAoFwL0hhey/tT67ueOxZfu4/4IIRGDI19GGuX0zJQ/E4r1zWEQDApU/sGEAK20HwahW4MZnVCyHhqSYfdsjBvSphUtf9j2EbkuehkQJUQ12jPYp1+qRaMEEx6253hOQAWv2guGFnetQLAX4CrGNBIBAI94IUtlcj3bxVGxTMz3sJ60BwSeFLqtN4F4Z+xzoS63DoE3oHm5RDcqwD8Umu17C9VWET8RRYw/a7eil4XBawAQAMcnD/6D/ezFMnvMci0tZ//rNzf0kNz57g9fZrBAKBcB6ksL0aI5nSmLPV/+zpiG2vYxtJqP+UuT91nMGf7dO0YRuJVYJoEyhEf/lALdaB+CQ3XCJeqrApRP8BbTcAIPjgXkXGvb1z5mMdEQYwKMFavWpUfd/p1eXM0yd77/QKhV0j+/Z47Zt3Rq+fErIQ61gQCATCEyCF7e2oJiVJN28N++jtoO8+xzaSOy+Q2QO46raiW+/qcfA4Apce14kUtkMQvLuGzaZGKtQt9PNnQw7uGQ9rpFuFQeYCAJRDHSM/JOTgnu75j2Bew+7TyE5ee/9s6+d3Rq+PCrgd22AQCATCY6BeIj5A932LW65djnptjTYkvG9GBlZh6EMFd5UPHGCVhjGnxgSmYxWGLTi0CU2Ks1hH4ZNQmhu0XJ4R76X322y/SKPRQPzfbvkjT/VPH6cGAyqRScJTlZqOIFrMSPZnnv6Z802h5PMT7g7MPg09pytaDhLxlDkx/+CzvahjIAKBQLgbL/1NRVjQsuaVrgWPRv3famo9ZmXaoYioxN+lk0MWVsuK1Lo+rMKwRXRgeq+6qaHnFNaB+B6U5npNZDTWUdgkgBoJANBc+nl8OrBNMCjB/SOuYYcc3NPx+Ir+1JluDck+Z1s//6X+w1D/xHviXvUtea1Rq5obLjc3XNbrtL3dHc0Nl+WyRqyDQrgMU361Wo2iR47yi3ATqIbtMzS8uWviykXR/7f6yp4iPZ3h+QA04QJKs3Qq7+G2/vPVsqLbIv7i+RjswKTwYgLSr3aLowKwVBW+CKWpQRMRhXUUNmH7RQIA6u6bGyGcirJ6HLwAACAASURBVHUsWMIgB49wLm/AT4eZp366eEjs7pBs0a1qqGj9rGdQOlOwMi7oLqzCcIav9r8N/1H12w9Vv/2QkDzrnoeexTYkhAv5tvADnXYIAFBT/nNN+c8ovwh3gGrYvkT9m7vwA8qoV7FZg0YTEUXsllM0hqm8hyUdxVe7fsEkDDvEBKY3K87KlBexDsTHoDQ3aCK9V2EHlv4Q3D7YlDQid8QYhkEJVmpGVMMOLtzT/sTqwQmT3B2SVWpk35ZceY2IJ98T96qPymsKlRYTn4zD4UxbUu64B8N4EK6FQqVNnDwdb+aLmyCchmE8iLEKUti+hDY4tOGNncw/Svlvv+z5s2siBAAASouUz56eHLrkTMuBLtU1z4dhB57/5DDm1GtdpVgH4mNQmuo1Ed7rEuF9/EEgkddD8DpjkofxJ3NHMtMx6LvPqQ117U8+74GQLGjtqy65suVy5/HUiOw5Mf9gUyM8H4OrmDxNZFrtj85gcXl8bONBuJYJwmkGgwH+m8ZgTZiEFDbC9SCF7WMMTJlW/+Yu3qcfhn78gYdPPcSLMBKIlOYGAMDU0IdD/aeUNx/QG7UeDsM+MYHpV7vFCnUL1oH4DHiNmiSXea1LJHxnLn5oiJpwN8opgxLcP4IadkjhnvYnn9cGBXsgJBMaXf+Z5v/8UJfLpIZmTtwSz5nnybO7gwmTppFIFAAAgUBMTJuNdTgIFzNh0jQagwUAwBMI8VNuwzocxNgEKWzfo3fO/IYtBZHvbuYUHfDwqTURAkqzFP57evgTal1febOnY7BPTEA6k8K72o2ZA9XnoDQ1AADUXukS8S//NXxnbutzG1k0wZBeNajtwToiLGGQgw1GnUrbbWef0L1bcdqh9ic8aiS71i0uvvJau/Li7Ji/zeSvgI0FxwBxk9NwOJxer0tI8brWSQjniZ9yGw6HN+j1KL8IN4EUtk/SsfSvras2RuesYlR5dJFFTUQUpaUB/ptGDkqLeOKS/Njlzh88GYN9cDh8TGD6te7SIf0o1uYYz1Ca6414wlCYNz4EDy94qz37ud7ZWQF+kQCAcV7GZlCCAQB2rNhB330e+f6rzf9400j00BT2Pk1bWcMuccNOPvu2zIlbBOwZnjmvZ0i54x6j0RjIDWOyOVjHgnA9CSnpRqMhkBOKLEAIN4EUtq/S/LctXQsfi1v9qCdPOmRWwwYAhDOT08Kzy5sPdCgveTIM+0QHpg/pVVe7UBl7RHjtNMewj94mt7e0PvcyAIBFDcfh8L3qVqyDwhISnkolMm21E6FXl0e9trZpY75i1lzPxHNJfqzkyuuDut7Mia9PC3uMiKd45rweg8vj0xmstFlZWAeCcAtcHp8dFIIsQAj3gbr1+TANWwomrnhoysLp5w+f8cwZNeFR9JqbVnWZHLKwV910puXAvNjNZALdM2HYh0HmxgSm13X/HMuZQ8JTsQ7H2/HOVn2Ms6fDC3Lr8/dqg65bDuDKjthGhTkMMteWFTvm5b/2zF3Y9sx6D4TRpbpWLStq6z+fxFs0JeR++zvXXcZdOIeXt+Ps7+adtMhWl/4ce6rMJ38ok6cb4hMM/kz3nsWn89vWskqpCaso98n8Jk4zxMUbAzlGrANB2MQnP1gIiMGP1rClYOLKh2LXLavbftADZ9RECMgtUouNaeFP/lCXe6b5wCyBt6xonRB8X/Hl/6uRfTMtbCnWsXg73rncTPjO3K77Fnc+8LhpS4AfUtiAQQm22k4k/pmFRiKxaWO+B2KokX1bLSsKZyZnTnw90M/mvZleB3a+R/zxKL5D5pPa6wZTsA7AGQgAgMQUw0OPGu5bpHft0GMlv/FYB+AMBABAbLxx7nz98udcnF+ES0AK27dRx0yEleywj95pfW6ju0+niYgiKnoI/Qq9P8u0kUJkTI948oe63AC/yITg+9wdw0hgUkITeQ+caT4QzkwOYQixDseroTQ1KKd611T60L1baZJzkoM/mW9kUyNl/eO90zmDHNw5YLmqq+DNv7HEP1zef0TLCXHr2WX9F87Jvu5Tt6VFPGG/W8j5c/h/rCIy2ca7HtSGRxmi4w3sIFRp8zSNV/GNdfgLFYQ3XiaWfIcv+JfL+j7B/JLIAOUXQ1oa8M31+JYG/J5tpJLvCNv2acMiURa8C6SwfZ6+mXc1vLkzZuNfdezAjqV/deu5NOECAAClWaoSJplvD2EI08Kf/L3pUzY1MoyZZONoj5IQvKBJcbZa9s28WKSw7UFprvcqHzbj3B/hO3ObXspVx0w03872i1Rpu7X6QRLBD6vYMMefElzf86v5loAf/hdyYLe77dc6g6ZaVlQj+zY2aPZM/kp/ij0p/+0XhPxXiY+uHFq4zLtaeY43+BMM/AmG9Ht1yXfo//UBeWEG+XDpkPPDwvxmZOmeWq+hIBcedoRHGcKjDAAAYYp+9xuUh+4ml9ZoKGNtNoRvg2Y6jgU6H3qi6R9vRr22JrD4a7eeSMvl6RlMv1orpcRJ3HviuXPLWw6ovKalWmLIA6195y52HMU6EO+F2NNFUPZ71XIz4QW5fXfMaX/Sst8caicCAGCQgweGOo3G6ytlEPp641Y/2vnA4261Xzf2nim58npj75mMqLWzBM/Zl9eXzuPyXyU+tgrJay9ixhzdR4dVQ1qw/yOCk0PB/KbM1K/YhOS1tyBM1hcUqdhBxu35qGbqXSCFPUZoW/FS+1MvxK5bxjz9s1tPpEy+jVFtfWLl9PAnyQSa93TIDmNOncTNrJF9M85lmR3g+kHeM9Mx9OMPmKd+sup3YpCDKUSGTDmujSL+sGHfUAcAAK9Rp6bxVJMS3Wq/Ptv6+clr7wUz4jMnvh4dOOuW+3+YT0xM0y94HMlrr2PNFs2ebcRjh5360f8wnxiXYPj722pXRYVwFWu2aL7+jHD0W2dvohAuBCnssYM0573u+Y9MeiqTdqnafWdRJs+gn7OusAl4clrEky19VdWyb9wXwKhI5D1AxFNrZN9iHYiXQmmu1zP8dQFBWAcCAAD0morwgtzW515WptxudYdwZkpr3zkPR+VVMMjBAIB+TQexpystka2alFT34UE32a87B+qO1755tatUFLXmtoi/UIm37knR1oKrPIN/6Gkkr72R+CR9Wrq+4nfHf/Rhfpe+4AKrCcLlxCfpb5+jP/ULEnVeBErGmKLuw8L+6elT7r+NLGt20ymUyTMY1WdwOus/ohzahOkRT1a2/rdJUe6mAEYFjRSYyHvganfpte4yrGPxRihNDd5jEQnfmaualAgbYFslgpnS1n9eZxi/P/A4HJ5O5qg7Lk2bET6QmFq76wsLt7qruCQ/drzuLSKeck/cKzGBI13xrq0ZBwCIiDK4IySE83DDDY0Njrf+QPn1cqLi9Rerfbq1y1gDKeyxhuTgj+qo2OSMWLx60B3jqyanAKORfqHS1g6xQbMnBy840/wfL/FmTOTMjWBNq5F9o9GhVR4toUnODU6cjHUUAADA+3Q7++TR1uc22lmPMJSZCACQ9Z/3YFxeB0vP8DvwtnLaHbU7v3BHm0WVtrusYdfvTZ8mBN9314QNLGr4yI9tacKFhBtpDNTQwEuJiDI0OaGwUX69nIRp+pYmXGcHEtneAlLYY5Dq4+f1dEZaUoA7BtcGcdUx8fSaCjv7pEU8EeDHL5Pu9pJZj4khD/Sqm8tbvMUg7j0wqsuVU6djHQWgXawK35nb/uTq3tn21s+jEplc+sSWcWwUoVeXC34qlQkFtTv/OxQa4fLxG3vPHK99S66qnRPzj+TQxaM9vL0NFxSMCpzeS3C40Rn51d6GCwpG8tp7iZlkAAA01iOF7S0ghT02qajsBACkzHLLDDZl8gy6jcmOJtIFq0l4alnDLncEMFqCGZNmRD5T1/VzZet/sY7FiyB1yylN9d7QDDu8IFcbzLPjDzERwRq/Vmzm779MfiSdTuW1Jsa5w3sNJzUG+gnuiX2Fz8b+vguBQCB8GqSwxywV5e0kuWzKgzNcPrIyKY1x7hY2axLBLz1qtVavOnntfZcH4ACTuPdMCVlYLfvmkvwY1rF4C7TzlQCHUyUkYxtG6McfBPx0uPW5l00LpNuB5z+lT9PWO9jkgcC8CvbJo5OeuLd3dpb2oef79d2uHVyj6z9x9d0a2bep4csyotfRyRzXjo9AIBDjEKSwxyx6Juvcycu0i+fin33AtSOrEpKp9VfIslvYrGmkwPSo57tU136V7nZtAI6RGp4dFXD7702fyvovYB2LV8CoKVdOnW7H9+wB2CePRr67uT17lfkC6XYIpk+kElnjrWcf53+fTVy5qGfe/XUFn9OYfI2uX6t32SyLPk3bD3V5sv4Lc2L+PiXkflcNi0AgEOMcpLDHMppwwfn//cEqPRa9aYULhx1ISDZQ/egXzt5yTxY14s7oF+u6fvmj6V8uDMBh7oxez6FN+KV+u8GowzoW7KFXlw9gahGhNNXz8zf03TG7cfPWkR8VwUpp669xX1TeRuR7r8S89HTnA4/XFXxuoFD9YcO+oQ6XDC4fuHLsyhaVtnvOhH/w2dj7hRAIBGLMgBT2GEclTLp04Dj36/9EfPB/rhrTSCYrk2fQzttsJ2IOlx43LzZHIi+ubP3CVQE4Q+bELQAYv7+cg3Ug2EOvKVcmpWEYAD/vJYJqoHHzViORNPKjeIyElr5zLiziei3U+isTVzzE+/iDxpffubb1UyOeAADwIwUQ8GSlxgUKu1lx9ujlV4l46r1xr4X6Jzo/IAKBQCBMIIU99umbkVG7+1DYnndDDrjMrTEwOcVOwz4LwphJs2P+Vi0rOt/+nasCcBgCnpQ5cUu3qsFLDOJYQa2/QursUAmnYhVA5PuvBvx0RLp5qyp+dNouxD9Bbxga80aRgGPfxj+9kCSXXd7/vezpdeYvMcjBSqdr2Fe7fvnp6jtBtOiHJn/IooY5ORoCgUAgLECr2I8LeuYuvPb2P2Ne/quWE9Kd9bDzA6oSkjnfFgKjEeBG1BhIwJ4xS/Dcr9KPaKTAkS9g4SZY1LC5sZt+rMu/0H5kcsgCbIPBCvqFKl0gZzBWiMnZOd8eDN27tWXNK93zHxntsQwyN4QhlPVfiGSluiM2byB8Z274jjfljzzVtCFPx7ZccdOfEtzvXA37Ysf3Z5r/E8IQZk583ZlxvA1J1fWFpTi8SC5PYGs3uUzaKWu65W4OA8d30+DjGWlttWqgDwBAozMFcUm2dvNMfu3HgEAApLDHD52LniD2K2LXLZNwQvqnO6txVQnJpC45/ULlwJRpIzwkNmi2Vj8obihgkDnBjElOBuAk4czk2/nP/tb4cRAtmufvFUuueBjaxSqsOmHTz5/l523onv9Iy5pXHBshhCFs7hvpIxTfgtzWzH97I/unI9JX3m9/crXVfZysYV9oP1zeUhgXNGemYJXDg3gnuWsz4T8EcUm5n5yytVve2vlymRQAsGj55kXLN7s8DHHxwaL9eW4afDxTWLAB3kRxeYJtX9qcsP5hzlJpbTVwc36Fyek5O0pcPjhiLIFcIuMI2VMvtKx5RbhsLu2ysxPFBifEayKiRm4UgQiDsxJ5Dx6rfWNgqNPJAJwnnjNvWthjx2rfaOmrwjoWDKDXVAxMHundkQvBD6r4eS8NhYRJRzO70YIQf2G3qr57UOrCwLwBVumx+KcXkFsbL+//3pa8Bs7VsFv6qspbChN5D449eW2OtLYaauhRvYTwFeQyKdTQo3oJgfAwSGGPL1rWvNLx2LNTFk4ntzrbUViZcrv/mbLRHjUtbGlUwB2HL2108uwuIZH30EzByh/r8ht7b7GAzhgDP6Rh1JSrEjAwYfPzXmJU/dG4eas2ONThQXiMBD8Se4x1XQz9eFv8sw/0T0+/vP97+0+ZHK5h92nafqzLjw2aPS1sqaNh+gAcHh8AUCE+YvXV0uJCz4aDcDH82ERgO48w7/AzgEBgC1LY446GN3b23L0weXYcQdnnzDgK0VyW+DihTzHaA0VRa1jUiK/Pv+DM2V1FXNBdd0/YePLae9e6R3234LvQLlbhVQOen+bI+/fO4C8+ady8te+O2c6Mg8cRw5kpjb1/uCowbPE/Uxb/7P2he99teH1Hwxs79Qym/f2ZFJ7eMDQw1DWqs2h0ym8uvBjOnDpL8JwTwfoAqekLAADikoNWXz1b9j2NzhQmYzwbBOEwGVnZAICzZd9bfRXmHX4GEAhsQT7s8UjtR4cSFotSpwX/cUXt8CCK9Hl4zTq2+HjXfYtHe2zWxC1fnV/9neSl+4WOWwVcRQRr2ry4V36ofUurV8Vz78E6HE9Av1A1GBOvCffoNCxW2Y/8vJfas1e1Z7vAnxATOOt47Vtt/TU+3WaOoOwL27s1dO/WroWPSj77aTAuYSRHMalhAACFppVOtpwEaYejl18J8BPMjR37zuA00UJxcSF0g1hMdIMbRZnLOm0YRSrEhyVVZdK6apVSIYhNSk2/L1W00GIfuUx67NBuaV11Z1sjJ5TP5QlEmcuEKaLho6mUipJDuyRVYpVSQWOwMrKyRZnLXPVnjlsEsUkcHh+6QSzmGsKNqekL6P5sq8dKKsUVZUdM+RWmiIZnZFT5FZccLBcfhvlNEy2895HnXfVnIsYASGGPUy4eEifPnpg2NbD8nIMrMGs5IYr0eSyHFDYAYNHk7Qcql/109Z27J2DvGAnzT7x34mvHrmwZ0qsSeQ9iHY7boV2s9LBFhCxr4edv6Lv9zlEtLmOHUP/EUP/E+p5Tvquwg74/FLr3XbxGc+3dTzofHIXwwuMI/hRen7o1bMR/+8lr7w/pBx4WvuNQpL5HqmihuORghfhI5uKb7OzQWpAmWlByaJfFISqlomh/nmk7jc6U1laXFhemihau3LSHxmDB7ZJK8bacx1RKBQCAw+NLKsUSIC4tLhw+qU5aV5O7LsvcEyypFJeLj6zP/dzVf+64IzV9wbGvdpcWFz4R9675dmgRSRUt6JQ1Dj+qsGDj8PyWi4+Y51daW527Lmt4fu995Pkn1t50LtVAn7X8Hs7ZXuzSvxXhwyCXyPil6ucrOJ0uJT3a4REUonms0uMEldKBY/E44mNJHzcrzv7W9InDAbgQHiMha+IblW1fVrR8hnUsbod+ocrDFhF+3ktERc9oF5exT0zgrIae094wa3a0UK9djtnwzIT1T/TPuFPy2Y+jktcQFjVMoW4d4c5nWz9v7P1jfvxbRDxltCfyUdJE1o0i0CIyvCwNACg5tKvk0C4Oj5+zvbiwVLmvuDX3k1P82MQK8eGvP8017bYvf5VKqche805hqfLDLy8Wliqz17wDACjan2cxgbJCfNhoNMLRTLtViA9LKsUu/3vHG7aMIscO7abRmWm280ujM9fnfg7zu+3LCzC/B3ZsMO227+1VKqVi0fLNFvk99tVuiwmU0trqgf5ei/xKKsUV4sMu/3sRPgpS2OOa8qpOUkdb4vwUxw5XpM8l9nSxSn9w7HAK0f9+4dbL8uNestxjMCN+/sQ3rnWLTzf+E+tY3AhVepV20aMKO3zHm4ElRQ4sLmOf6MB0PyK7vsdmUzbvhLd/R8Ljd1Oa6i9//D9pznvaoGAHBmFRw/pGprAvdBypkX2bNXGLPyXEgRP5KKmihbBIaa56JZViuUxqVV7LZVJY3Vyf+1+TH0AQl/TKjhIanXnsq92mceA/zEvjmYtXp6YvECanN96swGh05vq8P0fLXLwaTtGTVCGF7SyCuD+NIqaNMN2pooWmgrQJ+IACALA+7wvTB4DLE8D8iksOmm57TG3+TMdmLl4tylwmTE6X1lm2KMnZUWyeX2g4kdY526oLMWZACntcYySRq36+4lcnSXjUkZlnmnCBQjSPJT7ucAABfvysiW9Uy4rONP/b4UFcCIcee/eEje3Ki6X12zW6fqzDcQss8XENP0Yx627PnC7o+0PhO3MdW1zGPgQcKSYwvaHntGuHdR/M336e9Jf5Edtekz31guSznxQZ9zo8FIsSrtDcWmFf7fqlvPnAndHrMe9A73mgkDLvKAItIha+EUiF+IhKqRAmp1v4emkMFhxHXHxTObywYCM0EkDW5/03Z0eJhXYXxCVZuMCt1lYRjgHnMpp3FDFZgIbvDK3S/NhECzs1jcESZWUDs9seGp0JANiXv8r83mzl5r05O0pg4dyEMDndIr/cUAEAQFJZ6tQfhhhDIB/2eGcojH/xkDhhsShu9aO1u0ZdS1akzw39+AO8Rm2gUB0LIJgRf7/w3e8kG7R69UzBSscGcSGBtKjZ0X871bj3h7q82yKeGnvShFV6vFd0zwgX43QS2uUafr5Ti8vYJzpwVo3s28beM3w2NqvnjBBSZ0foJx/wPvmwZ94Dks9+Gvk6TbZgUsMGhjp1hiEinmxrn2ZFZZl0920Rf4kKuN3J0/kiGVnZ4pKD4pKDJkldUXaEw+NbXYcPymXVQB+sdJrT2d4IABjo74X/vfeR5499tRtaDgRxSanpC1LTF1gdU5iS4cI/B2FBRlb2sa92ny373mSPtmMBgrbsQaWV/DZerQE3StcAgMwlLxTtzystLiwtLhTEJQmTRamihajzDMIxkMJGAOXU6Vf2fjNx5UOCN/8mffWDUR2rSJ8neOvvLPEPPXMdL88E+AkWTd5RdGGt1jB4Z/SLDo/jKth+kXNjN59p/vcPdXnTI56ayPFQudcDUJqlLPHx2t2HPHAuckdb9OZV2gCOM4vL2IdJCY0OTG/oOe21Chs3pAk58FFI4W6cETS8uavj0WdcMiyLGgYA6FO3BtKirO7QOVB3qnFPIu9BYXCWS87ocwhTRBwe39RRpEJ8WKVU2GrlAeuO0tpqW4uVNN5wCDyx9l1uqKDk0K5OWSPcv2h/HpcnyFyyGvWR8CTmRhFBXJKpS4zVnWFa5TLpcIUNUSmv30EtWr6Zw+MX7c8z5bfk0C4uTyDKWoZW6ESMFqSwEQAA0Dsn69o7H8dsfHaIF97217+P/EB1zMS+O+awxMedUdgAAH9KyKNJ//z6/Jof696eG/uyM0O5BDKBNkvwHIsadrpxX5+6NS3iCawjcg0s8fEhXoRC5PamhHiNOnrTClJne+2uL51ZXOaWxATO+qE2d2roIhY1wn1ncQzuoX+FFO6mNEvbl63qWLZyKCTMVSNTiUwK0V+hsa6wh/QDpxv/Gc6cOrZXlrklsOME7ChSLj4CbsyQGw6HJwCgTJS5zNYO5tbezMWrMxevltZWS6rEsLufXCY9sGOD0Wi0akFBuAnzjiJ2LCLgxgI0qekLbCXIPL8ZWdkZWdkW+YXSHIlsxKhAChtxnc6Hsom93fz8DUO88K6Fj438QEX6vODP9uL0OiPBqY8Tlch8LOmfRRfWllx5PXPi684M5SqmhDzAooafaf63Qt0yPfIpJsWNStEzsMTHFaJ5RqLbL/zoTSsYlb/V7vrSeUeEfUL9E3n+U+p7TieHOtI10k0EHvs2pHA3o+JUx7JVddtXqqPiXH4KO5MdK1u/BDjc9Ii/uPykvgU0EkCjiB2LCLjhoFUpFVbbHlsAi+KCuCRBXFLm4tUqpWJv3sqKsiMV4sNIYXuSzCWrTUaRs2Xfc3h8qxYR8Gd+e0eSX9jc2jy/B3ZsEJccFBcfRAobMSrQTEfEn8iWr219buOEv//F/49RzHZXiOZSWqSsUsfnO5og4MmLE/eodYrDko06g8b5AZ0nkpUGF+n4sS6vSVGOdThOQW5rZpUeV2S4vYAt2PJi0JEvr739cd8dc9x9LnC9bd8po9HggXPdEubpk3HPL4ld85iaP+HCV2XSnPfcIa8BACyK9YZ9DT2nL8lLUkKXkAk0d5zXh4BGAvigX6VU2KpPAwCEySIAgKRKLB+2Ek3uuqzsDAYsYVaID2dnMD7MuenJAI3ByshaBgCQW+vBjHAfXJ6AH5sol0lLiwvlMqmddRxv5LdsuAsI5ndv3koAgKRSnJ3ByHl6pvkOcKkgcKONDAIxcpDCRtxE8/otHUv/KsyeR2m8NsJDVJOSlNPuYIkd7Nk3nAcTtuFxhO8kGwa1Pa4a0xmYlNC7Y1/ms247cXXr+fb/YR2O47DEx3WBHHdbRCI+3BJycM+1/H099zzg1hOZiA5MNxqNmLfto58/G/PyiklPZRkoVMlnP9XnfqRKSHbf6VhUK+1EBrW9VW1fTgm5P4Ll3kcHvgJUXVAfi7Js9h0XpoiEyekqpeLDnKXmTUJKDu2CfdzgsXDyIlypxPzw0pLPwA0Zh/AkUPvuy18FbFuAAABwTioAYN/bNzUJKS0uhPld9PRmAIAwRUSjM02tG02gldgRjoFcIghLGrYUEHu7p85NOHNeYSSPaIkKhWhe0LeWizs4w32T8o7XvnX40sZ7416Hk7owJy3iCSY17EzzvxXq1ukRT/ligZAtPq4Q3eNw15eRwPtXQdju/MacrZ0PP+m+s1hwo23fqZhAbKb8M0+f5BQd4Pzvs9677rv8yWGFaJ4nTmrNJVLV9iWZwEgOW+KBAHwCaBSBndoseqtZsGLz3ty1WdLa6heXJAjikgSxSRXiI1CNrdi0Bx5LY7BWbNqzL3/VvvxVx77aLYhNAjfabNPoTKjSEJ4kVbSgsGAjAMCOBQiSvfYdaV21tLY65+mZML+SKjEsaZvyCwDIXvvuvvxVhQUbxSUHLfOLLCKI/2fvvMOaOr84fpJAWGHPsPeUKUPZIiC497Z11VEVq9Y66l6to+KoVq1Ka9WqWDeCokzZe+8RdlhhhRAgye+P8HOySXID3s/j49Pe+973/cLF8L3nnvecIYLGsFF6ofD8nZaJruNtBmttm5ynCJOKZJ/f46AGT7198mIGL3J311OLODjtSNCXm+yhu5dCK3tTeKKmNQtpOUNDsK6G2ykico9vq5/YWemzv+bbLdxbpVe0ZByqWtLr23n9oyL9+on+hnmG33pjO+l5N57nX/mPN/YaACSFlbuZdGpnw/sjRY0R6kjB4AAAIABJREFU+fVvLZQX4jAca5w52mEnikC/AU428koaJ27GTJn/vShBMiclMsj/Ul0NycjC8efzgR9f6+y9fN2eK+q6puxIdkTgbWorxclr2XG/mP4dPAo3YCeKwCACzF/eX1JBeq/39+fzgUYWju/vLzv/5LhfTP8OHgXlSzAsFouX65GbGKS6bl6uiDJsxs2wZgqLZvsPqn6+3pbFGDo9/9pjzmp4R7pc1BDuqbePKM7JdoAjgd7dmlh5u7AhzFRptpnSvH4KEvMV8v/dUj17IC04iykqxo35pUIC9DfMq1nlU7bnFDfmH5DYsuvdTLqjJk+2mrFY8o9uyT36RzzhXf3cFXXzv221RiB8fit5ibveXmVxUwBo66x7lX9YR9bZgohYAPv6RYGod7D3fAdSAjgIezvjgGPECFJfdhDkW3JSccd9hOPyh7nF5fpFgah3mL3naZxVhQjsGn/9j2G/wRhdD07LncX++KfLyo4Dm1IkRLGGKuiz+ohAY9gofZL5PFGokqT188bBDK6fvlgqLFA8icO5sI4a3xvJe70uOFbWFM/ZmYeNkIC4g8ZGJ80tZU0Jr/IPjZbtj+wqIlyy14TkGP0N8+rmf4uUvQYAQ4UppKa4ypZUrq6Ca2lS+uviuFm2Ggd9aHomWY+ii3/9ExF7DZ+WE0mtekAQUkDQXo8xBuOr5JU0RpG9RvmYwQSk5ZU0Rpe9RuE3UIeN0h9Zj2Pk/rul/MfJAUdSpsymmo7nbKIIG1u1VWZKc0KLfytsCOf45MNGW8bRS/+QvJheSNHpuHK/ju7mga9BDsHGOsmI103cSRERKco1XjypccqckhNXuTH/IJESVjOU98qpDeTS/MIlBSoXj42bZad86USLw+SsJ7Glh85zuxZh/0gK95QTya9/W0yJQu01CgoKCv+AOmyU/uhUVM65F6rqe1Dxnz8GHNwwY7Hs8/v4qnKOy7BUXjxeZWkU6TL3/NMwEBaQsFVb5abzU317YVD+oeLGd0gr6hPJiNcsPJ4bVUQE62tNvS1a7N0KL/7L8cmHiqH8lEYaqahxUHlNg0cy6q327nWmM6zlH/7dMHtZ1pPYsl2/0nSNOLvKMJAQVmnpqGruqEqtfmBJXKBIMERaEQoKCgpKD6jDRhmANgvbwgt3NY5uk3t8u/+RDTMWMfFC3AhjA8A4xVkT1NbGV/yVXvOIG/MPGzXJ8V56BzWk7CJLL0aRLrfSyUgr6gXJyNdNTp4McQ6/0cZ0d5lP0qeajs/96yVnZx4eYnhZI/kpObUvmSwObPbAtlPlH9w0XDHFYNU04ZK8sj0nM54nVmw9QFfhlxfHksLKzfSq1OoHMiKapkpzkJaDgoKCgvIB1GGjDEyj19yyPae0d62VCn/Vz7AuWYWGGYtkn9/nkgwDeQ8nzS3pNY9jyq5xxEJxChwWb6m8eIreAWpnQ1D+obx6jpUG5wiCDbWSEa+5EcC2cNXvJKpl/RfF8ZmHjaH8lG4mfYTvOkQKc1R9D5nOsNba9323tGzBZf/s++HkZRsYEvyVdCsppEztrK9oTkHL86GgoKDwG2g9bJRBUbPKR6iSpHF0W4f6kw4t/b6GNcxYrPTXRdnn94bUd33waMs4igpKx1X4vSn8xU5ttaSwCjdWGR5K4iZK4iYZNU8SK/6pbskwVZojK6qFtCgAAJkXDxgSUhzv/2I6zQoYjPTXGZyddoQI4kQN5b0yap5oSE8g4OWHerlUeJDs8/uyL+53S8nUz1jSMHMx1XQ8N3RyhG5WJwAYyLvLieogrQUFBQUF5RPQGDbKYCHt+42mY6hxZBumu8/4MdV0PGXKbO6FsQFASdzEXWe3AFb4TeEvFc3J3FtoeJgqzfbSP8QC5su8fUmVd2ldTUgrAtkXDxqmzmcKi3BwTqNl7kKkopQYfmwTbSg/hSCkMKRsIoGmRoW7V42WTtb/brZIQXb5zuMZzxPLfj7Nz/YaAAobwrAYnLyYAdJCeiCqsOpq0N8p/Et1GUZBafj1eYkqrPoaDAf1oHCWgkwsAGjq8rQEM0o/oJ+GKEOAtP8svqZS4+i2fsbUzVspFRYoFcrFxFwxvJybzk51Kdu3RSf5au8jG1lR7UnaPzpobKxuzXiZtx9ZhVIhAYS0+MapCzg4p5mHiWh2WmIm/5ZPMVWcVVAfUjqIPuqE1Hj1EztNp1lpHtrKIEgUnb2V+TSues22LnklHugcCZUtaUUN4QS8Yiu9BmktPahqsOqqMc2NqAnjU8qLsRraw7dfqhqsWqTvbxeDVdHQlUrqSCzuKKjpbKIyEBTzGe10ZmVjd2Vjd30rg8FEwOZmJAho6bJkZFGHzS+gWSIoQ4Cuqkk64Gvw3Sy6mnb12t59dpOrV6PXXIV715smTeWqGBvVb8SFFOPKb7bSybZqK7m61jDQlnHUlJ6YXRuQQX5a2hRjrDBNQ8qO9zJkX9xvnDK73Ygz3ciw7VRLR61OBWJSSh1HJuQSqpJWBnIeaTWPiOJmQgKELwdgujplA/xlXj6UCgvsJKo1zFzc4D2PambDe6nDJqf2pbaME4vFbKFXI62lBxU1FgAUZGGtnZD3PQwmC4flR6/fzWAJ4JARVluB1dcfvv1i39/8TJyNMzLbYBpaGUW1ne+75DW2MRrbGHLiOB1F5Nt+keq7apo+fFtwWIyGnKC8BI6XGoqzsaaWHOg1g8Ip0Bg2ytBomTiJtN9X7dQe6ddP+xpTu2y9VOhLroax2RjKT3HX3VPRkvy26GQbvZbbyw0VLAY3TnHmVINjcqI6YcVnw0vO1VHzeSlAJD9L9sUDTgWwRQqyrS1kqabjM4LSODIhVxmnNKuL0Z5e899nx0UKslXPHTadZqX90xpMd1fJ8SsZL5PLdv06uux1UWNkZUuqofwUCWGl1g5+iWHLKbC8ZzH+u46k3WnvZBaRO+MKaYnFHTmV9MY25L0+G3o3q6SuK76QllTSkVTSUdfKa2Ep0bi0eNzU2cNfl31/b19A5v4yWVBS1/llE+r6VkZNM8Ib34vInR/bawBgMFnFtZ0UHobYU6JxqXG46XNRh81H4A4dOsTL9agdrOZ29CdgdEMdZ4WltRNvnmt28uyWkftyAF1VU6iiVDwxqmHGIm6LkRBSUpG0qGhOyqsPlhRWFhdS5PaKQwWPE1WRsFCRMK+jFiRU3OpitEsKq+JxojxYWunvSwItzaSD50Y+lVRYkPGSSfWzlxVcfjDy2XgAHieGxQikVj+QE9WVECYCgHTwU9WLxzUPbxUmFVHcZ5btOVm9YVe7iQULL4S02KHBYjGjy66qS9kYyLlTuxpKKbEmitORFtWDqyfz5iWBDhrGyBIBa9vQysit6mzv7HFh9G5WYxujmwFSYjwNJX5Jczszu4Le1tHzu4/JAgqV0dHFkiHwTtjeVaJHf+uycxxRCoGrJ/Ofa7iUGJyzN69NLbm5m0Lt3Tw0tzNVZRDr791OZ5bWdfV6qo3OVJLiUabA3lWiP+zpnuzNMX8lJIiR420MfuyBxrBRhkP5TyfaDc3Uj++EL0MKAABA5lUYGwAkhIjuOnuUxI3fFP6aX/+GBysOA3kxfRetH1y1t9e3F73M25dJfsZkcdeCYGlU2Rf3G6bOH/lUCneu6q+bXbV+Z/GpGyOfjWcYyk9RkbAoS7updO20yZwJepsWCVDqSo/8nhGQXPbzmTariUgLHCbZdS9bOqqM5L0AQFxIqb2rkcHsRFrUBy7d6nrkJ/j8DgKOh1Tfi9EhN3e30hAO65DqO7/My21oZfAmxB4XKrBxhqidI9N9Kge+D5dudeWk4K79IkTvGPlkQ6Ch3+8VlY7YLW7sO1BN72LRu7ieFZ2TitsyV7SrExZ9wy9vbFDYoDFslGHSZmajePsP4fKS5t56cXcpqgg21ErEhvEgjA0AGAxGVdJKAIuPr/iLwexUluBM2jHHkRJW1ZOdhMXgcutelVDeCWCFpUXUubSW3JM7si8fkg6d75aSGck8aqf2qvkeJB04V73hJ05p4w3Sb19Y33npetFfJCOh1cW7fNcvVZt+po6z4mxZFR5D66JEl13Tk3PTkrYHABxWIIv8XFPaXkSQX2p1y8jCgmXM+34CAfcEaVQMtRUjIgrC3H9n09jG6Cf1QpqH0eLPaKUxq5t6j/gymCAnzi1hZUXYjATcK3/BB3/iZy1kHj7Nmagz+/6+fIR7fAvf1Qk8u7/lDd397B4kCOPEhJCJGLbQmP08wkkTcEKCXEm7ryzF5qTgkiIErpwQMrdiPXrD4cdsNIY9cjCsPmKQXILcxCDV8VGvEJSRIBUWqL9uTunhi7VLvvvyrEh+lsl8x8Lzd7i95fFjypri48r95MX07NRWiQhK82zdoULrasqufZldG6AiYa4vN1lVkvNV4Qy/9e5UVB5h1Flz/yaF+zeKT9+sn7WUU8K4jXBxnkzQY5lXj0Tys5vcpqVYyQTp1jhYHSWKj0NaGgdIrrxb1Bg5zfC4qGDPg9PdtJUOGt9rSNkiK+xLLp0RCAvGlpXwaFffpG/bxrn0HlbtomOubJTljYwvsZvVbjurva+zl9fJMrq59S2SkmFpaLEWr2S4TeF8YOvSGYHwYCyJV/d34f4mRa0+zcP9I1K1pchUbrDwoDktofZ19tpmWXo7t75FYgRQ12R5TmcsXc356LWEKNZQBbHcm7EB6rBRRoTSzXOqvofyrz9rsXP+8qz6r7uFS/Lzr/K0zzmFRoor9+ti0OzUVikQDHm59FBpaC/Jrw/Or3+rJjmesz5b+u0LvY3z8689bnL1HvYkOttWyAb4F1y6T/HgcLcaboBrbZYKC5R+81zm1eMWW+cmt2kUt2l0de0uBu11wVEMBuupt18AO8pSrj+DQiMF5O0zV5pnqjT7/cEXubs1pe3HKc5EUFg/0DugnIRpaeK6DyN1U6l9t3o1FJTAAjIVPCoZ7c3M3vN0AUBXQByP4UrwVV2LJafA9d/vPLu/DUw6mdFnYooxcu9wuljMou42JvTyrRbFCGgKiHFpXVUN1kiqmw8I6rBHDuqwUUaK1s8bxTKT824865L7fJehUHmJyTyH4pNcr9z3Gd3MjrhyP1JTnJ3qKh1ZF14uPQzqqYV59W8KG0I56LP1v5vFFBErvHB32DMYrJ0lGfEqz+9Fs4P7yPVwD2wHTSosUCosSDI8sEuBSHGf2eQ2jWpi+fGYqpb04MLjRgretqp8V9VxSESTrtRS86cZnhDECr8/GF5yThAnYq++HkFh/EByCT27svcX5UKCmAV2vRRt5A05lZ1JJfS+zi53FOelmNFLN4P1MI7aa6bIeC0hIxUkK9gUkbtiCj53/4ICmGkWogTh0brbDXXYIwfNw0YZKa0TXGUC/yOkxlGmzPnsFENSGtdOlQp9yZts7PdgMQLqUjYsYMZX/AXAUhI34eXqQ0UUL6MuZa0iYd5EK0+qutvYXiKIE5YQVh72hDKvnij/cbL00IVOFY1hXC5YV2O4ZoZYRlLuP69be3s1wQ9gGAypsJdKfhc0jm6XCn1J0zOuXv9T+e5fW+2cuxSInw0WF1LEYrAZNU8lhZW5l/jObapbMxIqblkSFyoQPmni2EgrpbSTdGVdkRLGJ2CxmOLa3kPFBkQ8URqx5g94AUx+de/CtBQE1WXRrhSDAovFiAphyhs+j9BpyAuM1xLu9RKeIUPASYvh6luZXYyeBwBFSZyToYik6Gi114DmYXMC1GGjjBQWHk8zGKfy+3EsvaPV9nNDRtM3Vr52hkEQbzcy57EwRYKRpLByWvV/FBpJVlSHNwXyho0YXlZdypYobtrUUZZc9e9IfLbG8R0tdi7kbzYNR0Zmst7mxVgaNf/6U/7sGS75Lljp70saR7cr3r3Wqahcu3R92cFzjV5z6Ro6/VylSDBuaC8uoUSrS1rjufbelqskVPwtJECYqP75ngdqZz2pKY5/CvYhBUEYW0VhvC/V9zH2BsJCAoh1nxEWxDS3M3v9xWenI4zU/rzRiLQYTlcJj8EAtYPJYoGytIClppCpGl+kfkmKYo1U8IJC6e2YW94m7kYqeBE8PzY8Gjyowx45qMNG4QBdispdCkSNYztoOoY0PeOPTzFFxACLU/r794aZS1hCvI40SIuoKxGMy5ric+oChQTEZUSGE9PlJQS8nIaUnRLBmEIrS666NwyfLRvgr+R3oeTY5WH0/ZaIDdPdtqJbVr7wwr8dOvyVwi6eFK1496rG8R+V/C5gABpmLCId8CWv+L7d2Jw5uJ8rKRG1gvq3bZ11GtIINNccISWUqIyaJ+NVlkp/8TPcxaTl1AWaKs7CYr72X4cyBGxNM6Oz+xOTbacrTORVTeK+kCXg6lqZtE/dv6WmkKY8+hZ+aAjiMEQpAa+/9rqH/im+5ht+CxI3dmRXtMRZqvDppoghgTrskYM6bBTO0G5oiunqUr52psVh8mcJ2VQza9mXD/E1VS0TEXiRLYqX0ZV16WS0JVT83d5FkRXVFsTxe7E2gpCChvQERYJhI42UUnV/SD5b8+g2yuTp9XO/Geqi0sHPdLetaDcyLzr3TydRbeiquYJodpr8Az/1U3uVL/8i0NLUNGlqxY/HKn442Grt0Gu3o34QEZTC40QzyE+EcAR5MT0uCeYSMWXXpERUrVWWf3kKhxHIqn3BVwX7kEIEjzVUxgsLYonp7xSbyuXG6TgYCPOs5Uc/4AUwekqCBGFsW1cODteoI0+cqCeshuaHDBfFu1fpqprNLl5IC/mc8qbETgZVT84NaSEcAHXYIwf9F47CMSq2HxYpzFE9eyD/6uPPTtWs8tH9YQXFYyZ1nBUS0jAWxIWKBKPUqgevCo5YEBewawnzOURxU6K4aZVsWl79m7dFpwazD1Lu6V2RvMzi41eGupbS37+rH/+R4jGr6PRNpijySRTCpQXsjkUSseF0Vc2mSVMrfjjQ7Ogxwmn15dzrqAXJVf/KiemOIpNdQomqoxa46fRej1xEUFoAK9RCrxm9KeacRZ8oqJX9RIDSULCsl1L9CKKtINjQmZlX/9pa+zbSWkY3QhWlLXb8uIW9vatRXEgBaRUo/AJ/vWFBGe1U+uwnJMcq/3Hys+MU95mNnrOJN3wRUcWGKG46Rf+ghqRNRMn52PIbHd0tCIoZPMoS5pO0d0zW2Q0Ab4tOvS44VtwY2ddghX//JC/fSFfXHvz8mE665sEt6sd/rFnpU3DpPrL2Gl9TofDvn/rr55h5mhKvnaGraBb8fj/9VQZp/9mR22s2VsqLxfDyKVX3ODIbbyhpjFIgGKr1/XAlLqTUSq/hpSQ+R6isuKPfvHykoHe3iuHlkVYxusHSqELlpUP6lOMZbfRaAh512Cg9oA4bhZO0G5pW+hxQ9T0oERP22amaVVukgx7JBPgjIowNFiNgpbLUXXd3A7XoVcERUlMcgmKGhKqkpZvOT5N1duNxopGlv7/I3ZNb96qb+Ul9KLn/bgnWVpOXbxz8tKK5GQZrZso++7fk2OWyvac4rXqwCDQ1yj2+rbt1mZmnqfrJ3UxRQvHpm+mvMkp+uUrxnMUS5GSuqoigtJXy4urWzMTKfzg4LfeooxaUNydpSzv0M0ZCSKmFXs0zSfyPUFlxh4Yu0ip6oaO7lYAfWnYTymcIVZCwNGoHXzrs1s5aAhrDRvk/aJYICochr9gonhCp6nsw1zLo4/bUVFPrmpU+xBu+FI+ZLDySu79VJCwVCUapVf5hxWeNFLwtiAv5vMzIe1QlLVUlLatbMwsbQuPKb2bXvtSVddGRcRHDy8L/A9iDz06WCXyocXwnXUk178bzNquJ3BTeO9gOmlToS6mwQKnQl+wc67KfzzRNmtr5Rbk9zqIuZWNBXJBa7S8trM7/5dJLKFFieDktGcd+xogLKdVTC3gmic8RrK0WqiT1X1sGKeiM1i/3qqIMCfGkqE5FZT6MYXcz6dTOegL6jgLl/6AOG4XzVPrsN1wxRdX3YNmeT8Ki5FU+soH/EW/4Vm3cjZQ2NgJYYWvVFYriRqlV/q/aDlsQF/bzCp7fIIqPI4qPM5SfUlAfklJ1P7s2QEfG2SaRgu2kk5dvGOQkKpdOqJw/Uj/3m7K9p7olpLgq+EukQgOlwl5KhQbiaypaHCZXbdrbNGkqL4NS5sT5FFp5QuU/UiLqsqJaPFt3qNC6mksao/Tk3Pp/CBQXUiihRPFMFZ8jXF4CAB2afOmw0Rj2yMB20hXuXK1dun6QFYR4SXtXIwCgedgo70EdNgrnoekaVfrs1zy4pc3CrtF73vvjnQrEmlVbVC4co3jMoukaIaiQjZqkNTuYHVJ0ykRxhgVxwSjqqi0vpi8vpm+k4F3UEFHUEJat3ma8w0GFnqeMN+v/QoHGOo3jO2Wf3yv/6UT12u28UctGIiZUKjRQKixQuLSgzWpi7bL1TZO82/XH8VLDe6xVlwcXnkis/MdD92e+rXNXQonq6G7R6jdFBAAIeAVqZz2LxcRwp//26EL2yZ0mF69ORRWkhfRCR3eriACvH2jHEgp3rmI7aLXL+LGDaWM7CQDQPGyU96AOG4Ur1C75TjzhnarvoTZLu04l1ffHa77dIvPyP+J13+JfryEo7z14nJit2kpFcaPUqgfkthwL4gIVCQukRQ0BaRENa9UVbgGF+YyMWFdMdsFxFQkLHVnnvjyZeGKU+vEfcdS2/GuPm1y9eSOSkBwjFRYoFRoompdBNbFsmLageZJ3m5kNb1bvUxVe3kZl+duiU4mV//BtN/USSpS2jOOARULYYbO2zlpxoSEXQR9jiGUmK9y/UXjxX6SF9EI3k97FaBcRlEZayGhFoKVJ4e7V2qXref/abTCQmmLUpRD+WEPhK9CABwq3qPTZj6W1q/p+XnC9ZpWP3KNb0m+fI6KqVzSk7KboH5AV0XpT+Ety1b9MFgNpRUNApDBH7+ofBqYbZxqdmqi+rpvZEVFy4UXunpzawE5G28cj5R/4Gayd2UlUzbvxjAf2WiwrReXSCeP5TsaLJ0m/ed7s5JFzOzjrcUzl1gOI22s2qpLjrZSX5NQGFtSHIK2lF8qbE+uphQMGsOH/YbNWei33RfE78vdvtNo5N06Zg7SQXqB3twKAiCA/usNRgcKdq0xhEf4MYANARXOKmiRffLKh8AloDBuFW3Ro6lb67Nf6eUObhV3tkg+tnhu95jbMWEy8dqbJdSoLxy9v54UFJCeor2VnZpPbciyIC4niyGQvDBUlv/ON3nObnTywAPpyk/XlJpc1JRQ3RsRX/JVV+1xbxllHxklSWEX95G6lG+eqNvxUsf0IV/WIFOZIhQVKhQWKx0fS1bSaXL0rtx5oduJMrT2OY6o0m0IrS6z8R1pEXU6Mv6pPFDdGKRAMVSUHLiGPwWDF8HJtnV+7w2YHsItP3UBaSO+wHbYoGsMeFiJFuQp3r1Zt2sNEdKN8X5RSYruZdHUpa6SFoPARqMNG4SJ1C1aKJ7xT9T3YZmnXbvghP7hqw06jJZOJ185UbdyFoLwv0ZJ2YGdmvy44ak6cb0FcgLSiAZCMDJYJfJT9IPzjg+pSNupSNvXUwmLKu/z6N1k1zyxzuyQys6mn/RpmLeGSEqHyEraxlowM7pJXapo0tWalT5OrN0uA3z9krFVXUArLEir/8dDdyz+J+BQaqZQSPUFtzSDHi+MV0Bi2/P0bVDPr+tnLkBbSO22ddYDGsIeFQDNFe8fK+jnLaxd/N/BoJKhoTlKRsMDjkG/XhcI/oFkiKNyl0mc/U1SM+OdvHx+k6ZlUr99JvHZGNDcdKWF9ISooY6+x3lFzU1FD+Mu8/SRKLNKK+kPprws1q3x63TYqJ6Zrq7pyBcV7WkBVtQzr4rZxD8aVlVKiOStAsK5G/sFNve8XmE0xVTl/pFtGrsj3n/TXmSXHLlPcZ/C/vQYAUUFpa5UVtW25iZV81GmvhBI9YJG+jyEIKXzlMWwlvwsK92/UrPJBWkifVLVmKEuYI61iVKK/fm6rnTO337+NhKrWdBVJS6RVoPAXvP79J03AShPwPF4UBUm09LB7d8tu3iS5bB5z3vwPx0/swca9Nr5ztvv2XeTE9YmFlvtkY4vQ/Kdhhb6WXQ4uerM0ZPiuyTb25g1cQ6XIoR/lJXr/N4U7dxa380fm+g1uq86m1CUmlUeEl5wvbgqwVncZr+4ihhcf/tpNFGxAAPZlAPZlAHR3M6dOY1y5xpw6TVxeXhxAbfjzIoMF2IiKfPss428TZXUn3WlIywF6N+15btQELWdb3cHGO2s7iFnVCRZaX+mnK/b2PwK//MS48LvaxuV8++MXkJ/hoO311d6jYSMwxQP0NPDXzskgraQvMqviaV1NU8ZNkBFFby7KB3jtsPECGB6viII8m76HwJcCZ8/AvDnwcVBz7x6Mlxd+xnRYxo9vdRXE5ReNX2ulNuFN3pPzYbsnG8ycbDBLQphvcihbWuDCOdi+HS8j2ctZCgV27QI/P7hwAbtlCx7AjuBkp+VUVJ+TQAp/mXU3NP+xjYarraaLsuRQ+l90dMCLFxAQAAEBUFcH06bBqVMwfTpWTW20vw6bYjyH0k5+lHZdSVLZhDhw6jNXiSe9a2yvm6DlMvgPTEUJpYgi8lf6AVtcDGtWwZEjuC2b+GVjxxeQWyrq26qNiWZf6T0aNosWAaUR3r7hZ+taUJdmQrRSklBEWggKf4E7dOjzUg8oKJxHXR2OHQNRUXD86K23ri5QKHD7NixdCsJ81z6AjayYgo2Gs7SobGxJyLuiVxgMVlNWH2lRAADw66/Q0gJnz/Zy6tEjWL0aqqrg1i1YvPjjMzKi8uOUra01nHBYweTyd6+yH9ZRa4QEhOUJA1V5CwiAc+dgyxa4fh1kZWH1arhwAbZsARsbkOzN4o9CTIhWpY0FCaRwE+XxIwrwj5hHaX46coZOukOo90Lv7ggveDnZYKYAjpNN5kcHBgbg6gpXryKtoz9SKqIrm0pnm39o1IN4AAAgAElEQVSLtJBRxeHD4OcHZWVI6+iP+raaR6k3XfSmqUnzY5MjFARBHTYKT1BXBzodfv8dZs0CuY9amllawrVrQKHA5MnIiRsYNWltGw0XenfHy8x7ueQ0MTxBUUJ14Mu4R1YWrF0LZ8+C7qflL8hk2L0bfvwRli0DPz8w6r2tjyieoKdg4qjtKSMmX1SfE5T9oKg+h8ViKUupf96yJCQELl4EHx+4eBGEhGDpUjh7FnbuhIkTQVaWa18eMmAwGG1Zw6TyyJKGPBsNxLqp59akBmY/mGW2QkFcefBXYTG4t3lPx6s78tFrFt4wcSKQyZDOdzs6PiM49xFRUs1MxRZpIaMEOh3c3CAyEmr5fXfBi8y7AJgFVmuRFoLCd6AOG4VX2NjAw4dQVgYzZ344SCAAgQA//QTu7qA+QFsNZBHE4Q0UzUyUx1c1k55n3Klvq5YVU5QUQcjN7N0LJiaw/dOOjPfuwerVUF8PV6/C5s0DvhbAYnFq0joTtNw0ZfXq22qCsh+klsfQuttlxORFEtPh6lXYvh1OnQIMBubOhZMnYf9+cHICxbH8JlQUTyBKqgVlP2ztaDIhjkdEQ1C2v5CA8Czzb4Z0lbCgSHDuIwNFcyVkn/14SVUV6OhARweQyUhLGYAuRuf9pKtOul6qUlpIaxkNhISAvj5YWEAsX280B4DCuux7SVfmWaz+iv7doQya0Z48iTJ6kJSE3bvh+nV4+fKT46tX9xi40YC6tM7qiTvW2O8kt1adebvrWfrtNnoLr0W8egX+/rBt24cj5eWwbh0sWQKzZkFYGEwb2l49E+L4VRO37/H0ndgqD8dPtFoag709LeQVLFwISUkQHQ0HDoDt1xJ701cwXTR+fVhBQFhBAO9Xp3a2plfGW6kPtoTIx8iKKTa08bvX5BgBAaCiApaWQCIhLWVgCuoyaV1UbTlDpIWMBo4dg8mTYe9eePoUaSkDE5L/zFLN3lx1AtJCUPiRUVBLC2XssHQpBATA6dMwdeonx3fvBmdnuHoV1vNps67PsFJzMFed8Db3yZu8JykV0W4GM510vHi3/KlTsH07mJj0/O+tW3DkCBCJ8Po1eAyrsUt+PgQEqL54oRoSwpjkUjp7up8OK1GyyZjYbSPTYs1iYjFf16P4RK3JjdRa/+Q/5QlEHu96zK5Opna2Dm9ROYJiPfXrcNjHj8O+feDjA+fPIy1lUBTUZmrI6MkTiEgL4W+SkmD/fkhLg7t3YQm3KvdzkKSyyLSK2G1uJ5AWgsKnoFkiKLxFXx9OnABRUbCz+3BQWRkYDLh0CebPBwkJ5MQNASwGqyNvbKZi10xrDMx6UFSfTRCSGFLi7DA5fRqSk+HGDRAQgJwc2L4djhyBLVvAz+/znOwBqayEf/+Fw4fBxwcwGJg6FXx9sT/ulPGYbTl+tqq0Zm1rVVC2f0p5dHtXm7SIrCiewJ0viR/RVzBtoJKjil7zeNdjcO5jaVFZV73pw7i2pCGvgUq20XDmuCo+orgYvvsO/vwTLlyAAweQVjNYnqb/oytnbExE6yX3AZMJp0/Dd9+BsjL88w+fb8thw2Kx7iReGqds7aI3deDRKF8lqMNG4S3sLN7z52HRIhD/yLjY28ODB1BaCt5DqJ+AOAQhCVMVW01ZvZL63KBs/8b2OnmCkrgw13q2ZWTA6tVw8iSYmcG5c7B6NYiKgp8frFwJ2EGHmZua4OFDOHECfHyATAZPT/j9d9i6FSZMAHn596OUJFSt1BzMVGy7mV2xJSEhec8aqLVCAsJyhLGch/0xhkoWmdWJeeQ0nu16pHa2Pky+bq/jObx6NeSWyjxy+lj+fX/lCqxdC3Q63LoFCxcirWawJJAiwgsCFlh9JyXCtwWdEeXxY1i7Fp4+hd274coVUFBAWtCgCMl/llIevdR2k7jQGCmmhMJxUIeNwnMcHeHuXWhrA1fXDwdxOJCXh+3bYcKEIcdikUZBXNlOy40gJJFQFhFe8LKb2aUmrSPIjaJpP/wAJibg5ATr18O1a7BrF9y4AZqag7q2qwuePYMzZ8DHB+LiwNYWjh2Dw4fBweGT6i6fIikibaRkMVFrsoSwdH5tRlC2f3F9DpPFVJJQw2H5tvQwZxDACmjI6IYWvGhoq+HNrse0itgEUvhCq++GFzVvoTdFFwd7GS/guDDkiYmBTZvgyhXYvBlu3AB9/qiYOTgep/npyZs4D6X24tdCRgb89BPs3QuTJ8ONGzBnDtKCBktdW/W/SX846kwZP6wtEyhfCajDRkECHA7OnIElSz4JYxsaQlUVPHkCq1Yhp2z4aMrqjVdz6GZ0vc59lFEZj8Xi1GR0MMC57hJ//w2XL4O5OWzeDLq64Oc32E49QUFw4QL4+MD9+6CvDz/+CBcvwpQpgy/eIojDa8rq2Wu7a8jo1lPJQdn+yeXvqPRWSREZgtDoyOoZHuLCkgriyg9TrovixbRkDbi93EhSRACgm9kVXvDSSXeKkIAIZ4UhSXs7HDkCq1eDhQXcuAGLF4PgaCr4nV2d/DLr/qLx66VF+3yO/Rrp6IBff4W1a4HFggsXYO/ej1+g8T+34s6L4SWWWG/82vaooAwJ1GGjIIGVFTx8CC0tn4SxAcDYGM6cge7uTxrTjB6EBUWMiZYGimbk1sq3eU8zqhJYLJaatDYGM2KfTSbDwoWAx0NcHBw9CleugNpAzaFDQ+HSJdi6Fc6fBzk5WLMGLl6E5cvByGgIKSWfoiCubKk60UrNHoPBJpdHBWU/rG+rwQvgx/AWLgVxZXFhSf/kP1WltbhakGuEKSIAgMcJvc75z0J14tgxcw8fwurVkJ8Pv/0Ghw4BcfT9mD3PvKMqpTVJfwbSQviJe/d60kJ27oSbN8HUFGlBQ+NRql9pQ/4ah53I9qVC4X9Qh42CEIKCcOrU52FsGRkQEIBjx2DatNFbd1lGTN5a3UlTVq+eSn6b9yS9Mo7JYqpKaw0/2kEigZcXFBWBszP4+Q2QgRoVBVeuwI4dcOoUCAjAokVw4QJs3QrW1kDgzFZFcWFJfQVTZ10vRXHlsqbi5xl3CuoyGcxuRQkVAewYLE+kIaPXxaC/zvnPQMFMgmsV0EeYIgIAAjjB8IIALTlDFSkNzmpDgIQE2L8fjh2D1avhxg2wHJV7BEsb8h+m3FhgtVZWbLR+mnGYhw/hxx/h11/B1RVu3oSFCwE3ypLNoopeP8u4/b3zfqIkXzdwQOEHMCwWC2kNKF8rzs4weTIcPPj5cU9PkJeHO3eQ0MRhcmtSo4qDk8ujlCU1HHQ8HLQ9BXH4oU3xxx9w8CDU1cF338G1a30Oy8yE//6DgABISAALC5g+HWbM4E0R64qmkuTyqOSyKCaLYa3hbKPuPCZ/99yIPt1Ea9jotI9LNVX+ivVt72z93nlE9TFOBu8wV5kwulOxo6Lgxg3w84N162DDhlHqrdncT7raRm9ZY78TaSF8wK1bcPMmhIfDokWwciV48bC8KecorMvyDfl5neMecxW7gUejfPWgKUQoyMHerldV9fnxXbvg7t2x4bANlSzW2O/cOumYipSmf/L1k693hOY/7+ymD+riyEiYNg2+/x4AYOHC3u11Zyf8+y/MmwempvD33+DgAG/eQEoKHD3Ksx4xqlJaM02X7/O+MH3c0qom0vGgrX/F+mZWJfJmdZ6xaPx6JpNxP6nvh5wRQO1sza5ONh7xfkpZMcWG0VsSOywMli8HR0cQFITERLh6dVTb69rWqtjSEHttd6SFIEpnJ1y5Ara28N13YGAA0dFw794otdetHU2+IT8vtFqH2muUQYLGsFEQxc0NXFx6CWNv3w6vX0NEBMiMnfpWRfU50cXBsSUhihIqDtqeDtqewoJ97EijUODkSTh5EmxtQUsLYmIgMvLzjYlJSfDwITx8CKWlMGcOzJkDc+eCkBAPvpD+KWssTC6PSiyLlBNTtNF0sdVwHXLYnl8payy8HHnMXmvyTLMVnJ05gRT+V6zvoWl/jDCj/XHa32WNhVsnHeWUMB7x+jVcvw7+/rBuHaxbB+OR6VfPWZ5n3KlqLlvvuAdpIQhBocDNm+DnB7W1sHIlrFwJxsZIaxoRPz35xkjRfNXEHUgLQRk1oA4bBVEePIBt2yAhAZQ/7dVCJoOTE8yeDadOIaSMW5Q25EcVB0cXByuIKztoezjoeIoIin0y4vZt+PVXqK6GH3+ESZPAzQ3OnOmJZAMAjQYPHsCDB/DyJdjZwdy5MGcO6Onx/gvpn/ZOagIpLJ4U3t7ZZqPhYqvhIkdQQloUB0ipiL4edWqJ9UZHnSkcnJYjKSIAEFkYFJz7+Mj0qxxRxQtevIDr1+Hp07HkrQGgtKHgYtiBlRO3myrbIK2F55SUwO3bcPMmCArCypXw7begooK0ppHy29s9lPa6YzOuIy0EZTSBOmwUpPH0BAeHXsLYN27A2rUQGvp5vZExQTmliO2zpUXlHbQ9HXQ8xfAESE2Fkyfh3j1YvRp27gRDQ5g7Fzo64OVLAIDkZHjwAPz9gUqF+fNhzpxR0fkstSImvjQsl5xmo+Fiq+mqI2eEtKKR8jbv6ZO0vzc67zdW4kwOA62r/eCL9VPHLXbVmzbCqbKrky9FHLm06AlHhHGR8vKeB8WsLFi2bCx5awBgsVgXww+qS+vMNv8WaS08hMWCR496/piZwTffwMqVICY28IV8z4EX61s6KOfmP0BaCMooA3XYKEjz6BFs2dJLGBsA5s4FKhVevUJCFi+oaiZFFQVHFweLC0s6lOEdjt0l6JvBjz/C9OkAANeuwfr18PYtVFeDvz88fQoeHjB/PsybB7KySGsfGsX1uQmk8HhSuJ7COFsNFys1B6QVjYgHyX9mVSd977xfUZwDwbnMqsQ/Io/t976oJDFQBcaBILdWHnm56cj0q/xbvCI4uMdbGxvD/Pkwfz5ojP7KJ5/yJP1WcX3uVtcjuLFYWqcXkpJ6jHVrK8yePVoe/gdDG73laOAWHBZ3YuZNpLWgjD5Qh43CB0ydCnZ2vYSx4+LAyQlOn4atW5GQxSNqntyKjrkdZSwkKijmYDHXQdtTXFgKyspgwgTQ1ISGBqDTe7zIhAlIix0RDdTaBFJ4fGmYsKCIjYaLjYYzYdQ2HL4SebyTQd/otH/kzTufpN/Krk7eO+XcyFV1M7u3+s/fOumovgKf1RiuqfkQtGb/ME/hZJoN/5BSEX0z+oyP6xE9hXFIa+EyDQ09xjooCObM6fHW4mOnRHRpQ/750P2yBIV9XheR1oIyKkEdNgof8OwZbNwIKSmgoPD5qQMH4No1iIzkw1RjDpCUBL6+cOcObNpUt2VVND0rqjhYEIt3oCk7/PJAMi0fvLxgyRKYPx9ERZHWyjG6md3xpWHxpDByS6WNhrONhouatDbSooYMpb3+csRRHTmjxdYbRjjVb293q0hpLh4/0nnY/Pxs9bRxS/mohEVY2OdB6y/fVo0VGql1F8IP2Gu5exrNQ1oLNwkO7vHWmpo9xtrQEGlNHCaBFPFX7FkdOaPtk39BWgvKaAV12Cj8gYsLLFgAmzd/fpxKBScnsLKC62NriwmZDL6+4OsLnp6wfTtMmgQAUFjY+MAvqioy2kKcxWTagqbtgp9UpbWQ1sotMqsS40lhSWXvrNQcbTSczVR4VF6QU+SS034PO7Rw/DpnXe9hT9JMa9z7bPW3E7bZarhwRNXZt3v0FMbNMF3GkdmGT3Q0BAXBq1dQUtJjrN3cEJbEffxiz9K7aBucfkZaCHcID4fgYAgOhsrKMZYN8hmRhYH3kq6aKtuM2VuJwhO+jiwxFP5n3jx48KAXhy0mBjt2wPLlsHAheHoioYwLXLwIvr4gLg7XrsG33wIAhIXBnTtw546Mt/eMRZud/S7HTlRMsBF4+3qbtbqzraaLyYgrJfMh45StxylbuxvMjiOF/RN/QUlClZ068nlxFX7FUNF8rsXKR6l+ypIauvLDrESWV5sOAPqcyyiQJSBaEjs8HF69gqAgyMuDadNg0yaYNm3UbRsYHiF5z3JrUn1cjyAthKNQqfDmDQQHw5s30NgIXl7g4wMzZ46lbJDPeJP75HHaX3aak76xG8vZiSg8AI1ho/AHlZVgbAwPH4KHRy9n58yBjg4IDOS5LE7z6BH4+kJGBmzfDjt2gJgY21hDXBwsWwbLloGdHZw+DWfOQHg400AvvjQ8nhSeR05jbxC01XAVGHHWL39Caa9np47Qu+l2mq62mq4c2UTIA/6Jv1DdXL7Z5ZAofjgPBncTL1c2le5051hVyheZ/+aR03ZM/pVTEw6Kt297ItaZmTB9OkybBtOmgaoqTzUgSlF9zoXQAwus1nK2jCNiVFZ+MNZYLHh5wZQp4OUFkqN148QgCci89zLr3iT96fMt1yKtBWXUgzpsFL5h9WrAYnvPBnn3Dpyc4OZNWLWK57I4RFwcnDsH9+7BmjWwfTtISvZ4a4Aeb80uGZuTA05OsH//x5s7c2pS40lhCaXh8uJEWw1XW00X/q0UMTIYzO640rC40lBSY4Gd5iQ7TVdtvq/uR+1s/T3skKq01jKbL97ADIKjgZuNiVbzLFZzSk9sydun6bd/meXHqQn7g+2qg4IgNxfc3XuM9ZjcMtEv1c3lN2JOqUvrjvqoZ1bWB2OtoPDBWI+Jonv9U9NS/iTtVkZVwlSTxdPGLUZaDspYAHXYKHxDQAAsWQKZmZ83L2Tzww8QEgIxMaPvs76ysiflevJk2L4dpKV7vLWdXY+3/piVK4FM7jVaX9VMii8NTyCF0bpotpoulqr2BopmPPoSeE56ZXxcaWhqRYyF6kQ7zUl8nqJdUJv5e/ih2ebfTtKfMaQL69pqDgVs2Oi0b5yyNQfFnAvdd36BvwCWO687qqogJARCQyE0FEpKwMEBpk2D6dPBlM+ql/CKurbqq+9OSIvIbXTeh8XgkJYzdBgMiIiAiAgIDoaoKNDS+mCs+aBHLG+IJ4U9SbslLiQ502yFCdEKaTkoYwTUYaPwE1ZWsGQJ7NzZy6myMrC3hw0bYN8+nssaAWxvLSIC27cDkQh//w2BgT3G+stOOg8fwoIFEBEBTk59zUelt8aTwhJIEaTGAi1ZAwvViRaqE8ZGu8QvKa7PYYe0NWT07DQnTdSajMFgkBbVO2EFAf+l3NzscnBIjz1RRa/vJV31nXePg8k/5JaKI4GbD0+7wuGfisTED8YagwFXV3BxATc3sOXrhx9uQ6W3+obuFRIQ8XE9IiQgjLScoZCXB+HhEBEB4eFQUQFGRuDu3mOscaPwOWG4dDO7n6bdCsl/5qgzZabZcjH8mM0vR+E9qMNG4SeOH4cnTyAhofezvr5w7BjExIC+Pm9lDQt/f/D1hZQU2L4dNDXB3x9ycmDtWli2DHR1exnf0QFOTuDpCcePD2b6nJrUtIrY1IoYWle7heoEttXGYLAc/ir4AHJrZXxpWGxpCAEvMVHb3V7LHS/Aj6G1u4mXSY2FW1wODr7I982YMy00yg9ug7rjg6S9k7rz8bIf3I7ryZuMdK7aWoiMhMhICA2F9HQwNOwx1q6uoDQ2H+qGBIvFOv7Kh8Fk7Jj8K0FIAmk5g6ClpcdSR0RAfDzIyoKTEzg7g5MTWHPsLcoooqQh70nardrWyplmKyZqjc26KCgIgjpsFH4iNxeMjeHJE5g5s/cBDg5gZgZ//MFbWUMkJgZ8fcHfH5YuBT09ePMGqqpg7VpYswYU+86fPnwYnj2DiIghpcFQ6a2pFTGpFbHZNcmK4ioWqhPMVSdqyPTm4Ec5bfSW2NKQuJIQBpNhr+0+Udud36JNHV2038MPKYgrDz4Zd8/Tlc66U71NFnJWyVb/Bcttt9hoOA/z+rdvITQUoqIgKgrweHBy6nHVo7zhEcc5FrSlraNll+dv0qJySGvpl+TkD+FqCgUcHD4YawIBaXGIEV7w8mn6LQNFs5mmy4mSvaUmoqCMDNRho/AZCxaAkBDcvt372UePYN48CAnpKSDNb1RUwNmz4OsLNjZgZgbJyUClwpo1sHYtyMj0d2FiIjg5we3bMG+YjSrKKEVsq01uqTBSsmRHtUdHXG0oMFmM2JKQ2JIQCq3eXsvdXttDUqTfbyxvKa7P+T388PRxS90M+nhE/IiqZtLxoK0/up/UkjXgrIz9z79z1vP2MJw7hGtycuDVK3jzBqKioKkJJkwAFxdwdAQHB5CW5qy8scGxoC21rdX7vS/KE4hIa+mNigqIiuox1llZoKfXY6mdnUFrzJbYHySt9OanabdiSt7OMF3mZbwAaTkoYxbUYaPwGffuwYoVkJkJBn3YjqVLoa0Nnj3jraxB4OsLZ89CezvY2UFxMQgI9MStB1M4dsECkJaGa9dGKIEFrNSK2LSKmNSKWCEBYTMVWzNlW1P+3iY4PFLKo2NLQ8oaixx0PBy0PfkniBhWEPAk7W8f1yPacgN0uQvNf/484+7Zef9yXMPpNzs1ZfQXWH03wLiMDIiKguhoCAuD8nJQVwdPT3B3BweHr6rQ3jA4FrSlurn8Z6/zypIaSGv5iJYWePsWoqMhJgaio0FC4oOrtrNDWhy/kEiKeJ37SAArONNsuaGiOdJyUMYyqMNG4TO6usDYGL75Bvbv731AYiI4OMD167BiBW+V9Q075TomBsaPh6oqUFTsiVsLD27n099/w/79EBEBmpqcUtRAJadVxmdUxufXZihJqJqp2Jqp2HE8Voo4aZVxkYWB5ZRiB21PBx0PPili6BfzW3MHxcf1CLbftPi/Ys92cKf/39V3JzAY7DqH3Z+f6OiA6OgeVx0VBa2toKgIjo7g7AyenmOv8TWX+O3t7uL63J88zvBLOlZICLx502Osu7pg8mSYOBHs7cHeHiTG2luskUBqLHiT+yS5PMrDcI6X8UJhQRGkFaGMcVCHjcJ/7N4NL15AZmafA/bsgdevIT4e+T3vCQnw229w/z7o6EBLCxCJsGkTrFkzBGENDeDkBD4+sGEDNwSWUYoyKuMzqhLKKcW68sZmKnZmKrZ8+l57uCSVvYssCqpsKmX7bMS/uvq2mvNhB6zVHWeZfdPPsCOBm8arOXGj8u7dxMsVlJKfPE4DAJSXf7DUyckAAAYG4OjYkwHy9dWuHglMFuN40A81LeXb3U7oDLeLJ2dISoK3b3uyetrbwcYG3N3B3h4mTvxKOmgOifbOtje5j9/kPTEhjvcwnMP/VfZRxgaow0bhP+LiYMIEePMGJvexubu6GmxsYNcu2LKFt8o+oqEBfvsNzpwBAgFwOBAVhc2bYcuWwcat37NnD2Rnw9On3FH5gTxyenpVfEZlAqW9ju2zzVRsR0t/8sEQVxoaWRhU3VLuoO3hoOOJbEvIeFL437G+6xz3mKv0/na+s5u+7b9FG5x+NlW24fjqL4JORTcmnngCEBMDFRUAABMmgINDj7GW45eMmtFFVXPZr6+3YwAOT78qJcJzF0smQ3w8xMVBXBzEx0NLC+jrw+TJPVk9/Wyh/uqJLn7zNu8Ji8XyMJozUcsdaTkoXxGow0bhS0xNYebM/urWHTsGd+5AfPygspw5zvXrcPo05OeDjAx0doKPD2zZMpz6ZcnJYG8PQUG91MbmDt3MbnZIO6MqXgAryLbaxkQrDPBpnemhElUcHFkYSG6tctD2cND2QLBEwP2kq/m1mT6uRyRFetkpWFSXfTZk74mZNzmzU7OiAmJiICYGYmMhJibCU+v+arPf/+rAODj2uGoBAQ6s8hWTUh59PfqUoaL5JpcDPGor09XVY6nZf5eWAgBYW8OECWBnB87OvXfmQvmIgrqsN7mPM6sSPQzneBjOERtzO79R+BzUYaPwJT/8ALGxEBvb54D6erC1hfXrYdcuHsoCCAmBM2cgMBAkJKClBb7/HjZvBqPhvnNcsQIkJODSJY5KHBStHc0ZVfHplQkZVfFyBCVjJStjoqWxkhUOi3TizYhhsZgRhUGRRUF1bdUO2p4O2h4qUhxLcB887Z1t58MOqElpLbft5U1LaP6L4NxHJ2beHP4C//fTHwLVSkrg5ASOjqkWsn9W+x+d8aeMqPzw50f5P0HZ/s8z7ngazZtlxuW9Hzk5Hyw1O6VHTa3HUk+YABMmIJ8XN0poojW8yX0Smv/cTMUWTQtBQQrUYaPwJc+ewaxZkJEB48b1OebUKbh0CeLjefSGtKYGTpyAixdBRARoNFi6FDZvhokThz/hs2ewdi3ExICODudUDpm6turs6pTsmuTs6hQpUVljJUtjopWxkqUgDo+gqpHTxeiMKAyMLAxqoNay642oSWvzWENmddIfEUeXWG901Jny2albcefbO9uGts2xuLgnSSA2FuLieg7q67NdNTg6vu9kVFyf89vbPTsm/zpgPROU/mntaH6UejOeFD7fcs0k/RmcX6C+/sMNjYuDlhbA4z/4aTs7UEEy2WmUEl7w8k3eE0GsIJoWgoIsqMNG4UuoVNDWhr17YWvfzTtaWsDGBhYvhsOHua7Hzw8OH4aqKujqgkmTYOdO8PYe6ZyTJsGUKbD7i4IPCNFArWX77OyaZAJegh3SNiZajbJe0J9C66JGFAZFFgZS2hucdb3cDGbyeB/k84w7kUVBPq5HVKU+KUJ8PGirherEAbY5trb2GC+2CaurAwAQF4fx42H8eLC3B0dHUFD48rq6tppDARvW2O+0UnPg5BfzlZFHTn+U6tfa0TTXcrW1uhPH5mWHqNmuuqgIAMDYGGxtwdYW7OzAyopjC319vCt6HVX0qoxShKaFoPADqMNG4VeWLgUqdYAtgL6+cOIExMdzsYdCSgr88gv4+4OoKBAIsG8fZ7ZXXr4MN25AdDQI8V0DcEp7fU5NSnZ1cnZNipCAMDukbUy0Gr3bIls7miIKg8IKXmAx2En6M9z0Z/Ky77pvyM/iwpJr7X96f4TB7Pbxn9/7Nse0tA+uOisL4CNLzf6jrz/givTuju3/LZ5nsXowjW9QertQDIYAACAASURBVCU0//mjVD9jJavZ5t+MNJu/pOSTlw8sFhCJPX6abawR2UwytnjvrR11PB10pqhLI/liEAWFDeqwUfiV69fhhx+guLjXKF0PNBrY2IC3N5w+zRUNv/wCR4+CqCg0NMCGDbBrF2dKVtfVwcSJcOgQLF/Ogdm4RksH5f8JJMk4rICxkqWRkqWhkrmE8Khs8lfbWh1W8CK8IEBFStNNf8YErT4q1XCaXHLaxbCDy2w22Wt7sI+UNOSfefNTzzZHEgni4yEhARISIC4OaLRhWOov2fbfIhfdabPN+ysXiNIrtC7qo1S/6OI33sYLp5suHc4UOTmQng7p6ZCWBgkJUFsLwsIf/LSdHaipcVr11wvqrVH4FtRho/ArJSWgrQ1378KSJf0N+/132LUL4uPBxISTq4eFwaFDkJoKVCo4OMCuXRxIC3kPryr0cYo2egs7pJ1Tk9LJoBsqWhgpmRsqWiiIKyMtbciUNOSHFbxIJEUYE63c9GcYKVnyYNEnabeSy99tczshLSoH9fURUX8FtcWd+Jf2wX7Z2ICNDVhbD9tSf8aBF+sMFM2X2Wwa+VRfFUV12Y9S/dq7qLPNvjFXnTCoaygUSEv7YKnT06GzEwgEMDMDMzMYPx5sbcHMjMvCv0ZQb43C56AOG4WPcXcHLS3488/+xnR3g40N2NtzsiLH4cNw6BAoKACDAXv2wI4dHJsZEKjQx0FoXe25Nak5NSk5NamN7XX6CqZGShaGiubqfNLcbtBkVieG5Qfk1KTYa7tP0p+pzNWifjQaPT7Kt/wvjQrakmspUFJyZ71Fq5rChnKtHmPNBft1KnintKjsd1+2dUTpm8jCwEepf5mq2Mw2+1ZGrO8yLB+HqNPTobwcAEBHB8zMwNy8x1gjun15bEProsaVhsWVhKDeGoXPQR02Ch9z4gRcvw7FxQMMu3oVNmyA9HQwNR3pimFhcPAgpKZCSwusWQO7dnG+6R1yFfo4CIPFyK1JzalJzalJqWmpUJfRNVQ0N1Ky0FcY8S3gIXGloWEFAeSWCjeDmW76M0XxBM7My2BASgokJvbkfmRkAEDarPHXlqiuazI1N5v6a8sDUxU7bnRzfM8fkcfoXbQf3PquKI/yEXVt1YFZD+JKQ2ebf+NhOPeTc01NkJbWY6a/DFG/t9QEDv3woPRNXVt1XGloXGlYG73ZTnOSvbYH6q1R+BnUYaPwMQM2d2TT0QHm5jB3Lvzyy4iWO3kSdu8GBQWQkIDTp2H27BHN1iv8UaGPsxTUZubUpOaQU8saCxXEld/nkPByN+GwYbKYYQUvwvIDcFgBN/0ZTrpew5mFQoHUVEhJgdRUSE1lW2pQUekJUdvYgK0tSEreT7pa2ljwg9ux7Q8Xc6mb43tux18kNRb+7HWee0uMGSILgwKzHxAl1LxNFurKm0B+fo+ZZvtpEgkAQFsbzM3REDVSlNTnxpHC4kpDCUKSdpqudpqTeFwUCAVlGKAOG4W/GbC5I5vDh+HmTUhPB0nJ4axSUgK7d8Pz50Cnw7ffwvHjQOTOxzefVejjLKTGgpya1Jya1MK6LAlhaUMlc0NFc0NFc860LeQmrfTmsPwXYQUB6tI6bvozTFVsB7iAROox02xXzTZhCgpgbd2TS21tDcqfJ6k3d1DOhfysK28cXfyGY90c++BJ2q14UtiIOtp8BVQ2lQam3ckip3pTNT1jW3qMNY0GIiI9Zvq9q0bLfSBEemV8fGloSkWMuoyuneYkO03X0VvUCOVrA3XYKPzNDz9AfDxERw8wLD8fzM3h7FnYuHHIS/z3H2zbBh0d0NkJJ0/C+vXDUzowV67An3/yZ4U+zlLdXJZDTs2pSc0jp2EAa6hoZqBobqBohkhvxcFT01IRVvAisjDIRW+ql/FCCWGpD+cyMj6x1BQKAICs7Ac/bW09mAIRcaVht+LOiQiKnpl7l2tfBwDA27wnzzLunJ/vz9VVRiW5uZCZCVlZbztSAw279bLqvP/LU2dIfuKnObHZFGUkdDE6E0gRcaWhhXVZJkQrW81JnCxJjoLCE1CHjcLf3LsHy5dDZeXAjRvXrIH8fIiMHNr8e/fCL7+AmBi4usLx42BuPmylA0Clgp0d+PjAunXcWoL/oLTX55HTc8lpeeT0lg6Kpqy+oaK5gaIZP6drZ1YlBGb701oavJpVbWNrIDkZUlKAwQAAkJL64KfHjx9eFfajgZtb6c2nZv/DYd2fElcaeivuvO+8+6MiV4eLFBez/fSHvxmMElNi4FJzkoqIN13XVW8amJuDlNTAU6HwhJqWisSyiERSZF1btZ3mJFtNV0NFrn0so6BwEwGkBaCg9IutLTAYEBsLs2YNMHLJEvDwgIAAmDZtUDOnpsKOHZCQAACwaxfs3z9Sqf1z6RIIC39V9hoApEXlJmi5TdBy62TQ88jpeeS0tMq4oGx/eQLRQNGM7bY5tr9whCQlsf+MS0oyTE8JnGvw9xz9XFGyt4qEvMsPPa5alwMlU8SFpWpaKpLLo7jacFFcSBIAqJ2tX5fDrqj43E/TaIDDwbhxYGICixbBkSOBMlWB1W8sVSduM1moJIHWpeYjsqqTEssiE0kR0qLy1hpO1upOypIaSItCQRk+aAwbhe8xM4MZMwZOxQYADw9QUIA7dwYeefMmbN8OAKCuDr/9Bh4eIxXZP9XVYGcH+/Z9bQ67V4rrc9luu6AuSxRPeG+1eb116f+WuucPG01NsLAACwswNy/QJgQ2Rta0lHsbLxzmDsjeOPHqBzxOCAB+dD/JqTm/pIxSdPL1jj1TfD/r1j6mIJM/MdNZWdDcDABgZAQmJj2uetw4MDRkD8+oSgjOeUShNXgbL7TXdkdSOcpHtHe2sY11UX2OvoKptYaztbqTkIAw0rpQUEYK6rBR+J41a6CsDIKDBx558yasWTNA2T4WCzZvhsuXQUgIli0DX1+QkOCg2N7Ztw+CgiAxkesLjSpqWytzyel55LRccnpHV7u+ginbbWvKcicLtldL/X8/3fMfX2QLBOc8Csx+YKRk4WW8UE1ae+QqtvovmGu56kXGHW/jRdzrak5pr9/3fK2P6xEDxbHS66SuDrKyIDu75+/MTKivBwDQ0ekx0+9dNQ73+aVt1cE5j6KKg130pnoYzpUWlUNAP8oXlFOKEssiE0mR1M5WtrFGE0JQxhKow0bhe65ehZ9+6olO9c+AZfvodFi6FN69g9paOHoU9u3jrNLeycsDOzs4dQoNYPcFld7KztXOI6fVU8nKkhoGimYGiqYGCmb4YYey2tp69iampUFKSo+llpL63FIPgnJKUWDWgzxyupfJQg/DOcPUAwAADdTaAy/W7fe+mFQWFVPyZsfkX7nk9roZXVsf/o+9845r+tz++CeTJIS995KwZG9EwYFVK9Zda1ttrau3rR3qbe2yvfZ23Kp31N7W1t+12tq6B24FB8oQZO+w95YdZpLfH6GACLISQuB5v/Li9c3zfZ7znOSF+MnJec5ZtdHvr64mfrKwL3P66em0NFRXA4ClJezsYG/fK6lZQ/yGhGVduJl5zlDNNMh22fi08CQ8HaGoK7EkOqE4IqEkykDVxMNsprvpLB2uvrz9IhCkDFHYhAlPZibs7BARAb9haIXPP8exY+DzB7jV1IS1axEVhdpa/PorXnpJ6p4OzLZtiIwkAexhwq9K4VelZlel5FSnq7DUbHSdbPScbPSctJSHOupaUtIrqRMTkZMDPJb1ARcXmI++mEl4ztWraScN1Uy7qyaPioyKhAN3P/9u9dm2zta9oX91MHRf4bJh1C49ne1n1y5zXu9v9YyM7EuT8nJkZCAjA+npj+lpHg/29rC371bV9vZD6um+pJXH38w8W9VUGmS7fDYvWFbOE4ZNfm1WYkl0UklUdXPFdEMPD9OZHqYzKRSqvP0iEGQCUdgERcDUFNu2YceOoWdGR8PXFzdvYt7jeZa1tVi6FCkpaGjAvXvw95eRp/2JjYW3N378kQSwR0p1czm/KpVflZJdldLQWmelYz9N295Kx85Kx55FZwNAamqvnk5M7M4ZGCrrYyxUNZVdTT8ZU3BnhcuG0SV4SLrbfPbsDwDCc66eiDv40YJ/y+g412eXt/paznvGbqUsjI+J/PxuPd2jquvrQaH0F9P29k/mewyT2paqm5ln7+Vc87d6Jsh2mTaJj8qV+tZHSSVRiSXR/KoUQzVTZ2NfF2OfyXxCgEAAQBQ2QTFYtQpCIc6eHdZkT08EBuLbb3tHKiowYwbKy8FiISUFRkYycnMAXnkFqakkgD0WukSd/KrU3NLE3OL4nPYSdiesilqnxeRPS6s2rxGPIutjjNzJvnw6/pCv5bwVrhu6tf6wORH30yNB1eszPwbQJer88to7LsY+S5xeloWfe0Pft9S2W+7yiiyMj4C+Slpy0dYGBqNXRksktZ2dtDa8k335ZsZZba5ekO3y6YYe0jJLGAXJpTFJpdGJJdEAXIx9nI18nIZs50QgTBZItT6CIjBrFr78criTn3kGFy/2KuyiIvB46OzE9OlISpKRgwMTFoYjR3Dw4LhuOmkoK5MEp+kJCfaJifY5OQDqna1zAh1ybY1j1hqcE9eZaFjZ6bvY6buMZ4HtQOtndVUMT8cf+v7u5ytcNozoXGZVU6mhenfEmk5leJrNiswPm2+3ksUYmVIfDiosNUFHk9TNPo2iIvD5yM5Gdnb3hSRfi83uFtOrV3eLaWtrWeyfXhEflnmhpD4/yHb5PNulstiCMBxK6vMl2SBlDUU8Xcclji86G/uqT/jergSCdCExbIIikJQEFxfk5MDKaujJ9+9j5szuVJCcHFhbg8GAuzuiomTv6OMsX46iIhLAHi6Zmd35HpLWiVVVAHqD009kfRTU8tPK49Mr4gtq+Xqqxnb6Lja6Tjw9x5HGlUdHTUvl6fhDOdXpK1w3+FrMHeaqjy9uXGC/qic3uqa54u/X31nh8qossqWPxX7f3N6wxf9DqVsGgMrKXhndc9HWBgDq6rCz641M29uPJf19mJTU59/mX4zOv+VnGTTPdqmeyjh+T0X4k/rW2pTS2JSy2LTyOB2uviQbxELLRt5+EQjygcSwCYqAszM4HCQkDEth+/vD2RnXrwPAzJlQU4OxsRzk9e3bOHeOBLAHpbOztwm55NHaCi4XLi5wdcXq1d2SmjroKShzLZ65Fu/Z6Wt6pPYd/iVlJVUbXUeerqONnrOuigwLbGsr622d+dHZxMO/xXxX0VC8bBjJGF2izjpBTV/xp83V9zSbFVsYLguFraKkVtlYIgVD7e3IzOx+9ESme2r76OnB3h4zZ2Lz5m49bTCudc0b2+pv80Nu8y/a6Dm/Ffg5Kfc2/rR3taWUxaaUxqSUxTJpSnb6rht8d7gY+9CoRGAQpjTkHwBBQbC1RVbWcCcvWICQEHzxBUxMoKqK1FRZejYIJ05g2jSsWyeHrScmbW2IjUVsLOLjkZiItDQAMDSEiwtmz8Z778HFZXRNE3ukdnlDMb8qhV+VHJLyqyDuRzt9V3t9V3sDV9m17lvu8qquiuGp+EPljcUrXDc8PXTa0PoIgDpHq++gl1nAP299lF4eb2/gJl3fuCy1lo7mES+rqUFmJjIyelV1Xl7vXTMz2Nlhw4bu+LSdHTTl+dX/bf7F2/yLykqqaz3f9DILkKMnUxCxWJxeEZ9SFptSGkuhUOz0XV/22man7yqLlCcCQREhCpugINjYIDNzuJPnzME330BfX27yurQUJ07grbdGVFxsEpKQgJiYbmGdnAwA1tZwd8fLL3fHqnV1pbibgZqJgZpJgPUiQUdzekV8ennCjcyzZxL/x9N1tDdws9d3NVKXfrqCv9UzEpF94O7nK1w2uBj7DDazvvURALXHs1Gn6Tg4GLg/LAqXusJWUVJtGTIPOy+vV0lLVLWkJAsAfX1YWyMwEJs2wdq6+8GeKOIpruj+bf7Futaa2bzgObxgKmWUVUcII6VT2JFRkZBekZBRkQBQHAzc1nhstdd3JRFrAqEf5J8EQUGwtcXFi8OdvG0b6HSIRLh7V5Y+Dc6JE2hqwpo18tldjvD5iI3tVdVdXTA0hKcnVq/G3r3w9JRu+bzB4DC5HqazPExntXW1ZpQnSBJIzicdmaZjb6fvam/gZqoxjHSjYcPTdXxj1qenEg79HPH18+6bZ01bNOC0htZaDpMraZneF0+zgKMP/j3fbqW+qrEUvVJRevykY2dndymPviHq9nYA0NHpFtALFnRfTJsGFRUpOiNFsqtSb/MvppQ9nMMLns0L7vedAEFGtHUKJKo6vTxBKO5yNPRc7rLB0dCTSqpZEwiDQE46EhSEkyexcSMaG4eeuXAhIiLAZMLCArGxsvdsILy9YW2N336Tz+7jSWlpt5iWCOuGBqiqwssLnp7dD2NpqsZR0ynsSK9IkKjt2pYqCy0bO31XNxM/AzVTKe7y+8P/RuTeWGi/erHj2ifv3soKicoP+2jBv5+89eX1d5yMvBZPH2DVKGloKEy69Y/yI/9MmMZM5yMjo7sFj4pKdymPvo9x+dgzdiobS27zL93LveZlFjCbF2yqOZqcIsKIaOloSi+PTy+PT69I6Ohqn27o4Wjo6WjkyWYoy9s1AmGiQ2LYBAXBxgZNTSgtHaKa9RtvIDQUBgbYvRsbNyI1FdOnj5eLf3LpEmJi8Omn473v+CAQ4MEDxMQgJgYPHqC0FDRat5hetw6enrCZiKUDGDSms5G3s5G3SCySyIUHBbeupB13MfZ1NfFzM/GTSprBWo+/cJjcq+knG9vq13r+pd/dhtZHgwVcPc0C7uden2+34skI97AoK+uOTPdEqcvK2AZc/HNua2oC09QG8+Z1p01PjA88I6WtUxCWFXKbf9FMc9rrMz8mVa5ljURYp5XHp5fHt3Q0ORi4L57+wnRDTw2OtrxdIxAUBhLDJigI7e1gsRAairmDV0bbuxc7dwLA8eN4/nnY2mLzZrz33rj52M3LLyMvDxER472v7EhM7NbTMTHdee329vDygpcXvL3hJuUE4vGhQ9ieUByZUByZUharq2LoauLnauxnomE5dss3M8+eTzrqaOi5deZHfccPR+1j0pVe9HzzySX1rY++vPb2Uud1fpZBQ2+Qm/tYT8SMjO7KHhYW3TLazg62to1WhrvuvvvJwgPSTT4ZfyLzQm/xL1BAmc0LHtb7QxgtTwhrN3sDdwcDNx3uuNaHIRAmBySGTVAQlJRgYYGsrEEVdkgIdu6EmRlWrMDzzwPAggW4fn28FTafjxMnsH//uG4qdQoLHwtUd3TAwABeXli7tltYT9Qk3eHDpCl5m8/2Np9dXJeXUBKZUBx5Pf20o6Gnq4mfq4nfKGPJAIAg2+W6XMOfIr7+x82dfw3q7S1a3/qIpzvwNyrqbE1Ps4CHRff6K0ixuH9DxIwMtLeDRoOtLezsEBSEbdskkrrfsVq2sANAW6dg1C9E7mRUJIRlhRTX5c7mBc/mBSvRp/a5YZnxpLBeNH0NEdYEwhghMWyC4rBwIayt8Z//DHw3MBB1dVBVRWgolJQA4OpVLFqEkpJxbZO+Zw9++AEpKdBSqANY7e2IikJ0NKKi8OABKivBYsHbuzdQbSKrgncTBJFYGF8cmVAcmVgSpaWs62UW6GMxV5urN2qDNc0VX11/l81U/iL4kGTks8uvB9kum2E1f8D5BbX8b0P/+pbRS7aF7b2qWlI/R1W1W0P3/OQNq5HktlMrX5/5kZ2+66hfhbwobyi+xb8QmRcaYL1oNi+YSD1ZQCLWBIJMITFsguJga9tdRPlJDhxAXBw6OhAW1i2vAXh7g8VCTAyWLRs3H3HiBF54QTHkdW4uoqK6hXV8PAA4OMDHB198AS8vODnJ279xhUqheZjO9DCdWd5QFF8cGZ0fdjv7kq/FXF+LuaOr8afN1d+34o/dl7duO7XyP6tOA6hvrVXrm4edl9fdEDE7G9nZ5pmZLst0Hgq+tL1Q0a2kZ8/uvhjtR0Q2g9OqaDFsScr1LX6Inb7Le3O/stK2k7dHkw0SsSYQxgcSwyYoDgcP4ssvUVjYf7y8HN7eaG3Frl39c0JmzoS/P776apw8vHYNCxciOhre3uO044joG6iOikJ1NVRV4esLX1/4+MDXF6qq8nZxoiDoaI7KD4vKD6toLPa1mOtjMXfUUm//rQ+r6os+VV27s/anXanGxklF3apaKAQACwvY20sauESbdF1ouv+3JYcYNIZUXsVnl7fOt1uhQLnLkpRrDoM7mxfsauInb3cmFSRiTSCMMySGTVAcbGxQVITOTjAe1x/796OpCXPmDJBy7eGBmJhxcxDXrsHbe2LJ68JCREZ2P/oGqr/6Cj4+cHCQt38TFA6TO9fmuUDrxdH5YVH5YfvDdrmZzPC1mDt0X5iWFqSnIy0NGRkSJf1edvY3u332K+2DkYr6pVsw42HZsm5VbW/fN3nauqWy8dJlflWyg4G7VF4FS3Fi2JKU65rmitm84ADrgQuKE0ZBc3tjekVCOolYEwjjDlHYBMVB0v+vquqxL80fPMC+fVBVxbffDrDE0xOHDqG9vTd1RKZcvz4husw8fIjISEREIDISJSVgseDvjyVL8OWXJFA9ImhU2gyr+TOs5j8suhedH/Z9+N88TGfOs13WW3KkR0/3/Cwo6F0v0dDLlr1vYf8J8yqls5GbkP6U7bSU9abp2POrUqSlsNkM5dbOFqmYkh0VjSVhWefjiu7P5gW/4vMuV4n8fkqBxra69PKE9Ir45NIHQpHQTt+FCGsCYZwhCpugOEgUdnX1Ywp7/35oaWHrVlgOVGfNzw/NzYiMxOzZMncvNBSZmViwQOYbPUlDQ3eUWqKq29uhrw9/f+zYgRkz4EGKB48VSYp2cl54WMrp/UU755WrB92uYCb30dPGxuDxsGABeDxYW4PH63cYcVG+zrHY70/G/7zabdNTNpqm45BekSAtt1kMzkSuJSIUCUOzzodmnnM28tkx7x+GUu3+MzWpE9RkVCQkFEemVySwmcp2ei6r3Dbb6TlrKuvK2zUCYcpBFDZBcdDWBoWC6urekfBwnDwJLhevvTbwEnNz2NoiKmo8FPY4p4h0dSEiAjdv4saN7taVdnaYMQPr18PfH1bS7Ao+RXkiPu1UUOAE3F7pGPaMecpi1rw5yz0MfbrFNJv9dGPtXa0abK2E4gg6lbHc5ZXBpvF0Ha+ln6psKtVTkUIBnIl80jG+OCI08zyVQn3J6y1no4mUWKWA1LZUxhXdjy64VdlYqsHRttV32eC7w1bfWZmp8FU1CQTFhShsgkKhq/uYwj57Fmpq2LwZ5oNXexi3VOxr17Bqlcx3efgQERG4dQs3bqCtDdOmYd487NqFWbMUo4DJhKWtDSkpA+R76OjAwQH29nj2Wdjbw8Fhto6Oi6AmLOvCYf7FFGPD+WaeRkPJawDN7Y3KSiover7xr9uf0Kn0JU4vDTjNRs9Jja2ZUZ4gFYXNYnDqW2vHbke6FNflhWadTyuLC7JbPt92GYVClbdHCszxhz9GF4R1CjsNVE3s9d2Wu2yw03OmUcn/7ASC/CH/DgkKha4uqqq6r5ubcewYWlsHDWBL8PHB3/8uc8fu3EFaGv7v/2RiPCsL4eGIiEB4OPLzYWiIGTOwdy/mz4e1tUx2nApkZiI1FSkpSElBaiqys4EB9DR0dJ5cqsHRXun6mouxT1jWhe/u7l7qvN7HfM7Td2tub2QzlE00rDb5/fW/9/bQqPRnpw+csm+t48CvSgnkLR7zKwSbwaloLB67HWnR1tkamnUuNPO8m4nf9rlfGZC0kFEhFouj8sOi88NyazLMtXjzbJbZ6jtP0yGnlgmEiQVR2ASFQkenN4Z95gxqavDSS7CxedqSmTNRXo60NNnWzZBFisjt27h1C7dvIyICamqYMQMbN8LfH7NmSXOXKUJVFZKSkJTUK6k7O8HhYPp0ODriL3+BoyMcHbtz/YfHNB2HaToOV9NO/PrgPyV1+Stdn/ZJr7m9kc3gALDVd3nJ860jD/5lrG7ubOzz5EwbPaeziYdH+voGhMXgtHZMlJOODwpuh2aeZ9AY673fIZX4RkF9a21Uflhq2cOCWr65Fs9e3225y6vmWsPqPUQgEMYforAJCkXfLJEffgCFgp07h1ji5ARtbURGylxhS6WvTVlZt6q+fRv5+XBxQWAgduxAYCDU1aVgf+qQmoqkJCQndwvrigoAsLWFkxOWL8enn8LRUSrZ6gsdnjfWsPzx3t9L6vLemTPotyXN7Y1af5428zIPLG0oOJv0i5G6uTZXv99MBwP3Y7HfZ1QkjL0X4wTJw86ryQzNPJ9ZmRhkuzzIbhmdKp1q31OEwkfZqWVx6RXxPcJ6letGIqwJhIkPUdgEhUJXF0VFAJCSggcPMGfOsFoPenkhMhKbnlbDYUzcv4+kJBw8OHoLeXm4cgVXruDWLbDZCAzEtm0IDISLi/S8nNTU1j6mp5OTIRRCTQ3OznB2xsqV3RdMpiw2dzT0/CL40Pfhn28/u3bXM//UVh6g13pze6OxukXP02XOr5TWF5xN+mXzjA/6zVRja5ppWqdLSWHLvZbI5dTjV9KOe5jOfG/uV33fAcLTKajlp5XHE2FNICguRGETFApdXTx8CAC//goKBVu3DmuVvz9++UWGXo06RaS4uFtYX74Mc3MsWoTNm0m4elhkZSExsVdVl5QAgLU1nJ2xbBk++wzOzjAzGzd3NDjaHy/47pfof+6+tOXjBd8ZqJn0m9CTJdLDMudXDtz97HLq8ScTsu30XZJKH4zdK/l2nMmuSr2cdvxRS9XLXtt8LIbIUydIIMKaQJg0EIVNUCh68rBDQ0Gj4ZlnhrVq5kx8+CFqaqCtLROvrl1DcPAI5ldU4PLlbm2tq4tFi3D+PBYtApUUVRictDTEx/c+mpvB5cLJCc7OCA7uvuBwhrYjS17xeVdFSe2LwlmCegAAIABJREFUa299u+w3DpPb95bkpGPfESN182XOrwyYkO1g4H4t/dQjQbUmZ4BzlsOHzVDuEnV2CjsYNJkE75+CJHTtYzHnZa9tWqQY81AQYU0gTD6IwiYoFJI8bJEIGRlwdBxue0J/fwCIjcXChdJ3KSoKcXH4/vuhZ9bUdKvqK1egooJFi/D771i0aJz6TSocycmIi+uV1G1tUFeHuzu8vfH663Bz69fSZYKwwnVDYV3O/lu7Pl7wXc+goKNZLBaxmf0/AAyWkG2pbcthcjPKE2ZYzR+LMywGB0Bbp2A8FTYJXQ8fIqwJhEkMUdgEhUJHB/X1CA9HWxsWLRrBQnNz5OTIxKXr14dOEbl4EWfOICQEdDoWLcKhQ1i0CFzu05ZMQSRKukdVd3VBWxvu7ggIwLvvws1t4LadE4/35ny55+pbv8V895LXW5KR5vZGAP1i2BIGS8h2MHBLr4gfo8KW5KW0dgpUWOOUd0RC18MhvzZL0tKcCGsCYRJDFDZBoZCkefz6KwC88MIIFpqbIzdXJi7duDFoaDwzE6dP48wZJCZi1SocOIBFi0iOdTddXY/p6fh4ANDXh5sbnnkGu3bBzQ2miloveYv/rn/e+vBs4uHlLq+iV2EPnMTynNO6fWHvR+WH+VrM7Rnk6TqGJP82RjdYfyrsMdoZDiR0PSQ51WnpFQkZ5QlFdblEWBMIkx6isAkKhaRtYXg4uNyRVd+TUQy7shKxsfjww8cGu7pw5gzOnMHp07C3x6pV+O032dYKVAja2h7T08nJAGBsDDc3PPccPv8cbm4wNJS3l9JBV8XwJa+3Dt7/UlfFyN9qvlDUBYAzSAtrEw3LuTZLQzPPOxt592Rvm2vZNLU31DRXanMHqEwyTCSavr2rddQWhsm19FMXU46R0PWAZFUmp1fEp5cnlDUUmmvxpht6Pu++hQhrAmHSQxQ2QaGQxLCLiuA3wo4V5uaIipK+P7GxEIng6dn9NC6uW1vz+Vi1CidOjEcf9QlLU9NjZxPT0wHA3Bzu7nj+eXzzDdzcRtThRbFwMHBf5LAmIve6/5+ZHlylQY8NzLV5LqEkMjTzfE83dUM1UyU6q6A2aywKGwCdxugUdozFwtMpqc+/mHKs6FHOi55v+lnOk91GCkd6eXx6RUJ6RXxlY6m5Fs/F2PdFzzeIsCYQpg5EYRMUhPp6fPIJQkMBoKMD1dXYuBHbtg2rHjYAMzOZxLBjY+HhAT09nDqFo0dx6RIcHLB2LVaunKJB6+Ji3L+Pe/dw/z5SUgDA2hpubli/Hm5ucHODpqa8XRw/Aq0XxxbevZ97Q0/FEICy0sAxbAAcJneuzdITcT86G3ubaVpLBi20bPJr+R5mY2rhyaAyu4SdY7HwFO7lXruYfGyajv22wD1PFiicmqSVx6eXx6WVx1c3l5tr8dxNZjoYuBFhTSBMQYjCJigOBw70XqelIS0N8+YNV2Gbm0MoRH4+LKTa8yI6Gmw2ZsxAZCSWLsXJk1MxaJ2Whvv3u4V1YSE4HMycidWr8Z//wM1tuPVeJiMsBjvQenFE7nVJNjaT9rSiMTMsgxKLI29mntvo91fJiLkWL6MicYw+0GmMTpH0FXadoOZiyrGHReHBji8F2Uqjm6mC01dYW2nbeVvMttd37fmwRCAQpiBEYRMUBHV1LFiAa9d6R5SUsKZ/q45BMTcHgJwcqSns8nIcOYKwMIjFeOUVfPUVZo0p1qhgREX1quq6OujrY+ZMvPce/P3h5iZv5yYKJfX5RXU5RXW534f/DcCOsy8aqpsFT19rrTt9wPlzbZd+d2d3bOFdT7MAABZaNtfST4nFYgqFMmofGFSG1GPY8cURF1OOqbLUtwXumaZjL13jikVGRWJqWaxEWNvoOc2wmm+v72qkbi5vvwgEgvwhCpugOGzZ8pjCfuedEaztUdhBQWN1Iy0NR47gyBF0dEAoxIULWLJkrDYnPgIBoqNx9y7Cw3HvHoRC8HiYORP798PfH9Omydu/ich/w/c0tD4CIMmEbu1sKa7LHUxeA7DVc55ptSA087yzkQ+TriRJLcivzbLUth21D3Qao0uqMewLyb/eyDgTZLss2PElGpUmRcsKRMGj7JTSmJSy2NL6AnsDtwDrRXb6rvqqxvL2i0AgTCCIwiYoDkuXQkkJ7e0AQKXi669HtnzsBfsKCrB3Lw4ehJUV3n4bHR345ZfJLK8rKxETg6gohIcjIgIAXF0REIC33oK//yQ+pCgtnnff8tP9r3qeUilUN+MZT18y1+a5vWHv38w89+z0NVwlVR2uQUEtfywKm0FjSvGk4+GofSllsRv9/upqMsKjxpOCyqbSlNLYlLLYnOo0Ew1LV2Pf9d7vkIg1gUAYEKKwCQrFggW4cAEAli8f8doxFuzbvx/79oHLxXffYf16sNl44QV4eIze4MQkOxsxMYiNRWQkYmOhpARPT/j5YdcuzJoFlUHP6hGexNnI21LbLr82UywWAxCJRbNtgp++REfFwMdiTkJJ5LPT1wAwVDOtai4biw90qnRi2CKxaH/YrjpB9Wb/XbZ6zmM3qEB0dLUnlkYllUQnlkSrsTWdjbwX2K+y03eRt18EAmFCQxQ2QaH417+6FfbPP494rbk5YmNHs+n589i3D/fvY/t2vP8+dHS6x2NisHXraAxONEpKEB7eHahOTYW2Nry88Oyz+OILzJoFFkve/ikwz7tv/ur6u5JrPRUjY/WhjwG4GvuFZp5PLIlyMfbVVNatahqTwmbQGJ1jzsNuaH30zc0dbIby9nnfaHJ0hl4wWcipTkssiU4qiX4kqHYy8l7n/bazkTdrkM5BBAKB0BeisAkKhbk52GyYmo6mM6K5Of74Y2RLkpOxbx+OHsXChbhzBwEBvbcKC5GXB3//EbsxQRAKu1W1JLVaXR2zZuHVV+HlBV9f0KZofq3UMVa38DGfE11wC8DMaQuGs8Rci2en75pQHOli7KulrJtZOaZyIvQxV+srrsv7+sZ7Flo2O+Z9MxY7CkRtS1VSSXRiSVRuTYaJhqWfVZCLkY+BmqJ2GCUQCHKBKOxJx+rVqK6WtxOyhMuFhgZmzx7xwooKtLfDzw9KTyua1ktBAYqLwWCAx0NrKz777LG7VVWgUvt3cxwpgYHYvXtMFkZKZma3pA4PR0kJfHwwaxa2b0dAALjccfVkyrDS7bXYortCkXD4vcTdTPyOx/34bNMLmsq6j1rG9M+ZQWN0ikafh51bk7E/bJenWcArPu+OxQ2FQCwWJ5ZEJZVGJ5ZEM+lKLka+z9ivcjAgtXEIBMJoIAp7cnHnDk6d6uRN6u4GGhp49GgU6ygCAR3oKi4Wc4b6klcsppWXU5ubRerqIk1NMYCy/t/U06qqKEpKXU+MjwiGRLXLWmTX13dL6vBwxMbCzAyzZmH3bgQEwJrU65U5bIayr8W87KpUNkN5mEtcjf0upf6RUBLpYODe3tXW0t70lG41T4dOG321vqJHOfvDdi1yWCNJCp/EFD7KSSyJSiqJrmwqtdN3Xen6mrOxj4qSmrz9IhAICgxR2JOQ+u3b5e3CRIRWW6v54Yets2e3PTW1g15QoPq//4mVlBpfeqnd1XWwaRpfftlhb9+ydOlYXFKKi1OVncjOzUVoKMLCEBqKlhbMmoUlS7B379Sq2y0l2jvb6lpq65tr61pq65pr65prm9uaOrraex+d3RftnW3tXe0dXW0dne3tXe2dXR0dXe0dXR3KXOXASB6TrsSkM5l0JSZDSYnOkvxUYigx6ZKHZESJSVdiQflO5mV6JxNAelminb4zlz2a3j2M0Z50zKvJ2DfZ5bVYLIoruh9XfD+5NEZf1djFxNfFyMdUc1KXnqxLw43laODL2w/CU5l3EpZTr3nZpIMobMJUQailBYBWW/uUOazISJUjR9pmzmx57jnR4HUzKF1d9MLCluAh6kIMSbu7e+PmzVIW2bGx3cI6LAzGxpg3DwcOYPZsGBhIx/4kpbyuuLimoK65tq6lpq65V0w/aq6pb6kVtLf0zOSyVNS4GlyWCoVCoVCpFApFJBZSKVQqlUqlUKkMGofJ5lKV/xyhScYpFIpILBKJRCKxUCQS/Xkt6hJ1dHS0itq7n9IoNJFYLBaLQRUpa7H2XfnU1NTk0+Nv1NfX02l0dWUtDWUtDa6WOldLQ1lLQ1lyoamjqm+hx2Mx2U++LvqoqvXxq1L+ffuTSSyvK5tK44ruxxXdr2gsdjT0fNV3u4fpTHk7NS60VqOBLzSYvDVGFR+qII9Sly5vLwhSgChswhRCpKJCaWsb7C731Cl2aGjja6+1e3k93Q49Lw9ApzTarEhHZAuFCA3tFtYJCbCzQ1AQ3nkHQUHDTTqfYhTX5OdXZRdUZvf8bO/s/cVgMdkqHDUuR4XLVjE3slThuKhwVFXYalyOqgpHlU4bpz+bUbm3jN0t6lseBbrZcGiqTa0NzYLGJkFjg+BRWX1Rk6CxsaVeDHHPfH0NY0s9noUez0LP2lKXJ9HcDBqjtaPlKbs8SXp5/Pfhf5us8jq17GFc0b244vtsBtfDbOZLXm9aaNnI26nxhijsiQw191/ydoEgHYjCJkwhRCoqlNbWAW+p/fvf9KKi2q+/FmloDGmHVlUlUlMTswcIGY6CXpHd0oJ//GMEK+vrcfVqt7YuKoK3N559Fv/6F8kD6Uc/MZ1fmS0UdQGg0ejaqroaKprutj6aqtqaqtoSJc1kMOXtMgDoqRrm1/BVWGoMJmOawcAqsLm1sUnQWN9cV9tQ/aixprSuILkwtrm1SXJXX8PY1NiExWZfjjvVo7mfvmlyaczB+19OPnnd0FoXV3wvruh+QS3fTNN6qfN6D9NZqqyRlyQiEAiE4UEUNmEKIR4khq3y66/U+vraffuGaYdWXS3JOZEW3SL7228hEODAgSFmd3Tg0qXuR3U1goLw5psICoILaYHRS1Zp6sOc+zHZ92Ky7wGgUCi66gZaqtramto8cztNVW0tVW017tCfpuSIGluztaNFlaXe3jX4Fy9sVS5b1UDrsX7dbR2ttQ3VtY01jxqrGzpqBc3Ne8991NbZBsDWyNHD2t9zmr+TuQeL0V9tJ5ZE/xzx9SST1/k1mTGFd+OK7rd0NLmb+j9jt8LJyFveThEIhMkPUdiEKYRIRYXS3NxvkB0aqpSQULN///Dt0KqqRFJV2OgR2d9/j5YWHD488KRr13DpEi5fRkEB5szBBx9g8WJM7tIxI6GgKiel8OHD3MgYfnh9yyM9DQMrQ5vVc9brauhrqmrL27sRo6GsRafSRWJRR1f7iBaymGwjHVMjHVMA2ZWp1U0Vy73XNQkaaxur88uyIzJv/nbnBwDuVn5e1jMdzdwdzdzpNEZlU+nZxP/Ns106aeR1cmlMTMHthJIoDY72DKsgD9NZpMM5gUAYN4jCJkwhRKqqjJqaviOse/e4p0496lfreiho1dUd06dL1TWgR2T/9BMEApw40XsjPLxbWKenw8cHr72GxYtJxFpCeV1JSuHDpIKHD3PuF1XnqXM1jXRMZjjPtjLkqatoytu7MUGl0NQ4ml3CDvHQc59mRCQWAVDhqKpwVM31rQB0dHXkl2XnlWVfePj7D9e+4Sgpu1n5KalRuWzVpU7rpeS+3BCKuh4U3HlQcDunOs1ci7fabZOnWSCHOdxSiQQCgSAViMImTCH65WGzoqNVfvutaf164QjrbNCqqqSbJdJDu7u7IDiYXVpKAZCdjd9/x6VLePgQjo547jn8/DP8/GSxr8KRWZISmRl2L+NmZkmKMotrpGtqbWYb5P2sJHA7aVBja5Y3FFPGYIFKpYlEwn6DTDrTxtTBxtQBQKOgIb8sp7g+t0nQGRZ1/X7sHTcrv5l28/xs5yqzFKwJUUProwcFtx8U3KloLHY28t40430XY195O0UgEKYoRGETphB9a4koJSaqHD7cvHJl2wg1K7WhgdLeLtKWZdZBQwM2bsTvv0NHB8uW4auvMG+eDLdTHHIrMiMzb4WnX08tTDDRNbc04nk4+JjpWdLGq77HOKOhrJ1XnUmjjv7V0ShUobi/wu6LKkdNU1OzuIU/1zZ4hmVQcVVBQUXuN+d2MWhMf7t5M+zm+tnOYdInekWa0vqCBwW3HxTc7hJ1eZkFvOj5hqW2rbydIhAIU5rJ+d8SgTAg4j9j2NTGRs6FC62zZ7cGBY3UCK26Gn9W15YyIhErJkYpOppSXQ1VVezdi7VroU7KHaCoOi8iMywiIzQuN8pU19LCaNprjm9NsnD1gGgq6wAQirqEoq7R6WwqtTtLZDDqBbXpZfHuZjO4SqpcJVVtdV1XnldruyCnJDOnNOv2qSscJa6/3bwZtnP8bOdSKGOJp8uEorrciNzr93Nv6KkYzeYFe5oFaCnrytspAoFAIAqbMJUQ02iUjg4AyhcuUNvaBPPnj8IIraoK0lbYtNpapZgYpZgYelmZ0NBQbGdHiYiQon3FJTztekjs8YiMMAt9a1MDi9cWTwlh3YMSncVhKgs6Wtq72jnMUSlsygBZIj0IRV3pZQnm2jwD9cfeVbYSx9HKzdHKTSK1C8tzbp4IUedozHdZGuy1Rl/daBSeSJ0ebW2qYfWCx198LObQxxDsJxAIBOlC/h4RpgTssDCl+HhaZSUA7bffprS1tXl5iTRHcxKOVl0t0tAAjSYVx+iFhayICFZMjJjBaPf2bnr1VaXkZPajR1IxrtCEJoWExJ6Izb7nax841YR1XzSVdQUd+R1dbaM7q0elUEWDZ4nwK1IZdKaNvuNgE/pI7YVZhWm3Ui+fjjqyxPOFYK/nTbUtR+GPVOinrf2tRvNRmSALwuOzhjNNjctx5pnI2hkCQb4QhU2YEnSZmHBPnpRcS1KxWTExrJiYmn/+U8zhjMiUtI450gsL2ffuse7d6zIzawkObvfykvRpV0pOHrtxheZK3OmLsccT82O87WZuWvJ2v2LPUw1NZe2SunyhSCjoaAEwUp1No9KEooGzRGqbq/JqMv2mDSvFn63EceF5uvA847Oi72XeOB31yxLPF4I910wzGNd0Z6KtJzhBW74dzrRZbjY3D+6U1qb1TYIDx0NnudnMcp9y7TkJExmisAlTgk4eT6SmRm1o6B2i0QQLF45UXgOgVVd36euPxZkebd1pY9P06qttPj5jsTaZuBJ3+kzUkfTiJC87f6Kt86qz0sviJddRuWEADNRM3M39R2SESqENFsPOqUqfpmuvwRnZmV03Gx83G5/4rOgH2XfORB0J9lzzypw39WSfN1LRWHybf5Fo6wnOLLfHNG59kyA5u/jJcSepBrC9XvxbYXnNzR+lJtkJBKlAFDZhuKQWFze2tkbw+Wps9nQTEwdjY7WRy1M50jZzJvvqVYpQCAAUilBHpyU4eBR2aFVVoy6G3aOtO5ycGl9/vZ3UtO7DV2feD4n5w53nS7S1BH014x6FLcFaz2GkRiRnE8ViEYVC7TteUMPv6Gqbpms/Ot96dPb91Jsx2fe2PLNjvsvS0Zkako6u9rCsC2FZF7S5ekRbT3D6RabD47KCtn775Lh0KSyvGXoSgTDuEIVNGJpvL106HhlZXFvbb3yNn9/OxYtNZFMZWuq0+flxLl3qfiIWN27c2G/CT2Fhm+fOfboRanMzpbV1FFkitIoKTmgo6969di+vhnfe6bCzG6mFSUxxTf72w6+U15WsCHzJwcJZ3u5MFDhMZQ1lnbqWaslTGpWmyh5xm3cqhQpAJBbT+lQBEXQ051Sl2xu6jaUOIAA3Gx9LI5t7iaG7/9iWlB+7c9nfx2JtQB4U3A7LulDTXDHPdlmQ7TIGjSn1LQgEAkEWEIVNeBrFtbXrf/ghtbgYgLGW1gwez1RLC0AEnx/J5x+PjLyamHjuvfemmyjAmRWhllanlRUjNxdA69y5XY/7POeLL1KLi4dU2N2FREZYDJtz/Tr7xo0OJ6f6Dz7otLAYoeOTnEsPT/791A57C+cXnvmUxWTJYovK0urQ83cl1/OWBugZ6Qw288LRq81NLUNOGzea84TQ677WUB6BP8e+Pw3gxTdWSkLXYrEI6D2bm1OVrs3VN1SXwuFRda5GsP8qU32Ls/d+TSqI/e3dG2O3KSGnOi0s60JyaYyXWcB673dIw/PJR2F5za+XIpP4xQ1NAjMDbWcbkzfXzOt3F0BwgGvfY5GSrGvJeEOToOds5a+XIsPjs15e7GdmoH30UkRRee2Tmdn9xiVbmBpoLQlw3bn/RGF5jZmB9sebg80Muv/Ch9xJCI/nJ/OLAMxytyGp3oQRQRQ2YVAaBIKl+/YV19aqstlH/vKXGTxez62dQHFt7br//jetpGT9Dz/c+vhjhcgYafP3Z+TmirjclsWL+92SfIoYEkkxbNGwY9jMpCTO9euUjo7mtWvb3d1H5O1U4GZSyN9P7Vg6a42TlQzfnMrS6mMHTkuumxtbtuwauDF4ZWn1wa+OSK4dPe1HobBDz99tbmxZum7RqF3tx63fHni/bs7kMADwRpIiInm9L76xsjtLBL2d16sayyrqS4Z5wHGYOE/zMNO3+s+pL4O/8Lj48cMxWnvUUhWWdeFO9mVzLd5Gv7+6mpA+piOnqQDld2H+HJgTtKD+0UsRO/efqG8S/DmQhUsIuZPw8+5XJQLXzEA7Mavo4t3EoxcjY459qq7S/V/Mpr8dDrmT4GRt8vGmJXt+Cvni55AegwBmudmYGWj/ejEyPD7r401L+gnifuOFZbV7fgqZ5WZz4I/QJL7kv4Cs4AAXMwPt+ibBzv0nJDYl3I3LAvDJ5iUfb1oiyzeGMHmgDj2FMFX59tIliby+/cknfeW1BBMtrfPbt6uy2cW1tcejouTi4Uhp8/MTs9mNW7aM4oCjhOEXw6ZVVKgcPar23/928nj1O3cSef0k2eXpn/7+5jzPZ2Uqr/sRHTao/jt/9MpYLJ8/emX/rh9aGgVDTx0JaTcLAFApVM1RNVKhQpIl0ltOpKSuwETTgstSlZaHEtS5Gq8v21HTVHUodP9Y7IRlXdgb9kFM4d0lTi9vn/sVkdejRMUcd17BLxo45YDUf6M2Ud4OPUZ4XNamzw/XNwk+3rSkPfZQe+whfsjXs9xs7sZlbfr8cM+0Q7s3qHHZheU13/0RKhn57o+bIXcS1Ljs0/veAPDJ5iXtsYckt27+uLM99tAoYszh8VlJ/OI318z7eferLy/2WxLoCmDH/uNHL0WYGmhJzLbHHjr17RtqXPaen0L6ym4C4SmQGDahF9a9eyq//dbz9CBwEEBrKz78cMD5OkB3bY6TJ/FnLbyJj/q+fU8Odof4tmwZjgWdrVuHvx3n6lXO1avDn9/NcJrnffYZdu8eseWJQW1T9fbD6+3MHf2mB47bprqG2pWl1XmZBZa2A6QcRIc9VFbhtDSNUiJLXVsD+ObopwAuJx0facWPHnpOOkqeNrbWldUXzrCWyWFBHXW9ANf5/3fzX9P07QKnLxzp8vyazIspx7KqUnwt5s6zXaavSk67SoO6dDx4H8J2cAxg9TyURvmLJF127D8O4ONNSz7Z3B0PNjPQvnlwp+faz+/GZR29FLFu8QwA6iqcQ7s3rNr5/Rc/h/wpfE8AOLR7Q08ih1To8USybxK/+NdLkWpcdujBnT0bLQl0Pa3yZtDWb3fuP7EkwLUnpk4gDAZR2IReaA0NnTze6CpsTBG4x4+DSm1evXqwCZTOTtbdu0pJSa2BgTKNWzP4fOXPPgOgoCL76zPvc1jKq2avG89Nfed5Xjh69ea5u1t29VfYeZkFlaXV85YG9GRsywWRSNgl7Prz0Sm54CqpqTA1y2pK6DQ6nUan0xg9F1TqEN9DUv486Sh5WlpXqKOir8GR1enkAJegJkHjP859aKxtMU1/BKWyw7IuXEw5pqditNl/l7ORt4zcm8w8Skb1Q9SloTEXjfloyu+9JWwHhQpBOYqvwey5Me5DbR5WTxkJGigO5PVflVNcJRnfvdYGj1v76PlpP5wsTokLpQZ269qlHpx/b3U/dyvu4P9+ABDIw7I57ks9OH0XSrbQQDG1uXvExVBAbYaFSk0/b/uN97i35Rn9vjNT4iICeQjytbRQqUVz7xH/QBtsW2ySzC8u5kdq2sjs9FFXC5oKUHZn9BYMxy9sQXgKFLFYPPQsgqJw5w5mz64+eHB0q5UvXWJkZdVv3y5dpyYTGnv2CHV1GwcJdTNyc5XPnKG0tja//HKnpcw73nGuXlU+f14RI9n5lfy1++dtePZNY12zcdguOSb9g/V/A3Dg3NdvLvtAz0jncOh3/eYc/OrIhaNXPzmwfc+b+wB8feRTJy/7vhbCzt/NzSjMyywAYGlr7uRl/9y6hT252h+s/1tlaXVlabWekY6ekY6FrdmWXes7Ottb2ppb2ppvXwnPyuC3tDYrqTI46iwtQ1WOKrtHQHcJO1sFrUKxENTeYHNfmExmR0fHwK9NDAqoNCqdzWYx6Mwe5Z0cldEpED635lkWm1UvrLJQt9NQ1mIwmIklkTb6jqZa06Twtg7Od6e/XhfwxpqZ/cv1DEhlY8nFlGMJJVGzecHPTl/DZoymdeUURVCG3BMoOI+qGAjbwFSHjgdULaFiCVVLhK4GACoTog5YvwybDTAMRNkdXJrd4XZodBvSykNo5SHSfAkEWbD4NhHZEwESwyYQRgClvV3E5Q54i333rvKZM+2enk0vvzw+zggWLgSdroiR7PzKbDqNoa8l8zYl/bC0NR8sUUSSIuI71/PJVeePXvnpq6OSa0dP+7zMAsnj5rm7B859zdVkVddXVXYWKVnTrZw1GRxQVeur1Vu/PPphl7BTsooKmqq9kp6SAYfJ0dbWUWZxlZisJwPSdBqd9sSI5AJAX0XecyF8YkRyYbzErKWtuaq+oq1aoGukfe3BhZaWZl1dXT09vePXj7IYLA6Lq8zicljKyiyumoqGjrqejrqeMmvg3+2RYqpn8TAvYjhVGWNYAAAgAElEQVQKOyo/7GLKMRUlNRK6HgHtj5DzB3JPoOIeWFqwegH2r0PHE6pWj03j6KOjCc47wHsFKlKrxCLm2nTySG+XCQq1OYvOH1ZbTcI4QBQ2gTACKG1t4oEUtvKlS5yLF5vWrWubMWM8/REEBYlpNK6iiWx+eZq+pgGdJoe/PwMmivSkiDw5PzkmXSKvN+9at3TdosaWhpqGyqSk5Lu37ipp0A7d+KcQnQC8VtlymFw2k6OprsVhK/eIVw6Lq8xSZtClUMWZSVViMpRGuqpT2HE99cymJW+zaOyo3DAlOtvB30MSWRe0Nbe0NVc8KksvSKpvrgOgzOJKpLa2ht5YNLe5gdW9xLCnz2lqq7+Yciwi7yYJXY+AlhLE/Q38X8BQgcVyuH8KwzmgDJIpNOcPaLtM2FoiBMKkhyhsAmEEUNraRCoq/QYl8rrhjTc6nJzG36XWOXOgaCI7rzJLT9NQLlsHLQu4cPRqdNjDvjX7bp67C8B3nke/yW0drddvXDXwUpnmalKrmfvNb5+0d7YB0FHX81vgoadlKJGhOup6mKhQIDnpKG4Ttja1N9gZuuiqDvDOd3Z1VNdXVtdXVtdVVtdXZpdkDKi5TfUsqIPpuT6Y6VtdaDpRUltorDVwFlBS6YOLKcdoFBoJXQ+X5iLE70HBOZgswvxzMH4GQ3YLInkCBIJcIQqbQBg2QiGls7NflohEXjc//7xc5LWE1oAAMY2mojgim0KhyOv8x4CJIqHnwnUNtSUpIkqqNK6BUnJ5dNT5a5V15TCCh4ONlqqunpaB7/SACa6nn6Sn40xtcw2bydFR0R9wGoPONNQ2MdTuPbw1mOY21bMw07c01bM00jFhMdkDWpNkk1MHqYdzN/vyyfifSeh6uDQXIe5z5J/B9LexthB08o4RCIoBUdgEwnChtLUB6JslIpHXguDg1jlz5OcXALT5+4NOVxSRzTNwuBx/Sl6790sUiQqLFSt1uAQ7Xo48U1iR57rVkApqJ63V1tjxGZ/nzPWthjQ4kZHIXJFYVNNcocM1oAwjAi3hSc3d1tFaWJFXUJ6bU5J5LykMgLGOqam+pZG2iaGOqZpybzZCflm2rpq+oeYAPSNDkn+7nnH6Ja+3fC2G6J9KQHMxHn4M/lHYbMDqTHAG/nREIBAmJkRhEwjDhdrWBqAnhs2KiJDI6yc7RMqFNh8fMY2m+tln0NHBX/4ib3eeBs/Q4dDNf7a2C9hKcqgpK0kUSUiMf5BuVVZdlFGQ7rRBv4P5qKFFxcHSxUzfUtFVdV8kkrq9s62mqdLV1GcsplhMto2pg42pA/5U24UVecVVBdFp4SKRyEDLyFDH1EjbxFzfKq8s29G8f8pNl6jr6IN/FdRm75j3jYUWaT09FKn/RsyH0PfH6nSo28nbGwKBMGKIwiYQhgulvR1/KmxaRYXyhQutAQETRF5LaPf07IyIYFRXy9uRIbDStwVQUJ5rZ+44zlu3tDXXodxlnRFLnxqRfNtE1yzAa66RjulkUtVP0tD2iE6j66gYSMtgP7VdVJlfWl1UWl2UmhvfJRJSxLDxchKLxZQ/E0VqW6r2hX1grG6x65n9JDNkCBqycWstmgow62dMWytvbwgEwighCptAGC59s0SUL1wQamu3rFghb6cUEkNN07WzNl+I+l1bXXfc0prVLVmXIk5nFKZQQPH297Y16xaIU4EmQb2Wsq6k6p/UYTHZPBN7nok9gNZ2Ab84PbMw9WLs8dic+3Mdnw2YvpDKwH/ufDrX5rnlLq/KwoFJRcZPiHwbFsuw6AaUNOTtDYFAGD1EYRMIw6arC4CYyWSHhTHT0hreflusNOLqaQQJbz37cXFtwdk7x7YsfU+mG9XUV2VVJ7luNFLSpLa0NQd5LuaZ2nOUplYYtam9wURzPIL0bCWO8zQP52ke9c11/OL06Jw7NzLPGhgY2Gt7zLEeazfBSU5XK8I3ouACZv8Ky5Xy9oZAIIwVorAJhOHCTEsDQC8uVr50qeW55zqtJnNewTiw54UDcz+1P33715WzZdKjp6SqMCE7JoEfY6hp8uz8YBtTBy01HVlsNPERdLRoKo/ra1fnanjZzVBRU86tzuBSNKJS7l6JPLvE64VgzzWGmjJrN6241GfgxgoAWJEANWt5e0MgEKQAUdgEwtBwT55kh3V30ND44gsAtNpaBp/fyePJ1S/FRonBOrHzzspv/C9FnF48Q5pBu4Ly3ITsmJTceAcLlxfnb7QyIufqoMXVHecdU0seFtRme1rM0lM1ghNyS7NS8mNPRf7ynNcLwZ5rzHVl27ldkcj5HeEbYb4Msw6BPnABxKlAEr945/7jw5n50mK/dYvHtbcXgTAKiMImEIamzde3R2FLYIeFUQQCorDHiJGm6cWPYl/9bvEP5/aumrNOW22sKjCnJCshOya7ON15mseGxW8Z6wxQMG6KIOhoKazNFoqEAJg0Zn51lhpHc9wi2amlDwtqs93M/PRUjSQjVkY2VkY2ztWemfmp6/69YInnC0u81vAMp0oq/CCIEb0T6f+F339gO3ST+clNQ5PgblzWcGbOdJPmZ+YDx0PvPMw8vfdNKdokEEAUNoEwHLpMTERqatSGhp4RsZJS8+rVcnRp0qCtqnfxo9hPfn/zv2e/DZ6x0pU3yg5/VXXld+JvlFQXOk/z2Pzcu2MX64pOl7AjtypDct0h7Egri6dSqIucnh+HrdPLEgpqsp1MvAzV+/d0NNYxNdYxdbHxyCpIf+f/Xgpyfu7dJZ+Ng0sTEWEbbq5CVTSW3IO2u7y9kT9mhlofb1rSdyQ8Lis8PsvUQKtfxDrAXWoKOzwua/u+47OkKtkJBAlEYRPGg2tJSSnFxZFZ3fGJ6SYmM2xsFjg7y9erEdHu4cG+fRsikeRp04YNYo4cajlPVvasPeBs7vnTjb01dTV2lo4jjT0/zIy6k3DdzszxtcVvqXFJBQYAUGVrMGjMTmFHz8g0Xftx2DezPDmvOtPZxNtE03KwOdpqutrOuvaWThGJt9bsm/324k99bWaPg28TiLYaXFmAziYsjwN36n7T0hczA+1PNj+msPf8FBIen2X+xDiBoBAQhU2QLccjIz85dapBIOg7GMHnHwwLm25i8p/166ebKMaxp95EEQql3cmp3cWl790TUVGXExKOTuw+LxOclX7rnc09zz84dvTqjy5WHjbmDsPMnz579/fUvITVc9bbmk2XtZOKhZWuXWZ5Us9TCx2ZB+ryqjNzqtJczfyMnoheP4mGiubimSvjsx6897/1q2a8+t6Sz2Xt3kShMQ+XZoNrisVhYKrJ2xvFpr5JAEBdRc7xjqe4Ud8kkLt7BLlAFDZBhmw7cuR4ZCQAB2PjNX5+PWL6amLi8cjI1OLiZfv3n3vvPYUQ2V0mJiJNTeqjR2I6vemVV/reOhgW9snJk34kJ3vMWBva71z29xW+6y7GHj939w8LfWtbCwcHC5enLPn3yb9rqenuevnvDDpTRl7dPHc37PxdyfXXRz4dbFpyTPrv358ectpTaGlqAaCsIrVKgr/tueCx0VxyraNiwKAN6y2SvF4LW7Mtu9aPaLua5sqMskRHY8/hyOse3Gy8LQytj1z5ISrz9qm/ho9oR4WkJgFXgmAUhNlHQZVJhfKpQH2T4IufL4bcSSgsrwFgZqC9JND1403BPVp2z08hX/wcAoAf8rWZgXbPwu37jh84HqrGZfNDvlm14/vw+CwA4fFZSp4bAbTHHgIgub75485Zj6ej9BuXbHHzx50hdxO/++OmxI2YY59KfEjiF3/xc0jInQTJWmeeycebliwJdJXxG0OYQBCFTZAVB8PCJPJ6z+rVW+bO7XtrBo+3c/Hipfv2pZWUbDty5NbHH8vJx5EhmDePe/Jk08aN/fJDGh+P0BPGiKW+zdvBu1f4rb8Yc/xC7B+JWQ9tzB0sDa01VbX7zfz+7D94JvYLfZfJ1J+q0urkmHTJdVRYrO9czwGnhZ672zNtFESFxf701dF3v3zdyUtquRwxoUlWC7U0jFQAOBoP7PaTSF6vWDyyvTqE7RllCeba1mZaIy4SoqGi+c7zHx04/c0r/1n0y7YrI12uSFRE4MozsHkVM76ToxfU5iEOFFIbU9FeJVadLlZ67DwDpaMWGOFvhgxI4hev2vF9YXmNqYFWcICLZOS7P26Gx2We2vuGRE9/snlJyJ2E5OziTZ8fvvHjTsnC8LisA8dDAZze+6a6CseJZ1LfJEjOLlbjsp15o8zVuXAnQWITgBhiibw+eili0+eHAThZmzjbmBSW1YbHZ63a+f1bLwTtfW88zkIQJgJEYU8ujI0BKIeEtCyRQ9Yarbyc2tQkua5uaIi+cCEQ2BAYGGxiAj6/32Rt4NyCBZsPHUJxccn9+xa6CnAuTaSmJlJVFXE4jMdfjmVtbSDgIBAwnniZ4w9FIEBBAe7cGXpqYKDs3Rk9xlrmry/8YIXf+pDY45EZYVeiztqaOpobWE4ztpVI7dCHl5l0JVnL635EhT4cTGFHhT0ci+XzR65Wlkq53b2jp31jYYeGEVgMNocp2yY7GWWJDBrT3tBt1Ba2LH332993n4o4vGrGJG39WHID15fAfTdcdsnNB7YO1Hh0/rfDmlwX9+SYWFn+fQB27j9eWF7z8mK/ve+tkSja+ibBjv3Hf70UueenkEO7N0imnd73hufaz+/GZX33x823XgiqbxKs2vk9gI83LZEEofdtXxMelxW09VtnnunNgztH58yB46ESTwAk84sBFJbXSOT1z7tf7TmjmcQvDtryj+/+uLkkwGWW9E5qEiYyRGFPLqZNw8mTnNWrIRS2LBtX5QFA5fffeySmOnBJcnXnzmBqTx24Lbn69ddxcE9aqO/b129kK7AVQEkJnrglH375Bb/8MvS0zz7D7t2y92ZM6KoZbJz37sZ57yYXPIzMDAtPv3ntwQVrY1sGnVlUmS/rfpCPeWKoXVVWM5iMjgqLbWlqsbQ1y8ssHDeXhuSbo592Cjuup54Zi/AdDgU1/Kqmcm/LQAqFMmojDDrzWb8V+0N2G2ubT8KDj/lnEbYGs34Gb2S5N1JGwwHPD1URryYeOb8j+c+/ZhQaxEIA0JwOZWM0yPk3POROwt24LFMDrR55DUBdhbP3vTUhdxJ+vRT51gtBzjwTAGYG2nu3r9n0+eEvfr64JNB1x/4T9U2CWW420j03qcZl93jSkz0C4OXHi3Y780wkzmz8/DA/5GspOkCYsBCFPelYtUoisilCYfPK8W69KwgOblm8eJw3JYwCpbg41c8+AzDxRbYEJ3MPJ3OPrQvej8uNPBN15HbK1TXzXlVmccfNAT0jXa6qcl5m4YCJIlGhDwHMWxbw01dHB7OQEtudQ2JpazbSZOuWppa8zEJdQx09Ix0AXcKuLmFnl7Cr30VLU3NpUTlXnaOsxum5RRMz84tyi0sL6TQ6ncag0ejCTmF1aS2VSqNRaKaWxioqqnQanUajSyaMyDEAj1qqM8oTnU28VVnqI13bD+dpHk2Cxr3nPz7y9jUuS2WM1iYQ/CMI34S5x2GxXN6uDEJlJIqvojQMlVFP3BMDAMcQTtvRVCh3hZ3ELwYQ4G7T7/igugpnlrvNxbuJ4XGZEoUNYN3iGSF3Ei7eTQzasrewvEaNyz70mZS/IXHmmfbz5OLdRMnW/WauWzxj0+eHJYnjhKkAUdiTkVWrcPIke/VqdHU1r1kjb28IE5F2d/fGzZsVS2RLcLfyi8uJtDTI4ZmMR+25vkgE9ICJIlFhD3UNtS1tzZ9clZdZcOzAmaiw2L6DTl72m3etk8w/duD0sT+PSH6w/m8MDnXpawtnL/cTtLW0tDXz0/kJscld4g4lVQZTmUZnUymMQRNhqRQajUqjl9MZDCaTwRSLQKfR2Sx2ubBMosI7uzo7OjuEwq4uUZdIEpjMe8KKMrzfNaWK2w5f+V6ZxVVmcTksrjKLq8xW7r5gcTlsZQooALpEXRlliZY6tk+Wvh4dLtaet+KuJhXEzrCdIxWD8ifxa8TvwYJLMJ4vb1eeoOwWsn5B4UV01AOAnh+mb4P+DAg7cPtl0JQgbIeeHzz2wDAQAOLkX+8liV8EIDyOP39r/1yXgrLanp89HNq9gbfkfYmuPbR7Q99Tj1LBidf/pL6krsgXP4fg54GXhMdlkUSRqQBR2JOUHpEtFDa/+KK8vSFMRBRXZD/MjTDRtxj/fX3nev701dEnE0UkKSLzls16ckllafX76/a0NLXoGmoHLQuUjESFxSbHpH+05Yvdh99t6mho0az03mIponVRlSBRz8VIPno1ma3EYTM5XLaK93yXfjKXTmPQ/ww5970Y6SsaLBYuEfeCthZBa3NLW3NtQ7XkaUtbc89aDktZmcXV1tHmcNjMLk6+OEdHXY/LHmvgmctWMde3SsiLmiQKO3oHMg7i2VDo+crblT40F4J/BJn/h+Yi6M+Ax2fQ9YFun2ZPTQUAYLUG7p9BZYDPjXKkoakVQGF5zWDBYEkydA/qKhxzQ+2kxwelSL8AdvifbSmH2Z+SMIkhCnvy8qfIpgiFTevWydsbwkREEUW2UCRMK058yX7T+G+tZ6Tj6GmfEpveL1FEkiIStCygubF/VZmDXx1paWrxmeuxfe/W6vrK6vpKzToa19OporYcdNHJu7/8f3t3Htb0le4B/GUnCQlLEgKBsEpYZFMWDVqxBqtYUOiI0nEGdWaqY7W906pt7VSt1lvbsdY7tzpW246FXlqldlBBcCEqthIFVEBECLIZQEIIQiBhh/vHT2MMiICBAL6fh8cnJL+c88bH1q+H93eOhZklk2nj4jaLSqFpxGh9Pf3R/kREOh/WW1RRW9mukLc1yTrvd7R05VYJpU0SACCZkBjmLKYFi2HBYlpYMy1YNMqwW0ccbV1vVlwb7rvGnz64tBrE6bAkC6x8dF0MAAB0t0HFcSj5Hmovgpk9cFcCdzXQBjoYiOoEqx6A8fO2/YwGcyoJAD56Y/EQ26k/OXxKFa/f2HlkTr/2Eu1SLU5r7BKIXkCYsCe1mBhISjJdtgx6elpWT9Lb89HzmXAhO78yp7e3x8lGNxsahEWH3sopUm8UUbQohIJcFw9HFw8n9d36ZPIGsaTCyLUtyNXJlCnf+9MOALAws2Ra2Lhw3Gb4zmZasJgWrNHbxnuUEF0iTGABwJ37eUad+gF+s4mXiH9CSJsk0gd1N0XXiMxtbGTCtGAxLaxZlmxHGxcbut0zp3C0ccm8eW5UP8Wo6+0GwXKQ5kDUtXGxBtzXC3cOQ+5W6FaAUzS8eg7s+ACD3pY6LuM1APhxHVIy84heEQ2Xr5eAHpibkVV92JevlxC7Ymcnbt+09+jlGyVv7Dzy8571I5h36P3T5mak5ta2/BJx/4SdkplnTiX5unHwDJoXASbsye5RyNbr7m4LDR38Wv2GBhjuLrho4ptYIdvbYToAVNaV6SRkh4QF7vvwiY35sjJyFS2KsOjfAUBTW4NtIJVqb7Lv2CctSrmpMcnJ24lpwWJasiZonh5Ea4e8quFuoPNLqmeIz6h+jXrmvnbnt7PZp4yNTBxtXBxZLvbWjnYMjsFAK+hVdeVeHL9R/wCjp6cDzi4GeTlEXQOyra6rAbifCb+th+ZS8PorTN8GpnRdF/RcQgPcd30DKZl5+SKxn1oPNLEZX1OL8pvtq4nnm1qUf9lxBAA+emOxH5fz7cerg36/49Slm8TmfepjNrc+8dMnIiJX3m+YA4+7pRNSsoZY4eK5035Izdr1zSmN82WITbKJw26G+aHRhIQJ+wUQEwNJSSbLlpnkPnu/3i5X3e91isbeBArZxobG7vbeVXXlOknYFCplJj/wqiCXaBTp7ukWZl+x49Ga6eIvfvpY2a5wf8XWke3iZOvqaONqY8Ue+wrHTFXDXZa5HcOMNcg1Gplbrmi+Jym/J6nIv3s9I/e0oYGho42LvbWTHYPDZnDIpg/3V6m6XxbC5T9lyHGvWwFpC6BTDlFXdZ9lW8VwZQNUnYIpv4eFqeNiNf25zQlw/2NEyA+pWTGbDny7fTXRlVF1vyFm04GmFqWvG0e1icfmL49V3W/wdeMQ/SSOtoytaxZv+vIYsXkfscBs/uj8RWJ1ec50d3gUkTd/eczJljEnwL2pRfl/p7OItfChIPYNzBeJYzYf+GbbamK5OiUzb/OXxwDgrdfn4wL2CwIT9oshJmZIi9M7dsDRo6NfDRqPHofs0NBxfhjNNOeZ1+4O4Uid0cHjBxXeLsi8eb6iJ79aWgXc9ql+jlQzMw9n/qRP1SrytqYqWSnPdXg5mEYx93aZ5u0yDQDkiuZqaVV1fVWp+E7mzXN6enocayc2g2PH5FTWlW0I3zo6hY+yNgmcfgWMqbDkChjperfB8p/h8hvAmAa/ywP6RP6ZQD9fvBvb1KJMycyb/9c9AOBoyyBaOMzNSN9+/PC4mVOXbiakXgEA1TMA8Nbr809dyrt8oyRm04HsxO0A4MflECvWSzfth0fN08R5kE0tyvlq25V8s331DylZxCnrg7Ogko9/seHPO/596tLNU5duqsoDgD9GhGh3N240nmHCRgg91BEQoOsShsTHIeDor9+KxEVjvGGfpPF+afWde4a3veNYxiY9ZmQaP/BVO6bDC5Kq1VXJSu0tnS0pI7+Ri0Yx96L4ejn5glraFtdXXL192cTI9PrdKzSSuY/jxPgD+VBjAaQvAusZwP8J9HXaDtTVCr+9CeVJEPwZ+PxNl5U8n9AAd4DFjmzNHwUQEfbUpZunMm9W1cqIc2TmBLi/9XqYanm46n4D0Rzi9+Ruet9+vJro91A1mZw/9N5XP52vUtvjz9GWkfPj9v/9MaNAJK683xAa4L44dBrR8jEnwF1VD1Fe6ED77s0JcM9J3P5D6pXM6yVVtbI5093NqaS3X5+Pm/S9UPT6sO8WqezY0XX0aNM774zs3RZ793a5u+OJMxMac+1auHhxnK9hA8C+U9vP3Ex+Y8l/jcGhM0f+9cNvVy/b+9MNLHsopmZcBy8ux8uN4zkGe32MT9293RfvpAQ6z7Eka78LorKuTHTvdqm4RCav93aYPttr/mxPvquNh9Yn0rLqs3DuNZi6AWbousW24SaciwYDY1hwEiw8tTz49R19pce6pmzU8rBIS/RbSwxFeyDi4sP9y5FO4Ro2QmjieWfxjuKaWz+d//dfIt8evVlulFy9U1UoJpU4v2zl6eztxvHicjxNjUmjN+OE0NBSZ2xoMhrxGgCcbFydbFzDAntK7hWV3Lsdf/Grr898PoM7Z653eGRQrIG+wWhM+ryKv4Hf1sOcb4Gr631Ry47CxThwWATzfgRDbPZFSJcwYSOEJqS9q+Pnb5+afvVE+MworQ9+o+Tq9ZJr92XVU+w9FvFe43I8R7Cv82Qla5UwzGxGdQp9fQNPJx9PJ5/WtpaSe7fLa0o//8+WX4TxkUGxkUGxJONxkx17O+HK23A3ERadBfbLOi7m+g64/jFM+xCC/lvHlSCEMGEjhCYoM1PqdxtO/Xn/4qaWxqUv/0FbG+GpsrWP6/SwwEXObDetDDuZNLTWe9j6js1cZiRqgPvMAPeZFbWlheV5+059fDwrfnFwbGRQrDnZcmxqeCpFDZyNhK5WeO0GmOv0z0lfD1z4A1T8B8KSwCVGl5UghB7BhI0Qmqi8OP4XPin+01cRu3/4+7J5Kz0cvZ9nNCJby+RSvymBr4b8js2w11adk0mjoqGlvWnwTfpGgzPbzZntFuDBu1V247uM//klKyEyOHbZrD+Zmepoy477mXDuNbCZDfwfwZCimxoIPR1wLhqk2bDkN2AGPft6hNCYwISNEJrASMbknzZe+Pw/W5IuxAd5hIT4zDU3G/bSpqKt5XzOaZG4KMgz5HdTVljR8Kzjp5K1Sqim5gb6uvm7g82wZzPsgzxD8u/m/nDpX5dvn33jlU2zPOaNdR15u+H6Dgj6FHzfHeupNXS3QdoCaK2C6BygOuu4GISQGkzYaFxrVirP5Oen5eWl5+WpnvTmcGJ5vOU8njl53LRjPrdCsdibw3n2dWgg77+2288p6PC5vfHVX/u5BU7nzqCSaUN8b3mt6PjFHxxtXOPC//oC7rs3RLLWeuKBpKXG1txBt8VY0RgvT1/oxvG8eP3spiOr4ua+uS78gzGaW14Ol1aBvBQiLgArZIwmfZpOOaQtgA4ZRAmBjH90ERpfMGGj8atQLF558KBY9nibUns6vVomKxSLPxKL96SmJr/77iRIpVdEore//z6Wx5sEn0WHFk5/Lcht9qmcoynZR/NLc4eYs9Ovnsi5c2XBjMUzvF4a/EokLBMQD5oUMpHkVqDTSzbmumyksWc6/nHhmrPXTiZc+ld+Zc7X634Z3fn6eqFgL1zfDo5LYMFJMNF1F3i7DFLnQV83LBHq/vBIhFA/mLDROHVFJIreuxcA7On09yIiwv39VSvW6Xl5/0hJuV1dHf3llxc++ohDn9h/u+xJSVH/VwQaMTrVevW8t5fyVqpydgB3pq9bwNNy9s4jmwFgzZJ3RnXp+v24nbdyigDAxcNpf/JnT7ts54YvrgpyAWDF+qUrNiwdwUQnE9KXxIWPtExNifuPJx447hPk9XnCNgCgm1mrv2qgb6jxjArxeUf8KYZrwYwlQZ6z4tMO8t53EH5+b7Smqb0EVzeCshbCksBhHGz531YPp2aDEQ0iMsEYd7lBaDzChI3Go2alctXBgwCw0M/vq1WrNLpBwv39Q7jcqL17b1dX/yMl5atVq3RUJhqPqCTzFXPWPszZOUdviK55O0/j2DhOsX/i1JIfz38HABtf3z4GZ9YQyosrJTVSlh2z/0uKFgURr0dGUiP9ZMPe8uJKLSbs/iwpjAeKBgDQ09NzZXoYGej02EI1VjTGO7Fbv07eu+PY37Yv/x8tjy4+A9c/hvpr4P0WBP237s9CBwBlHZx6Cci2sChdJzdZGvfSpNoAACAASURBVJV+MfaTIjThYMJGaoKDjT7+mJyaqtT1uYx7UlOblUp7Or1/vCaYk8m7li+P3rv3mFC4a9my/teIZTKxTEYjkQZvvWhWKm9XVwPAVHv7wbu6VVdy6HT1VXPi+cEnGmIxAyoUi+VtbRqTomcyMTKNCVm1lBd39uaJ3+5k/HIp0Zxi6cR2nWLnPsXeI7vot7vVxeG86DGL19ZsRn1tg1CQExW3qP+rWRm5AEChkhUtyhEMLqmRlhdXPm+JTwqLDvUJ9jKjPf6Pgmlm06xs7O3r1dczcGaOu8Of48L/+sVPHwe6zno1UEvb1d1LgxufQGM+eKyBBSeBNNbbpwysXQqnXgJTBrx6DgxMx3p2l6V6Yz0lGj480HF8wISN1ISHQ1ISZdkyANBtyCbua1zL5w+SemdxuZ8sWzaLy9W4Jj0v7+34+Gbl46Syls//ZNkyjbcXisVbk5KuiESqZ7w5nP9duVI9BO9JSdmTmpq8cWOWSLQnJUVjQGKhXTVC/7cPWMzmyMjNj35vVZ0wALAnNXVPaurmiIjNkZHEvJsjIsSNjUezsogLlvN4x4RCczK5dN8+jc9yNCvr7fj4hX5+CW+++bTfrheTnp7+wumvLZz+Wn3z/d+KMn69c/7H899ZUhltHa3BnrOCPMbuTjVeWNDJhPSM5MsDJmyhIAcAePygjBOZY1bS4Fh2TI3ldhtze5GkUF/PYFwtYKuQTSm/n//nXT9vZNMdpjnPeK6xKk/AjV3QXAJe62DhKTAd4McOutHRCKfmgCEZXj2vg3gNAJZTIWCqDuZFaALChI2eFBNDhGw9AIWOQnahWEz0JS/y9x/8yrV8vsYzRDYFgOU8ngOd3tzWlpaXd0gguCISXfjoI/Up5u3aBQD2dPrrPB4ApOXlEU/Gr1sX/uS8W5OSCsXiEC53Fpd7Syw+k59/SCAg3tIHsIbPB4CjWVmFYvHb8fHqs3yUlHRYIFAv5mhW1p6UlEKxOH7dOgBwoNM3R0T8JBRWy2TE+CHuj5cGs0QiIr7TSCQA+GrVqvS8vGalMj0vT6PCwxcuDOW360VmbW77Gu+Pr/H+WFlf+vl/tjS1Ny4chZMgB8HjB2UkZw7YKEK0iLh4OA7YQAIAkhrpVUFua4uC+NbVw2kmP1D1anlxZUVxFfGYaPj2CfJSH7y8uKoguwgAWHZMnyAvjVkkNdL6Wqk1m2lGI2ckX25tURDjE89TqGQXDyfiShrJ0kDfsK+3945AnNNUMmAxujXF3iN02iv7T+/6bkPKs6/W0NsFtZeg6iRUnYLOZpi6ASIyxleLc0cjpMyFvh6IvAhGY/SzF4TQiGHCRv3ExEBSEnnZMtBRyG5uayMeDLcvQiyTEfE6eePGWVwu8eTmiIiovXsLxeI9KSmbIyOJJ9+OjweA5TyeqodbtXL8dnx87pPr4oVi8f+uXBkb8nC9k8jNhwSCEC43ft064spYHm/erl2FYvEVkYiY+opIdFggoJFIJzZuVC1sE8Wk5+UdzcqKDQnh0OmbIyOviETVMtksLldVHuGKSKSqkPgnR7i//zGhMO3JhC2WyQrFYhqJpKoQDcLJ2q29u93Vjjv2UxNL1P0bRYgWkbDoUIVcs0VE0aI4vDvhfLLmwjaFSvk8YSuRfQ99mkAEawB4P24nAKTdOUp8W15c+eWWrzUaSFZsWLpi/eN7EDOSMxMPHF+xfqlQkKu6cn/yZ8KMXPU7HYliGsrl4jt1v8XfUh+QZcfcun+jKojrlj3TIfPmuQa5hEEbWlNHpxzunYaqkyBOBz1DcIyAkH+C/UIwJI1ypcPU2Qwpc6GzCaKugYmVrqtBCD0bJmw0EJ2G7KySEni0cKuBaErWeFLVo/z3Y8cAYA2fr4rXAGBOJie8+WbAhx8evnCBiLDEejONRNr1ZOvI5shIYjn5qFCovjo+1d5ePbyG+/sTK9PqTSzeHM5Ue3uiUZtwKCODuEa9b8ScTH4vMnLlwYNbf/55KIFYVSHxAdfy+ceEwjP5+c1KpWpqYkE9HBewh6ZJ0VgsLgjxCx37qXlhgRknMvs3ijxuEemXpA99mpBxIpNCJa/ZspJYe5bUSBP3/1xf2/Dllq+JnUnWfhhXkF10eHcCAHwWv031XkmNdEP0BwAwkx9IzCipkR7eHZ+4/3irXLF2y0risj7oMzDWT/35bHu7cuar08hmprKGRgPLXqVBs+UUkqF1d8Hd69093d09XSk/ngFqd2+bXuz2BeYW5vr6Bq0PFBnJl9taWr47eOSvf/+ToYGhoYGhHqnX2MygV6+7q7vL0MBQT29MG3dd7dxNjUn5lTl836f8j6ujEaQ50JAHjfnQkAfNIqDYgVMUvHICbOeAnsFYVjtUXa1wOgyU9yHqKpBtdV0NQmhIMGGjp9D1Snb/JA0AHyUlZal1ThOI3mUAIAJu/6zJodNpJFKzUkmc6kKsB8eGhPRv8n6dx9uTmpqel6eesJ92e6LGRBqjncnPBwD1rg/1d6l3Zj9N/5svvTkcYkfw9Lw8VUBX9aw/c0AEAIX3bpBMyPZMHZyZwuMHUahkjUYRokWkf/MGAEhqpERb9ucJ29RXiF09HTdEf6Bab3bxcGp9tPjtG/y4P2TfhwcNTPTDf/9y5Kr5ynaFor2VZNr9+88W/JpxRdSe+1VSXXdfp7Jd0UPpCfqbHQAAWAA0KAFIjhCfdlCfpO/1OxtD/b6LN84YGhjp6xuwfGgG+oYmJOOO3ubaNll3T1c3dHMjmF1dXb3QduT0fmJe8kyYPpNdAdd3/3AdAEyNSWRTCsXU7NGvZhQShWxqRjElfjUjm1IM9LWZa+2tHUmFX4DyInS3Q08b9LQ/fNDdBk3F0CUHCy+w8gbGdOCuAksvoOhyV+9n61ZC2isgL4PFvwLNVdfVIISGChM2ejodhewQd3dITR3wJY2wq7GkTURn1b2D/RH9J7fEYgAwH2iNnBhfI9w7DH8TD1WAHqQYVT/J0wx4l+daPn9rUlLao4R9RSQSy2T2dDqeVjNEtY33LM109kP2/o0iRAdIWPQAa+pmNPLW/RslNVKNBgzVtwXZRUSk7u7tMmMbk+hG53NSG5okLUq5vLWZPEcRNNeuAURHTouMjUwoRJwlUV5+9aWHSdfUjEKiGBmaEGvPhgZG6g+Gu/bc09vT3dPV3dNNLHirHrR1KJVtCkV7q6K9Vdne+kDaSDxQtLf29fUR71WlcCsag2nJYlqwmBY2FmYjPNLFisbwUyRDpRjIbCDbAMkGrNhAsgEKG2hTJlhI7WmH9HB4UASLfwVLvMUQoYkEEzYa1KOQbVRSAs/6G9egvr6r35LtCKgSbf9b+jT6OqL27u2/pB3y9NgqbmgALnfA1XECjUwGgHsNDcOtWXOiRyfIDFLMgBH/mWJ5vK1JSWfy88UyGYdOJ3YawQXsoZvmMnPfqY9b21rMSDrY2Lh/o0hG8mUACAkb4GZBCpXC4wepviXuWZTUSAuuF1LtTUh0o1t11wrOXmlolsgVzd5/YBnqGd9vqGZasBxtXR/m6Ucx2tDAaLQ/moG+gYG+gclw5lF2KNTDt6JdIX1Ql1+aK22SAICRoTHTgsW0YA03c1fev3si5H9WzFk7sg8yjvR2wplIaLgBkZlg5aPrahBCw4MJGz1LTAwkJRn961/PvLCvsVErE3LodKKnOa1fwh6KzZGRg68Ne3M4/XM5gWgBf/71YNUIX61apd19rM3J5IV+fmfy89Py8tby+UQvCu4iMnRutl4WZlZVdWVTnXXwm6bRKELsYz2TH0ihPvXckIwTmYLTlxraJMZWfSS6EZlhZOiiP9XF2lDPuFNfaUNjuztOJZLomO3trS1kEwrZhMKAAc6GlDZJHn4NlLlt6HYubDemxQD3MjbKG+of1Pk5BfV/aYLp7YZz0SDJgogLwJiu62oQQsOGCRsNQUwMxAzhEIdZs7Q14Vo+/+34+GNC4SJ//6GH7BAuN0skKhSL+yfsPamp5iTSch7PnEwmFo/T8/M19u4AgHsyGQx/D5MBEQ3TV0pKNO5obFYqD1+4oCpmBCO/HhJyJj//mFDoQKc3K5UL/fzwMJph8XcKrryvm4QNTzaKqO5x7H9Ze2ebuL7yl6RfmntkpBBDDlDoJJadDcfOhjNB8/SwEJ9R/Rn1zH21MPPstZNmJKoL282Z7caxdrKiMYjLqurKragMb4cJHkn7eiAjBmouwKvnwfr59vZGCOkIJmw0HsWGhBwVCrNEorfj4zfLZGv6dUEQG/NpLEWH+/tniURfpKbGPhleDwkEe1JSaCTSch6PGPyQQKC+sx6hUCw+JhSClpaEiZsm96Smhvv7qxdzWCDYk5pqT6f3/1BDFO7vTyORCsXin7KytFXtC2W21/zPfnnfw9FHN3v2qTWKaLSI9EEfzcHkgVHND2cOVdy/CwBW9swAZz6RI/X19Me+2vFDI3PL5NKK2rsVtaWC3LTWthaGubUz282OYZ9fmhsZGKvDOrWgtxsylsK9dFiUDjazdV0NQmiEMGGjcSp+3bqVBw9miUQfJSUdEggW+ftz6HQHBuOWWFwoFhMbaABACJeriqpr+fxDAkG1TDZv167/Xr6c5+YGAIcvXCCOY9wcGUkkXQ6dvpbP35Oauurgwc0REcQaOTERACz089PKzndr+PyfhEKxTBb95ZfvRUby3NzkbW1HhUJix+731O4cJVag0/PzQU+POHfmmYPHhoQcFgjO5OfjNtgj8GpAzPWyrDThf95a+sHYz65qFCnILiovrgyLCm1qlxVU5YrrK8VUkVestaFlD92cOd19hjPbjWzy1O6RFxydxqTTmIEePACobRCX15ZW11fdKrvR3tkmNLrY3qX0cQwMdnuJSjLXdaXD1NMB56Kh9gKEpwF7nq6rQQiNHCZsNE6Zk8knNm7ck5JySCAQy2TErs/q7On09yIiNPLlyY0b3/r++yyRKO7JxvE1fL767YBEf8ie1NSPkpKIYE1YzuPt6ne++ojrf1oxnyxbpl72In//Y0JhoVj88OTIjRufOXgsj3cYt8F+DtuW7YvaPfPI6QOrX10/9rOHRYeeTEg/sOeQHY9mMk3xXepXTAsbjrVjeEiUo42LJRV7foaHzeCwGRwA6IO+ytq74vqq6xVZJ7N/MjI0nuUxb7bn/Fke80yNR9KRNda62yBtATTcgFfPg81Luq4GIfRcMGGjcW1zZOTmyMj0vLxCsfiWWCxva6ORSD4cTri//4D3I3Lo9BMbN6quNyeTHeh04vTE/iPHhoQczcq6J5OJZbJZXG7/MUPc3Tf329OaOOq8/9SxPN4sLld9a78hFhPu75+8cSNxkyXxEjHvIN3V3hwOh04Xy2S4i8iIHX4zecmnM37NE7zkP6a/h9Imid0M2nQDjjETWBZOHs7eU+zc7XSxP/fkowd6zmw3Z7YbALR1KO9WF9+tKdn9y3smRqYveb4S4jEvxGOeocF4/VuvUw5pC6CpCBZnAiNA19UghJ6XnmpHUoSeU9+sWW10uk6Op3nRFIrF83btmmpvf3HrVu2OzFy7Fi5ehLlztTvs+CRpqlmxb76NFft3L//B1Hi0Tsl+P27nrZyij7/b1GfRfrf6TlmNyI7pMMXeA4P12FBF7fKaUiqJNtszLMRjHs/9ZV3X9aR2GaTOA2UNRFwAK19dV4MQ0oLx+q95hNDTEc3cuID9nFgWdhk7iv6RvOUfiduW81e5O4zKiR4r3o0qqna+XHXaQmbhxvGaO20BBuuxRDIh+7hO93GdTkTtKsnd5O//L8jtpcVBsS/7LHr2+8dASyWkvgzdSlgiBHM3XVeDENIOTNgITRiHBAJ5W1tWSckVkcieTscmbK14L3q3h53v7l/en+MbNt1jJo2itXvjpE2Sm6LsvNJsWwZnQXCkj+sE30JuglNF7QDPmXcqbu3+5f3jwvjFQbELpkXrsixJFpyJABILIi+DGZ7MitDkgQkboQlDrlQSq9c0Eilh3bqRbaeN+lsc/Lo9w/mr1E/+nfrVNLcZns4+1pY2zzNgnazmZmn2TVG2G8cres7v3Tie2ioVPT9rSxtrS5tp7sFFFflfn/3HL8KEyKDlkUG62OPvbiJcWgW2c+GVZDCazBucI/QCwj5spDXYhz3axDIZcUz6gPduasUL1Yfd34lrP568llh6vyjQPcTT2ceB5TyCQS7nZVy6eXYaN9hvSuDIRkBjprOr41bZjcKyfAaV9cYrG8fuMMjeThC+C7cPwNQNEPJPeLE3O0doUsKEjbQGE/Yk8IInbAKRs4trbvm7Bnk6+wx9Bbq7p/uY4EhZjei10BXeLtjDM2Eo2xWX8wTXS4RrFmyKm/vmqM/Xeg/ORYEsH+Z8C+6rR306hJAuYMJGWoMJexLAhK2iytm2VvbOdlO4HK/BF6QrakuPCo5Y0RgxL8epDvFGE0husTBN+J9ZHvO+WP39KE5TkwHnl4KJJfCP4onoCE1imLCR9vz8MyxbpoyMxJA9cWHC1pBVfCGr+MKVO4K6phoHlournZsbx8vGiq1xWWbe+cyb53xdA6LmjGI7L7HxHwCw7JhHMr562mUnEtIO704AAJ8gr88Tto1gooLsIt9gr5GWOcBoH6zcOYJiEvcfTzxwfMX6pSs2LNVWMYOrbaj+NuWfFFNqxo7b2h+9XQq526HoIPj8DYI+BcPR2iASITQeYO8X0p6YGEhKIqekUFJTdV0KQtoR4jFvU9SupPcyP4s77O8QnF96/fDJfYnnvr1W9Ku0qY64RiypzLx5bsbUl0Y1XquT1EjLiyuf9urJhPTnGXzfhwc/WLnzeUaYuNgM+22r9yjaWzYeWaXNcbsVkLsVfnSC+mxYfBl4+zBeIzTp4V4iSKuIkL1sGQDgSjaaNIwMjEOnLgydulDZoSBWtX8ryDh77ZS1hY2VOaO4qtCF7bYgePFYlnQ+OXPtFqf+z5cXV0pqpM858vO8vT+WHXPF+qXWdkztDjt6lr78x+MXfziV/dPi4Nefd6zeLrhzCG58AkY0mHsEXJZpo0CE0ASACRtpW0wMpKWRFy0CDNlo0iGbUML8IsP8IhUdrbfv3bhZkX0y+0c7psMfFqwZsxpm8gOvCnKvCnLXblnZ/1UiH7t4OJYXV41ZSYNj2THHrM1DK7ycfHneobt/ed+e4TzdZeZIh+mDsmOQ8xF0tULAdvBYA/r4Fy5CLxD8Dx6NgvBwuHKFPGsWYMhGkxTFxCzYbc410a+mxqToOc+90jkcrh5O5XcqiUYRFw/NZeyrglwKlczjBz0tYd/KKSrILiIe+wZ7+QQ97reW1Ejra6WqywDAxcORQqWoX1BRXFVWXOkb7KXxEgAoWhTlxVXWbCbLjplxIlNSI+XxA108nIjnKVRy/2pVxZhRKT7Bnv0v0JX5QREtSvn+07v+/dbwe97qs6H8Zyj/GTpk4LsJ/DaBIeXZ70IITS6YsNHoCAmBwkKytzdgyEaTV3FNAYflOPY7h/DCgk4mpPdvFCFaRMKiQgd81/nkzMO7ExQtCtUziQAsO+bW/RuJaJuRnJl44Djx0vtxOwHgs/htxC2PihbFl1u+FgpyVG8EgBUblq5Y/3hxuuxO1Qcrd65Yv7S+VkospSfuP751/0YKldL/TsfEA8dPxKerFwNPFqNz3i7+RzOONMglDBprSG+Q5jwM1ooasJ8PgTvB+TU8RwahFxYmbDRqpk6F6mqyvT1gyEaTVFld8csBC8d+3vnRoScT0vs3ihC5lhcWWH5HcwFbtcHIkrhw32AvCpUiFORkJGdKaqSfbNhL7EziE+y1ApYSIZuIziw7JgAoWhTvx31SXlxpzWZErVzk4uF0K7voREJa4v7jrXKFRg3EsrQ1m8Gysy4vrvQN9irrVwyxSQiFSl4SF87jBylaFAXZRUQxX275en/yZ9r97RoZF7aboYFRfmUO33fA/331QXMpNNyAhpvQcANkN6GjCdhzYdrfwSUGjM3HulyE0DiDCRuNJjs7aGkhU6nklBRdl4KQlkmaapoVD9gM+7Gf2sXDyZrN6N8o8rhFZIBQ+wsArNkSFxW3iHjGN9grKm7R6rC3JDVSYns+4uthwlbrnD4Rn15eXOni4fh5wjaiM8Q32CssOvT9uB0nE9J5/CD1rf0KsovCokLf3b1ukPpPJKQDwNb9m1Rv5PGD5keHboj+gFiGZ42D2yINDYxc2G73i5OA0godjdDx4PGvbVKQ5UO3AshssJ4BdvNg2hZgBuOKNUJIBRM2GmVmZlBRAZVP3VkMjTu4GfbQNLY0AACNrJvVyv6NIgXZRYO0iETFhbe2KFTxmsCyY1qzGfW1DYPPRWTuNVtWqjdes+yYKzbE7Pvw4ImENI3Nswe/r1FSI42KCwcAjXep/qkwThI2AFhS6XObT8OVM2BiCaZ0MLYAE0ug2APdH/w2AWsWkKx1XSNCaJzChI1Gn5MTOI2LxkqEtMiZxQWAusYaB5bL2M/ev1EkIzkTAKJWhg94vUbqJe4+LL9TpaenN/hEqtsi9fQe3v6oomxRAkDFk7dUWrMZg+fj/luLEMWoJho/qurKzgVu+xP/v3RdCEJo4sGEjRBCI2FqTLKjO9yX6SZh928UEQpyrdmMQW4TlNRITyaklxdXlt2p0rjFcBCqK4l7HwccVv1blt2QlnULsouuCnLLiyvHYbAmNLU+qGus9XfGg80RQiOBCRshhEZoiq1XnaxWV7PPj56beOA40SgiFOQoWhRh0XOedvH55Mx9Hx4kHluzGT7Bnq4eTrywwEOfJmisTGtolSuJt8yP1lr70OHdCScS0ojHLh6O1nZMopgN0R9oa4rnV1VXRjImeztM13UhCKEJCRM2QgiN0BRbzyMZ//R09OE6eD37am0Liw5NPHCcaBQRZuQCwPzogZuwy4sriXi9Yv3SqJXh6u3UzzyY5tF2Im3aOjWmILuIiNdrtsTNjw7V2FR7nOjq7sy5kxXkNtvY0FjXtSCEJiR9XReAEEIT1V/C3lkS/PqJX482ymVjPzvLjuni4Ug0igzeIkLkbxcPxxUblqonWkWL4pntIq6ejvCwVVrzfuWC7KJ9Hx5UbaE9RLeyiwDAJ8grKm6RxnE2wxpnVP1yKbGtXblpyS5dF4IQmqgwYSOE0Mi999puGwu7hDNf62T2sOhQAPhyy9eKFsUQujg0b2okdsgekCp5U6gUYn+S/hcf3p1wPjlTUj2SZKxoUQ69mDGWkXNaJC7ateIg09xG17UghCYqTNgIIfRcDv71uFzR9O/T+8d+ah4/CACI1eWwp7SIAAAvLJC47PDuhPLiSkWL4qog95MNe4kTauDRujKBQiUDwJdbvk48cJxYV16xYSmFSi7ILtoQ/cFVQe6tnKKrgtwPVu4sL66kUMnD7R7xCfYiikk8cFxVzAcrdwoFOcTUulVWU5JVeOnP89+Z7jJT17UghCYw7MNGCKHnYkGx+mb9iTcORH2a8OGfIjbYWLHHbGqiUaS8uMrFw3GQPfJcPJze+XQdsXe16hZDCpX8zqfr6mukqiRNiIpblHjguFCQIxTkWLOZ86NDWXbMzxO2EfdE7tzwhepKazZj24FNw9272jfYa8X6pYkHjifuP564/7hqqK37NwozcjNOZAoFORpbZY8ZQW7alVsX+b4Rfwl7RycFIIQmDb2+vj5d14AQQpPBGweiCu/dWDBj8Qyvl0Zj/PLiyla5kmXHVA+1khopcURL/yfNaGT1zmxJjVQoyFHIlQDg4ulInJ2uaFEQp5qrh9ry4kqidTssOlR92ILsovLiStUIxAq6CjGUxqRPe15SI814tIKuGkqj7AE/2iipa6xNFyaL6yvfXbIzJmTVaE+HEJr0MGEjhJDWHEj79P8yv57q5B/iG2pL18GB6mgErhX9evbaKQ973y2/+5zLnqrrchBCkwEmbIQQ0qbfis5/J/hncXXBdPeZAe4zMGePZzdKrt66e/OetHL5rD/9V+Q2XZeDEJo8MGEjhJD2peYmpeQcLajMDfac7ecWgDl7vCGydd2D2sVBsZFBsW5s3XR+I4QmK0zYCCE0Ws7lnUzJOZp798pMr1CfKf6Ys8eDm6LsW3dvyOTSxUGvRwbHOjJddV0RQmgSwoSNEEKj61JhekrOsaziC1Md/Tk2jlPsPaxoDF0X9cK5W11cdb+irKakq7tzcdDrkcHLbS05ui4KITRpYcJGCKGxUHjvRlbxhd/uZJTWFrnZe7racTFqj4G71cV3a0oqa++2KOWzPPkhHvNCPOaZky11XRdCaJLDhI0QQmPqZsW1rDsXfr1zrqq+jIjazmw3pgVL13VNHp1dHfckFXdrSsprSptaG3nuc2d7zZ/lMY9OtdZ1aQihFwUmbIQQ0o2c0l+vFF+4XHTufqPYxorNZjpwrB2dbFzNzXCFdSQq75eJ6yvE9VU10nttHcoZ3Dkveb0yy2OejSW2vyOExhombIQQ0rGCytyCqty8iqs3yq62dSpt6fb2TAcn2ynO7CmmxiRdVzeu1clqymtL79VX1NaLW9tb3Nhe01xm+joGeDsGsMzH7nBNhBDSgAkbIYTGi46u9oKq3ILK3OzSywWVuQDgYO3CsXF0sXVzZrvpurrx4kFLY0Vt6T1JZVXd3WZFE9vKYQZ3jp9TkI9jINsKb15ECI0LmLARQmg8kiubCqpys0t/zRZdrpKWAQDLks0wZ1Ip5nQaw8qcSacxaRRzXZc5urq6uxrlUpm8QdYsbZRLWxQt9U11rW1yC4pVkNvsoCmz/Z1ncBjOui4TIYQ0YcJGCKHxTtJUe1t8s0JSWllfSvza09sDAMaGxnRza0uqFd2caUVj0mkMujmTZELWdb0jJJNLG5sbZHKpTN7wQN7QKG9oan1AvGRrae/M4jqzuM4sNy57qpstHhCDEBrXMGEjhNDEc09aXllfWvEocFdISju7O4iXTIxMaRRzMxLNjGxGJZmbkWlUY2mhTQAAAoxJREFUtS9DAyMdlq1ob21VylvUvlrb5K1tLS1KuVzRpLrMxtLOheVO5GkXa64zi4v96AihiQUTNkIITQa1jfcq6ksrJaVSueSBQtbUKnvQKnugkDUpZN093arLKKZmNIoFjWxBI9NMTEwNDY309fT19fX19Qz09fUfPdbX1zdQe/z4mT7o6+3t6e3r7e3tVfu158lve3v7Hj6jbFd0dLS3KJubFU3NigfE0jvBzJRqYUa3ojAszOiWFCsLMzqH4Yx5GiE0OWDCRgihSa61Tf5AIXsYuxWNTa0y1bdtncrO7o6Oro7O7vaOro7ObuKrs6+vd1hTGBoYGRsaGxuaGBuZmBiamhiZGBuaGhua0MgWRHq2pNAtKXTigYWZlSWFrtvVdIQQGlWYsBFCCGnq6unq7O7o7Oro7O7o6G7vfBS+DfQNH8VoE2Piy8jE2NBEX09f1yUjhNA4ggkbIYQQQgghbcJVB4QQQgghhLQJEzZCCCGEEELahAkbIYQQQgghbcKEjRBCCCGEkDZhwkYIIYQQQkibMGEjhBBCCCGkTZiwEUIIIYQQ0iZM2AghhBBCCGkTJmyEEEIIIYS0CRM2QgghhBBC2oQJGyGEEEIIIW3ChI0QQgghhJA2YcJGCCGEEEJImzBhI4QQQgghpE2YsBFCCCGEENImTNgIIYQQQghpEyZshBBCCCGEtAkTNkIIIYQQQtqECRshhBBCCCFtwoSNEEIIIYSQNmHCRgghhBBCSJswYSOEEEIIIaRNmLARQgghhBDSJkzYCCGEEEIIaRMmbIQQQgghhLQJEzZCCCGEEELahAkbIYQQQgghbcKEjRBCCCGEkDZhwkYIIYQQQkibMGEjhBBCCCGkTf8PHD8w6l9nHn4AAAAASUVORK5CYII=;rounded=1;" parent="1" vertex="1">
          <mxGeometry x="1110" y="-148" width="608" height="434.55" as="geometry" />
        </mxCell>
        <mxCell id="Qi1k_qb2-SxPD-QYgAsk-1" value="camera" style="whiteSpace=wrap;html=1;align=center;verticalAlign=middle;treeFolding=1;treeMoving=1;newEdgeStyle={&quot;edgeStyle&quot;:&quot;elbowEdgeStyle&quot;,&quot;startArrow&quot;:&quot;none&quot;,&quot;endArrow&quot;:&quot;none&quot;};fontSize=17;rounded=1;" parent="1" vertex="1">
          <mxGeometry y="280" width="120" height="40" as="geometry" />
        </mxCell>
        <mxCell id="Qi1k_qb2-SxPD-QYgAsk-4" value="..." style="whiteSpace=wrap;html=1;align=center;verticalAlign=middle;treeFolding=1;treeMoving=1;newEdgeStyle={&quot;edgeStyle&quot;:&quot;elbowEdgeStyle&quot;,&quot;startArrow&quot;:&quot;none&quot;,&quot;endArrow&quot;:&quot;none&quot;};fontSize=17;rounded=1;" parent="1" vertex="1">
          <mxGeometry x="-640" y="400" width="120" height="40" as="geometry" />
        </mxCell>
        <UserObject label="startRenderLoop(render)" treeRoot="1" id="Qi1k_qb2-SxPD-QYgAsk-6">
          <mxCell style="whiteSpace=wrap;html=1;align=center;treeFolding=1;treeMoving=1;newEdgeStyle={&quot;edgeStyle&quot;:&quot;elbowEdgeStyle&quot;,&quot;startArrow&quot;:&quot;none&quot;,&quot;endArrow&quot;:&quot;none&quot;};fontSize=17;rounded=1;" parent="1" vertex="1">
            <mxGeometry x="160" y="40" width="200" height="40" as="geometry" />
          </mxCell>
        </UserObject>
        <UserObject label="&lt;font style=&quot;font-size: 15px;&quot;&gt;configureCameraFrustum&lt;br&gt;配置相机视锥&lt;/font&gt;" treeRoot="1" id="Qi1k_qb2-SxPD-QYgAsk-8">
          <mxCell style="whiteSpace=wrap;html=1;align=center;treeFolding=1;treeMoving=1;newEdgeStyle={&quot;edgeStyle&quot;:&quot;elbowEdgeStyle&quot;,&quot;startArrow&quot;:&quot;none&quot;,&quot;endArrow&quot;:&quot;none&quot;};fontSize=17;rounded=1;" parent="1" vertex="1">
            <mxGeometry x="-120" y="100" width="200" height="40" as="geometry" />
          </mxCell>
        </UserObject>
        <UserObject label="&lt;font style=&quot;font-size: 15px;&quot;&gt;getDefaultSkyBoxUrl&lt;br&gt;获取默认天空盒资源地址&lt;/font&gt;" treeRoot="1" id="Qi1k_qb2-SxPD-QYgAsk-10">
          <mxCell style="whiteSpace=wrap;html=1;align=center;treeFolding=1;treeMoving=1;newEdgeStyle={&quot;edgeStyle&quot;:&quot;elbowEdgeStyle&quot;,&quot;startArrow&quot;:&quot;none&quot;,&quot;endArrow&quot;:&quot;none&quot;};fontSize=17;rounded=1;fontFamily=Helvetica;" parent="1" vertex="1">
            <mxGeometry x="-120" y="160" width="200" height="40" as="geometry" />
          </mxCell>
        </UserObject>
        <UserObject label="&lt;font style=&quot;font-size: 15px;&quot;&gt;configurePixelRatio&lt;br&gt;配置像素比&lt;/font&gt;" treeRoot="1" id="Qi1k_qb2-SxPD-QYgAsk-12">
          <mxCell style="whiteSpace=wrap;html=1;align=center;treeFolding=1;treeMoving=1;newEdgeStyle={&quot;edgeStyle&quot;:&quot;elbowEdgeStyle&quot;,&quot;startArrow&quot;:&quot;none&quot;,&quot;endArrow&quot;:&quot;none&quot;};fontSize=17;rounded=1;fontFamily=Helvetica;" parent="1" vertex="1">
            <mxGeometry x="-120" y="40" width="200" height="40" as="geometry" />
          </mxCell>
        </UserObject>
        <UserObject label="&lt;font style=&quot;font-size: 15px;&quot;&gt;configureCanvasSize&lt;br&gt;配置画布大小&lt;/font&gt;" treeRoot="1" id="Qi1k_qb2-SxPD-QYgAsk-14">
          <mxCell style="whiteSpace=wrap;html=1;align=center;treeFolding=1;treeMoving=1;newEdgeStyle={&quot;edgeStyle&quot;:&quot;elbowEdgeStyle&quot;,&quot;startArrow&quot;:&quot;none&quot;,&quot;endArrow&quot;:&quot;none&quot;};fontSize=17;rounded=1;fontFamily=Helvetica;" parent="1" vertex="1">
            <mxGeometry x="-120" y="-20" width="200" height="40" as="geometry" />
          </mxCell>
        </UserObject>
        <UserObject label="&lt;font style=&quot;font-size: 15px;&quot;&gt;configureCameraFrustum&lt;br&gt;配置相机视锥&lt;/font&gt;" treeRoot="1" id="Qi1k_qb2-SxPD-QYgAsk-16">
          <mxCell style="whiteSpace=wrap;html=1;align=center;treeFolding=1;treeMoving=1;newEdgeStyle={&quot;edgeStyle&quot;:&quot;elbowEdgeStyle&quot;,&quot;startArrow&quot;:&quot;none&quot;,&quot;endArrow&quot;:&quot;none&quot;};fontSize=17;rounded=1;fontFamily=Helvetica;" parent="1" vertex="1">
            <mxGeometry x="-120" y="-80" width="200" height="40" as="geometry" />
          </mxCell>
        </UserObject>
        <mxCell id="Qi1k_qb2-SxPD-QYgAsk-21" value="" style="edgeStyle=elbowEdgeStyle;rounded=1;orthogonalLoop=1;jettySize=auto;html=1;elbow=horizontal;startArrow=none;endArrow=none;fontFamily=Helvetica;fontSize=15;fontColor=#999999;entryX=1;entryY=0.5;entryDx=0;entryDy=0;" parent="1" target="Qi1k_qb2-SxPD-QYgAsk-16" edge="1">
          <mxGeometry relative="1" as="geometry">
            <mxPoint x="120" y="-60" as="sourcePoint" />
            <mxPoint x="120" y="-79.28" as="targetPoint" />
            <Array as="points" />
          </mxGeometry>
        </mxCell>
        <mxCell id="Qi1k_qb2-SxPD-QYgAsk-22" value="" style="edgeStyle=elbowEdgeStyle;rounded=1;orthogonalLoop=1;jettySize=auto;html=1;elbow=horizontal;startArrow=none;endArrow=none;fontFamily=Helvetica;fontSize=15;fontColor=#999999;exitX=0;exitY=0.5;exitDx=0;exitDy=0;" parent="1" source="Qi1k_qb2-SxPD-QYgAsk-6" edge="1">
          <mxGeometry relative="1" as="geometry">
            <mxPoint x="150" y="60" as="sourcePoint" />
            <mxPoint x="120" y="-60" as="targetPoint" />
            <Array as="points">
              <mxPoint x="120" y="50" />
            </Array>
          </mxGeometry>
        </mxCell>
        <mxCell id="Qi1k_qb2-SxPD-QYgAsk-23" value="" style="edgeStyle=elbowEdgeStyle;rounded=1;orthogonalLoop=1;jettySize=auto;html=1;elbow=horizontal;startArrow=none;endArrow=none;fontFamily=Helvetica;fontSize=15;fontColor=#999999;" parent="1" edge="1">
          <mxGeometry x="0.3333" y="40" relative="1" as="geometry">
            <mxPoint x="120" y="180" as="sourcePoint" />
            <mxPoint x="120" y="52" as="targetPoint" />
            <Array as="points">
              <mxPoint x="120" y="110" />
            </Array>
            <mxPoint as="offset" />
          </mxGeometry>
        </mxCell>
        <mxCell id="Qi1k_qb2-SxPD-QYgAsk-24" value="" style="edgeStyle=elbowEdgeStyle;rounded=1;orthogonalLoop=1;jettySize=auto;html=1;elbow=horizontal;startArrow=none;endArrow=none;fontFamily=Helvetica;fontSize=15;fontColor=#999999;entryX=1;entryY=0.5;entryDx=0;entryDy=0;" parent="1" target="Qi1k_qb2-SxPD-QYgAsk-10" edge="1">
          <mxGeometry relative="1" as="geometry">
            <mxPoint x="120" y="180" as="sourcePoint" />
            <mxPoint x="120" y="200" as="targetPoint" />
            <Array as="points" />
          </mxGeometry>
        </mxCell>
        <mxCell id="p0PnFZSM7e9ZvWcL8xGm-5" value="&lt;font color=&quot;#000000&quot;&gt;skyAtmosphere&lt;/font&gt;" style="whiteSpace=wrap;html=1;align=center;verticalAlign=middle;treeFolding=1;treeMoving=1;newEdgeStyle={&quot;edgeStyle&quot;:&quot;elbowEdgeStyle&quot;,&quot;startArrow&quot;:&quot;none&quot;,&quot;endArrow&quot;:&quot;none&quot;};fontSize=17;rounded=1;labelBackgroundColor=default;fontFamily=Helvetica;" parent="1" vertex="1">
          <mxGeometry x="480" y="400" width="120" height="40" as="geometry" />
        </mxCell>
        <UserObject label="&lt;font style=&quot;font-size: 15px;&quot;&gt;configureCameraFrustum&lt;br&gt;配置相机视锥&lt;/font&gt;" treeRoot="1" id="p0PnFZSM7e9ZvWcL8xGm-7">
          <mxCell style="whiteSpace=wrap;html=1;align=center;treeFolding=1;treeMoving=1;newEdgeStyle={&quot;edgeStyle&quot;:&quot;elbowEdgeStyle&quot;,&quot;startArrow&quot;:&quot;none&quot;,&quot;endArrow&quot;:&quot;none&quot;};fontSize=17;rounded=1;fontFamily=Helvetica;" parent="1" vertex="1">
            <mxGeometry x="-120" y="-80" width="200" height="40" as="geometry" />
          </mxCell>
        </UserObject>
        <UserObject label="&lt;font style=&quot;font-size: 15px;&quot;&gt;configureCanvasSize&lt;br&gt;配置画布大小&lt;/font&gt;" treeRoot="1" id="p0PnFZSM7e9ZvWcL8xGm-8">
          <mxCell style="whiteSpace=wrap;html=1;align=center;treeFolding=1;treeMoving=1;newEdgeStyle={&quot;edgeStyle&quot;:&quot;elbowEdgeStyle&quot;,&quot;startArrow&quot;:&quot;none&quot;,&quot;endArrow&quot;:&quot;none&quot;};fontSize=17;rounded=1;fontFamily=Helvetica;" parent="1" vertex="1">
            <mxGeometry x="-120" y="-20" width="200" height="40" as="geometry" />
          </mxCell>
        </UserObject>
        <UserObject label="&lt;font style=&quot;font-size: 15px;&quot;&gt;configurePixelRatio&lt;br&gt;配置像素比&lt;/font&gt;" treeRoot="1" id="p0PnFZSM7e9ZvWcL8xGm-9">
          <mxCell style="whiteSpace=wrap;html=1;align=center;treeFolding=1;treeMoving=1;newEdgeStyle={&quot;edgeStyle&quot;:&quot;elbowEdgeStyle&quot;,&quot;startArrow&quot;:&quot;none&quot;,&quot;endArrow&quot;:&quot;none&quot;};fontSize=17;rounded=1;fontFamily=Helvetica;" parent="1" vertex="1">
            <mxGeometry x="-120" y="40" width="200" height="40" as="geometry" />
          </mxCell>
        </UserObject>
        <mxCell id="yVJXbOSST7ZACjrLtC8i-2" style="edgeStyle=elbowEdgeStyle;rounded=1;orthogonalLoop=1;jettySize=auto;html=1;startArrow=none;endArrow=none;strokeColor=default;exitX=0.5;exitY=1;exitDx=0;exitDy=0;entryX=0.5;entryY=0;entryDx=0;entryDy=0;" edge="1" parent="1" source="yVJXbOSST7ZACjrLtC8i-5" target="yVJXbOSST7ZACjrLtC8i-7">
          <mxGeometry relative="1" as="geometry">
            <mxPoint x="650" y="10" as="sourcePoint" />
            <mxPoint x="500" y="20" as="targetPoint" />
            <Array as="points">
              <mxPoint x="650" y="10" />
              <mxPoint x="490" y="20" />
              <mxPoint x="620" y="-20" />
              <mxPoint x="620" y="-20" />
              <mxPoint x="500" y="-10" />
            </Array>
          </mxGeometry>
        </mxCell>
        <mxCell id="yVJXbOSST7ZACjrLtC8i-3" style="edgeStyle=elbowEdgeStyle;rounded=1;orthogonalLoop=1;jettySize=auto;html=1;startArrow=none;endArrow=none;strokeColor=default;entryX=0.5;entryY=0;entryDx=0;entryDy=0;" edge="1" parent="1" target="yVJXbOSST7ZACjrLtC8i-10">
          <mxGeometry relative="1" as="geometry">
            <mxPoint x="650" y="90" as="sourcePoint" />
            <Array as="points">
              <mxPoint x="830" y="110" />
              <mxPoint x="810" y="10" />
              <mxPoint x="790" y="-20" />
            </Array>
          </mxGeometry>
        </mxCell>
        <mxCell id="yVJXbOSST7ZACjrLtC8i-4" style="edgeStyle=elbowEdgeStyle;orthogonalLoop=1;jettySize=auto;html=1;startArrow=none;endArrow=none;strokeColor=default;rounded=1;" edge="1" parent="1" target="yVJXbOSST7ZACjrLtC8i-11">
          <mxGeometry relative="1" as="geometry">
            <mxPoint x="650" y="90" as="sourcePoint" />
            <Array as="points">
              <mxPoint x="530" y="120" />
              <mxPoint x="500" y="110" />
              <mxPoint x="650" y="100" />
            </Array>
          </mxGeometry>
        </mxCell>
        <UserObject label="container" treeRoot="1" id="yVJXbOSST7ZACjrLtC8i-5">
          <mxCell style="whiteSpace=wrap;html=1;align=center;treeFolding=1;treeMoving=1;newEdgeStyle={&quot;edgeStyle&quot;:&quot;elbowEdgeStyle&quot;,&quot;startArrow&quot;:&quot;none&quot;,&quot;endArrow&quot;:&quot;none&quot;};rounded=1;" vertex="1" parent="1">
            <mxGeometry x="590" y="-70" width="120" height="40" as="geometry" />
          </mxCell>
        </UserObject>
        <mxCell id="yVJXbOSST7ZACjrLtC8i-6" style="edgeStyle=elbowEdgeStyle;rounded=1;orthogonalLoop=1;jettySize=auto;html=1;startArrow=none;endArrow=none;strokeColor=default;" edge="1" parent="1" source="yVJXbOSST7ZACjrLtC8i-7">
          <mxGeometry relative="1" as="geometry">
            <mxPoint x="650" y="90" as="targetPoint" />
          </mxGeometry>
        </mxCell>
        <UserObject label="cesium-viwer" treeRoot="1" id="yVJXbOSST7ZACjrLtC8i-7">
          <mxCell style="whiteSpace=wrap;html=1;align=center;treeFolding=1;treeMoving=1;newEdgeStyle={&quot;edgeStyle&quot;:&quot;elbowEdgeStyle&quot;,&quot;startArrow&quot;:&quot;none&quot;,&quot;endArrow&quot;:&quot;none&quot;};rounded=1;" vertex="1" parent="1">
            <mxGeometry x="590" y="10" width="120" height="40" as="geometry" />
          </mxCell>
        </UserObject>
        <mxCell id="yVJXbOSST7ZACjrLtC8i-8" value="&lt;font style=&quot;font-size: 19px;&quot;&gt;&lt;b&gt;DOM tree：&lt;/b&gt;&lt;/font&gt;" style="text;html=1;align=center;verticalAlign=middle;resizable=0;points=[];autosize=1;strokeColor=none;fillColor=none;rounded=1;" vertex="1" parent="1">
          <mxGeometry x="455" y="-142" width="121" height="35" as="geometry" />
        </mxCell>
        <mxCell id="yVJXbOSST7ZACjrLtC8i-9" style="edgeStyle=elbowEdgeStyle;rounded=1;orthogonalLoop=1;jettySize=auto;html=1;startArrow=none;endArrow=none;" edge="1" parent="1" source="yVJXbOSST7ZACjrLtC8i-10" target="yVJXbOSST7ZACjrLtC8i-13">
          <mxGeometry relative="1" as="geometry" />
        </mxCell>
        <UserObject label="cesium-viewer-cesiumWidgetContainer" treeRoot="1" id="yVJXbOSST7ZACjrLtC8i-10">
          <mxCell style="whiteSpace=wrap;html=1;align=center;treeFolding=1;treeMoving=1;newEdgeStyle={&quot;edgeStyle&quot;:&quot;elbowEdgeStyle&quot;,&quot;startArrow&quot;:&quot;none&quot;,&quot;endArrow&quot;:&quot;none&quot;};rounded=1;" vertex="1" parent="1">
            <mxGeometry x="710" y="130" width="240" height="40" as="geometry" />
          </mxCell>
        </UserObject>
        <UserObject label="cesium-viewer-button" treeRoot="1" id="yVJXbOSST7ZACjrLtC8i-11">
          <mxCell style="whiteSpace=wrap;html=1;align=center;treeFolding=1;treeMoving=1;newEdgeStyle={&quot;edgeStyle&quot;:&quot;elbowEdgeStyle&quot;,&quot;startArrow&quot;:&quot;none&quot;,&quot;endArrow&quot;:&quot;none&quot;};rounded=1;" vertex="1" parent="1">
            <mxGeometry x="470" y="130" width="120" height="40" as="geometry" />
          </mxCell>
        </UserObject>
        <mxCell id="yVJXbOSST7ZACjrLtC8i-12" style="edgeStyle=elbowEdgeStyle;rounded=1;orthogonalLoop=1;jettySize=auto;html=1;startArrow=none;endArrow=none;" edge="1" parent="1" source="yVJXbOSST7ZACjrLtC8i-13" target="yVJXbOSST7ZACjrLtC8i-14">
          <mxGeometry relative="1" as="geometry" />
        </mxCell>
        <UserObject label="cesium-widget" treeRoot="1" id="yVJXbOSST7ZACjrLtC8i-13">
          <mxCell style="whiteSpace=wrap;html=1;align=center;treeFolding=1;treeMoving=1;newEdgeStyle={&quot;edgeStyle&quot;:&quot;elbowEdgeStyle&quot;,&quot;startArrow&quot;:&quot;none&quot;,&quot;endArrow&quot;:&quot;none&quot;};rounded=1;" vertex="1" parent="1">
            <mxGeometry x="750" y="210" width="160" height="40" as="geometry" />
          </mxCell>
        </UserObject>
        <UserObject label="canvas" treeRoot="1" id="yVJXbOSST7ZACjrLtC8i-14">
          <mxCell style="whiteSpace=wrap;html=1;align=center;treeFolding=1;treeMoving=1;newEdgeStyle={&quot;edgeStyle&quot;:&quot;elbowEdgeStyle&quot;,&quot;startArrow&quot;:&quot;none&quot;,&quot;endArrow&quot;:&quot;none&quot;};rounded=1;" vertex="1" parent="1">
            <mxGeometry x="750" y="290" width="160" height="40" as="geometry" />
          </mxCell>
        </UserObject>
        <mxCell id="yVJXbOSST7ZACjrLtC8i-21" style="edgeStyle=elbowEdgeStyle;curved=1;orthogonalLoop=1;jettySize=auto;html=1;startArrow=none;endArrow=none;" edge="1" parent="1" source="yVJXbOSST7ZACjrLtC8i-18" target="yVJXbOSST7ZACjrLtC8i-20">
          <mxGeometry relative="1" as="geometry" />
        </mxCell>
        <mxCell id="yVJXbOSST7ZACjrLtC8i-42" style="edgeStyle=elbowEdgeStyle;rounded=1;orthogonalLoop=1;jettySize=auto;html=1;startArrow=none;endArrow=none;strokeColor=default;" edge="1" parent="1" source="yVJXbOSST7ZACjrLtC8i-18" target="yVJXbOSST7ZACjrLtC8i-41">
          <mxGeometry relative="1" as="geometry" />
        </mxCell>
        <UserObject label="vierwer" treeRoot="1" id="yVJXbOSST7ZACjrLtC8i-18">
          <mxCell style="whiteSpace=wrap;html=1;align=center;treeFolding=1;treeMoving=1;newEdgeStyle={&quot;edgeStyle&quot;:&quot;elbowEdgeStyle&quot;,&quot;startArrow&quot;:&quot;none&quot;,&quot;endArrow&quot;:&quot;none&quot;};fontSize=17;rounded=1;" vertex="1" parent="1">
            <mxGeometry x="-320" y="80" width="120" height="40" as="geometry" />
          </mxCell>
        </UserObject>
        <UserObject label="cesium" treeRoot="1" id="yVJXbOSST7ZACjrLtC8i-20">
          <mxCell style="whiteSpace=wrap;html=1;align=center;treeFolding=1;treeMoving=1;newEdgeStyle={&quot;edgeStyle&quot;:&quot;elbowEdgeStyle&quot;,&quot;startArrow&quot;:&quot;none&quot;,&quot;endArrow&quot;:&quot;none&quot;};fontSize=17;rounded=1;fillColor=#60a917;fontColor=#ffffff;strokeColor=#2D7600;" vertex="1" parent="1">
            <mxGeometry x="-320" width="120" height="40" as="geometry" />
          </mxCell>
        </UserObject>
        <UserObject label="cesium" treeRoot="1" id="yVJXbOSST7ZACjrLtC8i-22">
          <mxCell style="whiteSpace=wrap;html=1;align=center;treeFolding=1;treeMoving=1;newEdgeStyle={&quot;edgeStyle&quot;:&quot;elbowEdgeStyle&quot;,&quot;startArrow&quot;:&quot;none&quot;,&quot;endArrow&quot;:&quot;none&quot;};fontSize=17;rounded=1;" vertex="1" parent="1">
            <mxGeometry x="-320" width="120" height="40" as="geometry" />
          </mxCell>
        </UserObject>
        <mxCell id="yVJXbOSST7ZACjrLtC8i-25" value="globe" style="whiteSpace=wrap;html=1;align=center;verticalAlign=middle;treeFolding=1;treeMoving=1;newEdgeStyle={&quot;edgeStyle&quot;:&quot;elbowEdgeStyle&quot;,&quot;startArrow&quot;:&quot;none&quot;,&quot;endArrow&quot;:&quot;none&quot;};fontSize=17;rounded=1;" vertex="1" parent="1">
          <mxGeometry x="-320" y="400" width="120" height="40" as="geometry" />
        </mxCell>
        <mxCell id="yVJXbOSST7ZACjrLtC8i-26" value="skyBox" style="whiteSpace=wrap;html=1;align=center;verticalAlign=middle;treeFolding=1;treeMoving=1;newEdgeStyle={&quot;edgeStyle&quot;:&quot;elbowEdgeStyle&quot;,&quot;startArrow&quot;:&quot;none&quot;,&quot;endArrow&quot;:&quot;none&quot;};fontSize=17;rounded=1;" vertex="1" parent="1">
          <mxGeometry x="-160" y="400" width="120" height="40" as="geometry" />
        </mxCell>
        <mxCell id="yVJXbOSST7ZACjrLtC8i-27" value="Sun" style="whiteSpace=wrap;html=1;align=center;verticalAlign=middle;treeFolding=1;treeMoving=1;newEdgeStyle={&quot;edgeStyle&quot;:&quot;elbowEdgeStyle&quot;,&quot;startArrow&quot;:&quot;none&quot;,&quot;endArrow&quot;:&quot;none&quot;};fontSize=17;rounded=1;" vertex="1" parent="1">
          <mxGeometry y="400" width="120" height="40" as="geometry" />
        </mxCell>
        <mxCell id="yVJXbOSST7ZACjrLtC8i-28" value="moon" style="whiteSpace=wrap;html=1;align=center;verticalAlign=middle;treeFolding=1;treeMoving=1;newEdgeStyle={&quot;edgeStyle&quot;:&quot;elbowEdgeStyle&quot;,&quot;startArrow&quot;:&quot;none&quot;,&quot;endArrow&quot;:&quot;none&quot;};fontSize=17;rounded=1;" vertex="1" parent="1">
          <mxGeometry x="160" y="400" width="120" height="40" as="geometry" />
        </mxCell>
        <mxCell id="yVJXbOSST7ZACjrLtC8i-32" value="" style="endArrow=none;html=1;curved=1;exitX=0;exitY=0.5;exitDx=0;exitDy=0;entryX=0;entryY=0.5;entryDx=0;entryDy=0;" edge="1" parent="1" source="yVJXbOSST7ZACjrLtC8i-18" target="yVJXbOSST7ZACjrLtC8i-7">
          <mxGeometry width="50" height="50" relative="1" as="geometry">
            <mxPoint x="-150" y="120" as="sourcePoint" />
            <mxPoint x="400" y="-130" as="targetPoint" />
            <Array as="points">
              <mxPoint x="-410" y="30" />
              <mxPoint x="-380" y="-160" />
              <mxPoint x="-60" y="-260" />
              <mxPoint x="210" y="-220" />
              <mxPoint x="420" y="-110" />
            </Array>
          </mxGeometry>
        </mxCell>
        <UserObject label="dataSourceDisplay" treeRoot="1" id="yVJXbOSST7ZACjrLtC8i-34">
          <mxCell style="whiteSpace=wrap;html=1;align=center;treeFolding=1;treeMoving=1;newEdgeStyle={&quot;edgeStyle&quot;:&quot;elbowEdgeStyle&quot;,&quot;startArrow&quot;:&quot;none&quot;,&quot;endArrow&quot;:&quot;none&quot;};fontSize=17;rounded=1;fillColor=#FFFFFF;" vertex="1" parent="1">
            <mxGeometry x="-821" y="20" width="201" height="40" as="geometry" />
          </mxCell>
        </UserObject>
        <UserObject label="CustomDataSource" treeRoot="1" id="yVJXbOSST7ZACjrLtC8i-36">
          <mxCell style="whiteSpace=wrap;html=1;align=center;treeFolding=1;treeMoving=1;newEdgeStyle={&quot;edgeStyle&quot;:&quot;elbowEdgeStyle&quot;,&quot;startArrow&quot;:&quot;none&quot;,&quot;endArrow&quot;:&quot;none&quot;};fontSize=17;rounded=1;fillColor=#FFFFFF;" vertex="1" parent="1">
            <mxGeometry x="-821" y="80" width="201" height="40" as="geometry" />
          </mxCell>
        </UserObject>
        <UserObject label="EntityCollection" treeRoot="1" id="yVJXbOSST7ZACjrLtC8i-38">
          <mxCell style="whiteSpace=wrap;html=1;align=center;treeFolding=1;treeMoving=1;newEdgeStyle={&quot;edgeStyle&quot;:&quot;elbowEdgeStyle&quot;,&quot;startArrow&quot;:&quot;none&quot;,&quot;endArrow&quot;:&quot;none&quot;};fontSize=17;rounded=1;fillColor=#FFFFFF;" vertex="1" parent="1">
            <mxGeometry x="-820" y="140" width="200" height="40" as="geometry" />
          </mxCell>
        </UserObject>
        <UserObject label="viewer.dataSource.add" treeRoot="1" id="yVJXbOSST7ZACjrLtC8i-41">
          <mxCell style="whiteSpace=wrap;html=1;align=center;treeFolding=1;treeMoving=1;newEdgeStyle={&quot;edgeStyle&quot;:&quot;elbowEdgeStyle&quot;,&quot;startArrow&quot;:&quot;none&quot;,&quot;endArrow&quot;:&quot;none&quot;};fontSize=17;rounded=1;fillColor=#FFFFFF;" vertex="1" parent="1">
            <mxGeometry x="-600" y="80" width="201" height="40" as="geometry" />
          </mxCell>
        </UserObject>
        <mxCell id="yVJXbOSST7ZACjrLtC8i-45" value="" style="shape=curlyBracket;whiteSpace=wrap;html=1;rounded=1;flipH=1;labelPosition=right;verticalLabelPosition=middle;align=left;verticalAlign=middle;fillColor=#FFFFFF;" vertex="1" parent="1">
          <mxGeometry x="-620" y="40" width="20" height="120" as="geometry" />
        </mxCell>
        <mxCell id="yVJXbOSST7ZACjrLtC8i-46" value="" style="endArrow=classic;html=1;rounded=1;strokeColor=default;exitX=0.5;exitY=1;exitDx=0;exitDy=0;entryX=0.5;entryY=0;entryDx=0;entryDy=0;" edge="1" parent="1" source="yVJXbOSST7ZACjrLtC8i-34" target="yVJXbOSST7ZACjrLtC8i-36">
          <mxGeometry width="50" height="50" relative="1" as="geometry">
            <mxPoint x="-560" y="120" as="sourcePoint" />
            <mxPoint x="-510" y="70" as="targetPoint" />
          </mxGeometry>
        </mxCell>
        <mxCell id="yVJXbOSST7ZACjrLtC8i-47" value="" style="endArrow=classic;html=1;rounded=1;strokeColor=default;exitX=0.5;exitY=1;exitDx=0;exitDy=0;entryX=0.5;entryY=0;entryDx=0;entryDy=0;" edge="1" parent="1" source="yVJXbOSST7ZACjrLtC8i-36" target="yVJXbOSST7ZACjrLtC8i-38">
          <mxGeometry width="50" height="50" relative="1" as="geometry">
            <mxPoint x="-560" y="120" as="sourcePoint" />
            <mxPoint x="-730" y="140" as="targetPoint" />
          </mxGeometry>
        </mxCell>
      </root>
    </mxGraphModel>
  </diagram>
  <diagram id="GUK0V0dh64dwLkJbBZJ9" name="Viewer">
    <mxGraphModel dx="2250" dy="973" grid="1" gridSize="10" guides="1" tooltips="1" connect="1" arrows="1" fold="1" page="0" pageScale="1" pageWidth="827" pageHeight="1169" math="0" shadow="0">
      <root>
        <mxCell id="0" />
        <mxCell id="1" parent="0" />
        <mxCell id="wPjmAH_KOqfz4lIhU-cN-6" style="edgeStyle=elbowEdgeStyle;rounded=0;orthogonalLoop=1;jettySize=auto;html=1;startArrow=none;endArrow=none;strokeColor=default;exitX=0.5;exitY=1;exitDx=0;exitDy=0;entryX=0.5;entryY=0;entryDx=0;entryDy=0;" parent="1" source="wPjmAH_KOqfz4lIhU-cN-4" target="wPjmAH_KOqfz4lIhU-cN-5" edge="1">
          <mxGeometry relative="1" as="geometry">
            <mxPoint x="-140" y="120" as="sourcePoint" />
            <mxPoint x="-290" y="130" as="targetPoint" />
            <Array as="points">
              <mxPoint x="-140" y="120" />
              <mxPoint x="-300" y="130" />
              <mxPoint x="-170" y="90" />
              <mxPoint x="-170" y="90" />
              <mxPoint x="-290" y="100" />
            </Array>
          </mxGeometry>
        </mxCell>
        <mxCell id="cgG3sBe8PLo-EgD-YiP8-2" style="edgeStyle=elbowEdgeStyle;rounded=0;orthogonalLoop=1;jettySize=auto;html=1;startArrow=none;endArrow=none;strokeColor=default;entryX=0.5;entryY=0;entryDx=0;entryDy=0;" parent="1" target="cgG3sBe8PLo-EgD-YiP8-1" edge="1">
          <mxGeometry relative="1" as="geometry">
            <mxPoint x="-140" y="200" as="sourcePoint" />
            <Array as="points">
              <mxPoint x="40" y="220" />
              <mxPoint x="20" y="120" />
              <mxPoint y="90" />
            </Array>
          </mxGeometry>
        </mxCell>
        <mxCell id="eBl3zI4ohQ78iaPyz5qR-2" style="edgeStyle=elbowEdgeStyle;orthogonalLoop=1;jettySize=auto;html=1;startArrow=none;endArrow=none;strokeColor=default;rounded=0;" parent="1" target="eBl3zI4ohQ78iaPyz5qR-1" edge="1">
          <mxGeometry relative="1" as="geometry">
            <mxPoint x="-140" y="200" as="sourcePoint" />
            <Array as="points">
              <mxPoint x="-260" y="230" />
              <mxPoint x="-290" y="220" />
              <mxPoint x="-140" y="210" />
            </Array>
          </mxGeometry>
        </mxCell>
        <UserObject label="container" treeRoot="1" id="wPjmAH_KOqfz4lIhU-cN-4">
          <mxCell style="whiteSpace=wrap;html=1;align=center;treeFolding=1;treeMoving=1;newEdgeStyle={&quot;edgeStyle&quot;:&quot;elbowEdgeStyle&quot;,&quot;startArrow&quot;:&quot;none&quot;,&quot;endArrow&quot;:&quot;none&quot;};rounded=0;" parent="1" vertex="1">
            <mxGeometry x="-200" y="40" width="120" height="40" as="geometry" />
          </mxCell>
        </UserObject>
        <mxCell id="eBl3zI4ohQ78iaPyz5qR-6" style="edgeStyle=elbowEdgeStyle;rounded=0;orthogonalLoop=1;jettySize=auto;html=1;startArrow=none;endArrow=none;strokeColor=default;" parent="1" source="wPjmAH_KOqfz4lIhU-cN-5" edge="1">
          <mxGeometry relative="1" as="geometry">
            <mxPoint x="-140" y="200" as="targetPoint" />
          </mxGeometry>
        </mxCell>
        <UserObject label="cesium-viwer" treeRoot="1" id="wPjmAH_KOqfz4lIhU-cN-5">
          <mxCell style="whiteSpace=wrap;html=1;align=center;treeFolding=1;treeMoving=1;newEdgeStyle={&quot;edgeStyle&quot;:&quot;elbowEdgeStyle&quot;,&quot;startArrow&quot;:&quot;none&quot;,&quot;endArrow&quot;:&quot;none&quot;};rounded=0;" parent="1" vertex="1">
            <mxGeometry x="-200" y="120" width="120" height="40" as="geometry" />
          </mxCell>
        </UserObject>
        <mxCell id="wPjmAH_KOqfz4lIhU-cN-7" value="DOM tree：" style="text;html=1;align=center;verticalAlign=middle;resizable=0;points=[];autosize=1;strokeColor=none;fillColor=none;rounded=0;" parent="1" vertex="1">
          <mxGeometry x="-320" y="-30" width="90" height="30" as="geometry" />
        </mxCell>
        <mxCell id="9wLkLUHY1F8vCfiUpnfe-2" style="edgeStyle=elbowEdgeStyle;rounded=0;orthogonalLoop=1;jettySize=auto;html=1;startArrow=none;endArrow=none;" parent="1" source="cgG3sBe8PLo-EgD-YiP8-1" target="9wLkLUHY1F8vCfiUpnfe-1" edge="1">
          <mxGeometry relative="1" as="geometry" />
        </mxCell>
        <UserObject label="cesium-viewer-cesiumWidgetContainer" treeRoot="1" id="cgG3sBe8PLo-EgD-YiP8-1">
          <mxCell style="whiteSpace=wrap;html=1;align=center;treeFolding=1;treeMoving=1;newEdgeStyle={&quot;edgeStyle&quot;:&quot;elbowEdgeStyle&quot;,&quot;startArrow&quot;:&quot;none&quot;,&quot;endArrow&quot;:&quot;none&quot;};rounded=0;" parent="1" vertex="1">
            <mxGeometry x="-80" y="240" width="240" height="40" as="geometry" />
          </mxCell>
        </UserObject>
        <UserObject label="cesium-viewer-button" treeRoot="1" id="eBl3zI4ohQ78iaPyz5qR-1">
          <mxCell style="whiteSpace=wrap;html=1;align=center;treeFolding=1;treeMoving=1;newEdgeStyle={&quot;edgeStyle&quot;:&quot;elbowEdgeStyle&quot;,&quot;startArrow&quot;:&quot;none&quot;,&quot;endArrow&quot;:&quot;none&quot;};rounded=0;" parent="1" vertex="1">
            <mxGeometry x="-320" y="240" width="120" height="40" as="geometry" />
          </mxCell>
        </UserObject>
        <mxCell id="9wLkLUHY1F8vCfiUpnfe-4" style="edgeStyle=elbowEdgeStyle;rounded=0;orthogonalLoop=1;jettySize=auto;html=1;startArrow=none;endArrow=none;" parent="1" source="9wLkLUHY1F8vCfiUpnfe-1" target="9wLkLUHY1F8vCfiUpnfe-3" edge="1">
          <mxGeometry relative="1" as="geometry" />
        </mxCell>
        <UserObject label="cesium-widget" treeRoot="1" id="9wLkLUHY1F8vCfiUpnfe-1">
          <mxCell style="whiteSpace=wrap;html=1;align=center;treeFolding=1;treeMoving=1;newEdgeStyle={&quot;edgeStyle&quot;:&quot;elbowEdgeStyle&quot;,&quot;startArrow&quot;:&quot;none&quot;,&quot;endArrow&quot;:&quot;none&quot;};rounded=0;" parent="1" vertex="1">
            <mxGeometry x="-40" y="320" width="160" height="40" as="geometry" />
          </mxCell>
        </UserObject>
        <UserObject label="canvas" treeRoot="1" id="9wLkLUHY1F8vCfiUpnfe-3">
          <mxCell style="whiteSpace=wrap;html=1;align=center;treeFolding=1;treeMoving=1;newEdgeStyle={&quot;edgeStyle&quot;:&quot;elbowEdgeStyle&quot;,&quot;startArrow&quot;:&quot;none&quot;,&quot;endArrow&quot;:&quot;none&quot;};rounded=0;" parent="1" vertex="1">
            <mxGeometry x="-40" y="400" width="160" height="40" as="geometry" />
          </mxCell>
        </UserObject>
        <mxCell id="CpJXRDt5KspnD9kWTl0G-1" value="" style="whiteSpace=wrap;html=1;aspect=fixed;fillColor=#647687;strokeColor=#314354;fontColor=#ffffff;" vertex="1" parent="1">
          <mxGeometry x="-890" y="40" width="510" height="510" as="geometry" />
        </mxCell>
        <mxCell id="CpJXRDt5KspnD9kWTl0G-2" style="edgeStyle=elbowEdgeStyle;rounded=0;orthogonalLoop=1;jettySize=auto;html=1;startArrow=none;endArrow=none;strokeColor=default;exitX=0.5;exitY=1;exitDx=0;exitDy=0;entryX=0.5;entryY=0;entryDx=0;entryDy=0;" edge="1" parent="1" source="CpJXRDt5KspnD9kWTl0G-5" target="CpJXRDt5KspnD9kWTl0G-7">
          <mxGeometry relative="1" as="geometry">
            <mxPoint x="-695" y="190" as="sourcePoint" />
            <mxPoint x="-845" y="200" as="targetPoint" />
            <Array as="points">
              <mxPoint x="-695" y="190" />
              <mxPoint x="-855" y="200" />
              <mxPoint x="-725" y="160" />
              <mxPoint x="-725" y="160" />
              <mxPoint x="-845" y="170" />
            </Array>
          </mxGeometry>
        </mxCell>
        <mxCell id="CpJXRDt5KspnD9kWTl0G-3" style="edgeStyle=elbowEdgeStyle;rounded=0;orthogonalLoop=1;jettySize=auto;html=1;startArrow=none;endArrow=none;strokeColor=default;entryX=0.5;entryY=0;entryDx=0;entryDy=0;" edge="1" parent="1" target="CpJXRDt5KspnD9kWTl0G-10">
          <mxGeometry relative="1" as="geometry">
            <mxPoint x="-695" y="270" as="sourcePoint" />
            <Array as="points">
              <mxPoint x="-515" y="290" />
              <mxPoint x="-535" y="190" />
              <mxPoint x="-555" y="160" />
            </Array>
          </mxGeometry>
        </mxCell>
        <mxCell id="CpJXRDt5KspnD9kWTl0G-4" style="edgeStyle=elbowEdgeStyle;orthogonalLoop=1;jettySize=auto;html=1;startArrow=none;endArrow=none;strokeColor=default;rounded=0;" edge="1" parent="1" target="CpJXRDt5KspnD9kWTl0G-11">
          <mxGeometry relative="1" as="geometry">
            <mxPoint x="-695" y="270" as="sourcePoint" />
            <Array as="points">
              <mxPoint x="-815" y="300" />
              <mxPoint x="-845" y="290" />
              <mxPoint x="-695" y="280" />
            </Array>
          </mxGeometry>
        </mxCell>
        <UserObject label="container" treeRoot="1" id="CpJXRDt5KspnD9kWTl0G-5">
          <mxCell style="whiteSpace=wrap;html=1;align=center;treeFolding=1;treeMoving=1;newEdgeStyle={&quot;edgeStyle&quot;:&quot;elbowEdgeStyle&quot;,&quot;startArrow&quot;:&quot;none&quot;,&quot;endArrow&quot;:&quot;none&quot;};rounded=0;" vertex="1" parent="1">
            <mxGeometry x="-755" y="110" width="120" height="40" as="geometry" />
          </mxCell>
        </UserObject>
        <mxCell id="CpJXRDt5KspnD9kWTl0G-6" style="edgeStyle=elbowEdgeStyle;rounded=0;orthogonalLoop=1;jettySize=auto;html=1;startArrow=none;endArrow=none;strokeColor=default;" edge="1" parent="1" source="CpJXRDt5KspnD9kWTl0G-7">
          <mxGeometry relative="1" as="geometry">
            <mxPoint x="-695" y="270" as="targetPoint" />
          </mxGeometry>
        </mxCell>
        <UserObject label="cesium-viwer" treeRoot="1" id="CpJXRDt5KspnD9kWTl0G-7">
          <mxCell style="whiteSpace=wrap;html=1;align=center;treeFolding=1;treeMoving=1;newEdgeStyle={&quot;edgeStyle&quot;:&quot;elbowEdgeStyle&quot;,&quot;startArrow&quot;:&quot;none&quot;,&quot;endArrow&quot;:&quot;none&quot;};rounded=0;" vertex="1" parent="1">
            <mxGeometry x="-755" y="190" width="120" height="40" as="geometry" />
          </mxCell>
        </UserObject>
        <mxCell id="CpJXRDt5KspnD9kWTl0G-8" value="DOM tree：" style="text;html=1;align=center;verticalAlign=middle;resizable=0;points=[];autosize=1;strokeColor=none;fillColor=none;rounded=0;" vertex="1" parent="1">
          <mxGeometry x="-875" y="40" width="90" height="30" as="geometry" />
        </mxCell>
        <mxCell id="CpJXRDt5KspnD9kWTl0G-9" style="edgeStyle=elbowEdgeStyle;rounded=0;orthogonalLoop=1;jettySize=auto;html=1;startArrow=none;endArrow=none;" edge="1" parent="1" source="CpJXRDt5KspnD9kWTl0G-10" target="CpJXRDt5KspnD9kWTl0G-13">
          <mxGeometry relative="1" as="geometry" />
        </mxCell>
        <UserObject label="cesium-viewer-cesiumWidgetContainer" treeRoot="1" id="CpJXRDt5KspnD9kWTl0G-10">
          <mxCell style="whiteSpace=wrap;html=1;align=center;treeFolding=1;treeMoving=1;newEdgeStyle={&quot;edgeStyle&quot;:&quot;elbowEdgeStyle&quot;,&quot;startArrow&quot;:&quot;none&quot;,&quot;endArrow&quot;:&quot;none&quot;};rounded=0;" vertex="1" parent="1">
            <mxGeometry x="-635" y="310" width="240" height="40" as="geometry" />
          </mxCell>
        </UserObject>
        <UserObject label="cesium-viewer-button" treeRoot="1" id="CpJXRDt5KspnD9kWTl0G-11">
          <mxCell style="whiteSpace=wrap;html=1;align=center;treeFolding=1;treeMoving=1;newEdgeStyle={&quot;edgeStyle&quot;:&quot;elbowEdgeStyle&quot;,&quot;startArrow&quot;:&quot;none&quot;,&quot;endArrow&quot;:&quot;none&quot;};rounded=0;" vertex="1" parent="1">
            <mxGeometry x="-875" y="310" width="120" height="40" as="geometry" />
          </mxCell>
        </UserObject>
        <mxCell id="CpJXRDt5KspnD9kWTl0G-12" style="edgeStyle=elbowEdgeStyle;rounded=0;orthogonalLoop=1;jettySize=auto;html=1;startArrow=none;endArrow=none;" edge="1" parent="1" source="CpJXRDt5KspnD9kWTl0G-13" target="CpJXRDt5KspnD9kWTl0G-14">
          <mxGeometry relative="1" as="geometry" />
        </mxCell>
        <UserObject label="cesium-widget" treeRoot="1" id="CpJXRDt5KspnD9kWTl0G-13">
          <mxCell style="whiteSpace=wrap;html=1;align=center;treeFolding=1;treeMoving=1;newEdgeStyle={&quot;edgeStyle&quot;:&quot;elbowEdgeStyle&quot;,&quot;startArrow&quot;:&quot;none&quot;,&quot;endArrow&quot;:&quot;none&quot;};rounded=0;" vertex="1" parent="1">
            <mxGeometry x="-595" y="390" width="160" height="40" as="geometry" />
          </mxCell>
        </UserObject>
        <UserObject label="canvas" treeRoot="1" id="CpJXRDt5KspnD9kWTl0G-14">
          <mxCell style="whiteSpace=wrap;html=1;align=center;treeFolding=1;treeMoving=1;newEdgeStyle={&quot;edgeStyle&quot;:&quot;elbowEdgeStyle&quot;,&quot;startArrow&quot;:&quot;none&quot;,&quot;endArrow&quot;:&quot;none&quot;};rounded=0;" vertex="1" parent="1">
            <mxGeometry x="-595" y="470" width="160" height="40" as="geometry" />
          </mxCell>
        </UserObject>
      </root>
    </mxGraphModel>
  </diagram>
</mxfile>
